<svg width="100" height="100" viewBox="0 0 100 100" xmlns="http://www.w3.org/2000/svg">
    <g fill="none" fill-rule="evenodd">
        <circle fill="#4B4B5D" cx="50" cy="50" r="50"/>
        <path d="M68.856 57.81a26.564 26.564 0 0 0-10.133-6.356c4.04-2.782 6.694-7.439 6.694-12.704 0-8.5-6.916-15.417-15.417-15.417-8.5 0-15.417 6.916-15.417 15.417 0 5.265 2.654 9.922 6.694 12.704a26.564 26.564 0 0 0-10.133 6.356c-5.037 5.037-7.81 11.734-7.81 18.857H27.5c0-12.407 10.093-22.5 22.5-22.5s22.5 10.093 22.5 22.5h4.167c0-7.123-2.774-13.82-7.81-18.857zM50 50c-6.203 0-11.25-5.047-11.25-11.25S43.797 27.5 50 27.5s11.25 5.047 11.25 11.25S56.203 50 50 50z" fill="#E0E0FF" fill-rule="nonzero"/>
    </g>
</svg>
