<svg width="28" height="28" viewBox="0 0 28 28" fill="none" xmlns="http://www.w3.org/2000/svg">
<path d="M14.0002 26.0417C7.35797 26.0417 1.9585 20.6422 1.9585 14C1.9585 7.35785 7.35797 1.95837 14.0002 1.95837C20.6424 1.95837 26.0418 7.35785 26.0418 14C26.0418 20.6422 20.6424 26.0417 14.0002 26.0417ZM14.0002 2.70837C7.77402 2.70837 2.7085 7.7739 2.7085 14C2.7085 20.2262 7.77402 25.2917 14.0002 25.2917C20.2263 25.2917 25.2918 20.2262 25.2918 14C25.2918 7.7739 20.2263 2.70837 14.0002 2.70837Z" fill="white" stroke="white"/>
<path d="M10.963 17.5665L10.9569 17.5726L10.9511 17.5789C10.8975 17.6363 10.8053 17.6767 10.6983 17.6767C10.602 17.6767 10.5098 17.6428 10.4335 17.5665C10.2904 17.4234 10.2904 17.18 10.4335 17.0369L17.0368 10.4336C17.1799 10.2905 17.4233 10.2905 17.5664 10.4336C17.7094 10.5767 17.7094 10.8201 17.5664 10.9632L10.963 17.5665Z" fill="white" stroke="white"/>
<path d="M17.3016 18.1767C17.0799 18.1767 16.8583 18.095 16.6833 17.92L10.0799 11.3167C9.74159 10.9784 9.74159 10.4184 10.0799 10.08C10.4183 9.74171 10.9783 9.74171 11.3166 10.08L17.9199 16.6834C18.2583 17.0217 18.2583 17.5817 17.9199 17.92C17.7449 18.095 17.5233 18.1767 17.3016 18.1767Z" fill="white"/>
</svg>
