<svg width="28" height="28" viewBox="0 0 28 28" fill="none" xmlns="http://www.w3.org/2000/svg">
<path d="M14 16.7083C13.7978 16.7083 13.625 16.5355 13.625 16.3333V10.5C13.625 10.2978 13.7978 10.125 14 10.125C14.2022 10.125 14.375 10.2978 14.375 10.5V16.3333C14.375 16.5355 14.2022 16.7083 14 16.7083Z" fill="white" stroke="white"/>
<path d="M13.7804 20.4594L13.7487 20.4435L13.7149 20.4323C13.6956 20.4258 13.6705 20.4147 13.6396 20.3955L13.5146 20.2955C13.3991 20.1631 13.3335 19.9913 13.3335 19.8333C13.3335 19.6753 13.3991 19.5035 13.5146 19.371L13.6396 19.2711C13.6705 19.2519 13.6956 19.2407 13.7149 19.2343L13.7487 19.2231L13.7804 19.2072C13.8104 19.1922 13.833 19.1858 13.849 19.1831L13.8642 19.1806L13.8793 19.1771C13.9601 19.1585 14.0431 19.1607 14.1006 19.175L14.1256 19.1813L14.1511 19.1849C14.1751 19.1883 14.1937 19.1941 14.2199 19.2072L14.2517 19.2231L14.2854 19.2343C14.3047 19.2407 14.3298 19.2519 14.3607 19.2711L14.4857 19.371C14.6012 19.5035 14.6668 19.6753 14.6668 19.8333C14.6668 19.9913 14.6012 20.1631 14.4857 20.2955L14.3607 20.3955C14.3298 20.4147 14.3047 20.4258 14.2854 20.4323L14.2517 20.4435L14.2199 20.4594C14.1937 20.4725 14.1751 20.4782 14.1511 20.4816L14.1511 20.4815L14.1396 20.4834C14.0713 20.4948 14.0252 20.4999 14.0002 20.4999C13.9737 20.4999 13.9318 20.495 13.8452 20.4827C13.8295 20.4797 13.8081 20.4732 13.7804 20.4594Z" fill="white" stroke="white"/>
<path d="M21.0702 25.8533H6.93022C4.65522 25.8533 2.91688 25.0249 2.03022 23.5316C1.15522 22.0383 1.27188 20.1133 2.38022 18.1183L9.45022 5.40161C10.6169 3.30161 12.2269 2.14661 14.0002 2.14661C15.7735 2.14661 17.3835 3.30161 18.5502 5.40161L25.6202 18.1299C26.7285 20.1249 26.8569 22.0383 25.9702 23.5433C25.0835 25.0249 23.3452 25.8533 21.0702 25.8533ZM14.0002 3.89661C12.9035 3.89661 11.8302 4.73661 10.9785 6.25327L3.92022 18.9816C3.12688 20.4049 2.99855 21.7116 3.54688 22.6566C4.09522 23.6016 5.30855 24.1149 6.94188 24.1149H21.0819C22.7152 24.1149 23.9169 23.6016 24.4769 22.6566C25.0369 21.7116 24.8969 20.4166 24.1035 18.9816L17.0219 6.25327C16.1702 4.73661 15.0969 3.89661 14.0002 3.89661Z" fill="white"/>
</svg>
