<svg width="130" height="130" viewBox="0 0 130 130" fill="none" xmlns="http://www.w3.org/2000/svg">
<g clip-path="url(#clip0_1901_83760)">
<rect x="0.436523" y="65.0322" width="91.9688" height="91.9688" rx="13.3662" transform="rotate(-45 0.436523 65.0322)" fill="#D6E6FF"/>
<mask id="mask0_1901_83760" style="mask-type:alpha" maskUnits="userSpaceOnUse" x="5" y="5" width="120" height="120">
<rect x="0.436523" y="65.0322" width="91.9688" height="91.9688" rx="13.3662" transform="rotate(-45 0.436523 65.0322)" fill="white"/>
</mask>
<g mask="url(#mask0_1901_83760)">
<ellipse cx="33.3728" cy="57.6374" rx="53.2038" ry="65.238" fill="#E3EEFE"/>
</g>
<g clip-path="url(#clip1_1901_83760)">
<path d="M113 54.8972C113 32.8625 95.0558 15 72.9207 15C50.7854 15 32.8413 32.8625 32.8413 54.8972C32.8413 76.9318 50.7854 94.7945 72.9207 94.7945C77.5665 94.7945 82.0263 94.005 86.1757 92.5578L98.403 98.463V85.6934C107.317 78.3757 113 67.2971 113 54.8972Z" fill="#6D85DE"/>
<path d="M72.9208 15C71.6586 15 70.4107 15.061 69.1783 15.1746C89.5583 17.0536 105.515 34.1191 105.515 54.8972C105.515 75.3312 89.1289 92.6919 69.1216 94.6149C70.3724 94.7321 71.6393 94.7944 72.9208 94.7944C77.5666 94.7944 82.0264 94.0048 86.1758 92.5576L98.4031 98.4628V85.6933C107.317 78.3757 113 67.2971 113 54.8972C113 32.8625 95.0559 15 72.9208 15V15Z" fill="#5D76D5"/>
<path d="M54.3732 61.3465C57.495 61.3465 60.0257 58.8158 60.0257 55.694C60.0257 52.5722 57.495 50.0415 54.3732 50.0415C51.2514 50.0415 48.7207 52.5722 48.7207 55.694C48.7207 58.8158 51.2514 61.3465 54.3732 61.3465Z" fill="white"/>
<path d="M72.9205 61.3465C76.0423 61.3465 78.573 58.8158 78.573 55.694C78.573 52.5722 76.0423 50.0415 72.9205 50.0415C69.7988 50.0415 67.2681 52.5722 67.2681 55.694C67.2681 58.8158 69.7988 61.3465 72.9205 61.3465Z" fill="white"/>
<path d="M91.4679 61.3465C94.5897 61.3465 97.1204 58.8158 97.1204 55.694C97.1204 52.5722 94.5897 50.0415 91.4679 50.0415C88.3461 50.0415 85.8154 52.5722 85.8154 55.694C85.8154 58.8158 88.3461 61.3465 91.4679 61.3465Z" fill="white"/>
<path d="M20 86.5225C20 75.6596 28.8463 66.8535 39.7587 66.8535C50.6711 66.8535 59.5176 75.6596 59.5176 86.5225C59.5176 97.3855 50.6713 106.192 39.7587 106.192C37.4684 106.192 35.2696 105.802 33.224 105.089L27.1962 108V101.705C22.8016 98.0972 20 92.6356 20 86.5225V86.5225Z" fill="#C1CBF1"/>
<path d="M39.7585 66.8535C38.4788 66.8535 37.228 66.9761 36.0161 67.2074C45.1388 68.9487 52.0325 76.9335 52.0325 86.5227C52.0325 96.1084 45.1437 104.091 36.0257 105.836C37.2349 106.067 38.4817 106.192 39.7585 106.192C50.6709 106.192 59.5173 97.3857 59.5173 86.5227C59.5173 75.6596 50.6711 66.8535 39.7585 66.8535Z" fill="#97A8E7"/>
</g>
<rect x="116.47" y="15" width="14.8066" height="14.8066" rx="3.40821" transform="rotate(45 116.47 15)" fill="#E3EEFF"/>
<line x1="26.1218" y1="27.8888" x2="32.12" y2="29.1906" stroke="#C1CBF1" stroke-width="2.81515" stroke-linecap="round"/>
<line x1="38.3248" y1="13.7906" x2="39.8291" y2="19.684" stroke="#C1CBF1" stroke-width="2.81515" stroke-linecap="round"/>
<line x1="26.8069" y1="17.6659" x2="35.4218" y2="24.8233" stroke="#C1CBF1" stroke-width="2.81515" stroke-linecap="round"/>
<rect x="105.745" y="7" width="8.83147" height="8.83147" rx="2" transform="rotate(45 105.745 7)" fill="#E3EEFF"/>
<rect x="8.11621" y="37.3838" width="8.37756" height="8.37756" rx="1" transform="rotate(45 8.11621 37.3838)" fill="#E3EEFF"/>
</g>
<defs>
<clipPath id="clip0_1901_83760">
<rect width="130" height="130" fill="white"/>
</clipPath>
<clipPath id="clip1_1901_83760">
<rect width="93" height="93" fill="white" transform="translate(20 15)"/>
</clipPath>
</defs>
</svg>
