<svg width="126" height="122" viewBox="0 0 126 122" fill="none" xmlns="http://www.w3.org/2000/svg">
<rect x="0.5" y="60.6718" width="85.802" height="85.802" rx="14.1818" transform="rotate(-45 0.5 60.6718)" fill="#E3EEFF"/>
<mask id="mask0_1969_7241" style="mask-type:alpha" maskUnits="userSpaceOnUse" x="6" y="5" width="110" height="111">
<rect x="0.500366" y="60.6711" width="85.802" height="85.802" rx="14.1818" transform="rotate(-45 0.500366 60.6711)" fill="#E3EEFF"/>
</mask>
<g mask="url(#mask0_1969_7241)">
<ellipse cx="31.2276" cy="53.7731" rx="49.6364" ry="60.8636" fill="#F1F7FE"/>
</g>
<g clip-path="url(#clip0_1969_7241)">
<path d="M81.6118 29.0697C81.5679 29.084 66.2011 33.6119 66.1575 33.6269C64.5101 34.1999 63.4032 35.7569 63.4032 37.501V44.4282C63.4032 45.7875 64.505 46.8893 65.8643 46.8893H84.5687C85.928 46.8893 87.0298 45.7875 87.0298 44.4282V32.9545C87.0298 30.1528 84.2708 28.1685 81.6118 29.0697Z" fill="#F57E25"/>
<path d="M39.7764 41.9672V88.3352C39.7764 94.2158 44.5607 99 50.4413 99H76.3652C82.2458 99 87.03 94.2158 87.03 88.3352C87.03 85.7538 87.03 43.2621 87.03 41.9672H39.7764Z" fill="#C1CBF1"/>
<path d="M52.4535 53.2882C51.0943 53.2882 49.9924 54.3901 49.9924 55.7493V85.2176C49.9924 86.5768 51.0943 87.6787 52.4535 87.6787C53.8128 87.6787 54.9146 86.5768 54.9146 85.2176V55.7493C54.9146 54.3901 53.8126 53.2882 52.4535 53.2882Z" fill="#97A8E7"/>
<path d="M63.4031 53.2882C62.0438 53.2882 60.942 54.3901 60.942 55.7493V85.2176C60.942 86.5768 62.0438 87.6787 63.4031 87.6787C64.7623 87.6787 65.8642 86.5768 65.8642 85.2176V55.7493C65.8642 54.3901 64.7623 53.2882 63.4031 53.2882Z" fill="#97A8E7"/>
<path d="M74.3528 53.2882C72.9935 53.2882 71.8917 54.3901 71.8917 55.7493V85.2176C71.8917 86.5768 72.9935 87.6787 74.3528 87.6787C75.712 87.6787 76.8139 86.5768 76.8139 85.2176V55.7493C76.8139 54.3901 75.712 53.2882 74.3528 53.2882Z" fill="#97A8E7"/>
<path d="M45.0279 17.9646C45.0279 17.9646 45.0279 17.9646 45.0263 17.9646C42.5102 16.3916 39.1174 16.6861 36.9117 18.8916V18.8932L32.3869 23.4164L27.862 27.9413C25.3027 30.5006 25.3027 34.6646 27.862 37.2223L30.1835 39.5438L33.5156 39.1992L33.6633 36.0624L31.3434 33.7425C30.7036 33.1027 30.7036 32.0609 31.3434 31.4227L35.8683 26.8978L40.3915 22.373H40.3931C40.9984 21.7678 42.0379 21.6977 42.7113 22.3713L45.0328 24.6928L48.0762 24.1875L48.5142 21.2131C46.0851 18.784 45.822 18.4539 45.0279 17.9646Z" fill="#6D85DE"/>
<path d="M45.0279 17.9646C45.0279 17.9646 45.0279 17.9646 45.0262 17.9646C42.5166 16.3955 39.1252 16.6799 36.9117 18.8932L32.3868 23.4164L35.8682 26.8978L40.3931 22.373C40.9978 21.7683 42.0365 21.6964 42.7113 22.3713L45.0328 24.6928L48.5142 21.2131C46.0055 18.7044 45.8626 18.4939 45.0279 17.9646Z" fill="#4463D5"/>
<path d="M65.5764 21.0883L61.1677 16.6796C58.9287 14.4406 55.2856 14.4406 53.0464 16.6796L25.6493 44.0765C23.4104 46.3155 23.4104 49.9587 25.6493 52.1978L30.058 56.6065C31.0189 57.5676 32.5773 57.5677 33.5384 56.6065L65.5764 24.5687C66.5375 23.6076 66.5375 22.0494 65.5764 21.0883Z" fill="#97A8E7"/>
<path d="M61.1675 16.6793L65.5762 21.088C66.5368 22.0486 66.5379 23.6067 65.5762 24.5686L49.5576 40.5872L39.348 30.3776L53.0463 16.6793C55.2854 14.4402 58.9284 14.4402 61.1675 16.6793Z" fill="#C1CBF1"/>
</g>
<rect x="116.9" y="15.3636" width="12.5228" height="12.5228" rx="2.36364" transform="rotate(45 116.9 15.3636)" fill="#F0F6FD"/>
<rect x="105.381" y="4.72729" width="6.26101" height="6.26101" rx="1.18182" transform="rotate(45 105.381 4.72729)" fill="#F0F6FD"/>
<defs>
<clipPath id="clip0_1969_7241">
<rect width="84" height="84" fill="white" transform="translate(13.5 15)"/>
</clipPath>
</defs>
</svg>
