<svg width="126" height="122" viewBox="0 0 126 122" fill="none" xmlns="http://www.w3.org/2000/svg">
<rect x="0.5" y="60.6718" width="85.802" height="85.802" rx="14.1818" transform="rotate(-45 0.5 60.6718)" fill="#E3EEFF"/>
<mask id="mask0_1903_2019" style="mask-type:alpha" maskUnits="userSpaceOnUse" x="6" y="5" width="110" height="111">
<rect x="0.500366" y="60.6711" width="85.802" height="85.802" rx="14.1818" transform="rotate(-45 0.500366 60.6711)" fill="#E3EEFF"/>
</mask>
<g mask="url(#mask0_1903_2019)">
<ellipse cx="31.2277" cy="53.7731" rx="49.6364" ry="60.8636" fill="#F1F7FE"/>
</g>
<g clip-path="url(#clip0_1903_2019)">
<path d="M82.4996 68.25C77.1241 68.25 73.4996 63.8755 73.4996 58.5C73.4996 53.1245 77.1241 48.75 82.4996 48.75H85.4999V45.5V35.75C85.4999 30.3745 81.1254 26 75.7499 26H40.8124C39.7432 26 38.7422 26.5265 38.1344 27.4073C37.5299 28.2847 37.3934 29.4092 37.7769 30.407L61.3394 92.157C61.8172 93.418 63.0294 94.25 64.3749 94.25H75.7499C81.1254 94.25 85.4999 89.8755 85.4999 84.5V71.5V68.25H82.4996Z" fill="#6D85DE"/>
<path d="M73.4998 58.5H48.4988L61.3428 92.1603C61.8173 93.418 63.0295 94.25 64.375 94.25H75.75C81.1255 94.25 85.5 89.8755 85.5 84.5V71.5V68.25H82.4998C77.1243 68.25 73.4998 63.8755 73.4998 58.5Z" fill="#4463D5"/>
<path d="M94.0877 72.5394C93.0526 72.1092 92.3755 71.0963 92.3755 69.9752V61.6499H81.2751C79.7432 61.6499 78.5 60.4066 78.5 58.8748C78.5 57.3401 79.7432 56.0997 81.2751 56.0997H92.3755V47.7744C92.3755 46.6532 93.0526 45.6376 94.0877 45.2102C95.1256 44.7828 96.3189 45.0187 97.1126 45.8124L108.213 56.9128C109.298 57.9978 109.298 59.7517 108.213 60.8368L97.1126 71.9372C96.3189 72.7308 95.1256 72.9695 94.0877 72.5394Z" fill="#F57E25"/>
<path d="M109.026 58.8745H78.5C78.5 60.4064 79.7432 61.6496 81.2751 61.6496H92.3755V69.9749C92.3755 71.096 93.0526 72.109 94.0877 72.5391C94.4318 72.6806 94.7926 72.75 95.1506 72.75C95.8721 72.75 96.5825 72.4669 97.1126 71.9369L108.213 60.8365C108.754 60.2954 109.026 59.5849 109.026 58.8745Z" fill="#F57E25"/>
<path d="M61.5995 32.8314L42.0703 26.3217C37.6633 24.9664 33.5 28.2229 33.5 32.4999V90.9999C33.5 93.7787 35.2713 96.2552 37.9005 97.1684L57.4298 103.678C58.1448 103.899 58.8045 104 59.5 104C63.0848 104 66 101.085 66 97.4999V38.9999C66 36.2212 64.2288 33.7447 61.5995 32.8314Z" fill="#C1CBF1"/>
<path d="M66 65H33.5V91C33.5 93.7787 35.2713 96.2553 37.9005 97.1685L57.4298 103.678C58.1448 103.899 58.8045 104 59.5 104C63.0848 104 66 101.085 66 97.5V65Z" fill="#97A8E7"/>
</g>
<rect x="116.9" y="15.3636" width="12.5228" height="12.5228" rx="2.36364" transform="rotate(45 116.9 15.3636)" fill="#F0F6FD"/>
<rect x="105.381" y="4.72729" width="6.26101" height="6.26101" rx="1.18182" transform="rotate(45 105.381 4.72729)" fill="#F0F6FD"/>
<defs>
<clipPath id="clip0_1903_2019">
<rect width="78" height="78" fill="white" transform="translate(33.5 26)"/>
</clipPath>
</defs>
</svg>
