<svg width="45" height="44" viewBox="0 0 45 44" fill="none" xmlns="http://www.w3.org/2000/svg">
<g opacity="0.4">
<mask id="path-1-inside-1_1526_4555" fill="white">
<path d="M4.34985 40.3333V11.055C4.34985 7.37001 6.18328 5.51831 9.83161 5.51831H21.2532C24.9016 5.51831 26.7165 7.37001 26.7165 11.055V40.3333"/>
</mask>
<path d="M4.34985 40.3333V11.055C4.34985 7.37001 6.18328 5.51831 9.83161 5.51831H21.2532C24.9016 5.51831 26.7165 7.37001 26.7165 11.055V40.3333" fill="#2563EB"/>
<path d="M5.34985 40.3333V11.055H3.34985V40.3333H5.34985ZM5.34985 11.055C5.34985 9.36543 5.7697 8.27853 6.43323 7.60836C7.09496 6.94001 8.1654 6.51831 9.83161 6.51831V4.51831C7.84949 4.51831 6.17906 5.02246 5.01199 6.20121C3.84672 7.37814 3.34985 9.0596 3.34985 11.055H5.34985ZM9.83161 6.51831H21.2532V4.51831H9.83161V6.51831ZM21.2532 6.51831C22.9194 6.51831 23.984 6.93996 24.6406 7.60656C25.3 8.27594 25.7165 9.3629 25.7165 11.055H27.7165C27.7165 9.06212 27.2256 7.38073 26.0654 6.20301C24.9025 5.02252 23.2354 4.51831 21.2532 4.51831V6.51831ZM25.7165 11.055V40.3333H27.7165V11.055H25.7165Z" fill="#2563EB" mask="url(#path-1-inside-1_1526_4555)"/>
</g>
<path d="M20.2083 16H11.1333C10.6578 16 10.2583 15.6005 10.2583 15.125C10.2583 14.6495 10.6578 14.25 11.1333 14.25H20.2083C20.6838 14.25 21.0833 14.6495 21.0833 15.125C21.0833 15.6005 20.6838 16 20.2083 16Z" fill="#2563EB" stroke="#2563EB"/>
<path d="M20.2083 23.375H11.1333C10.3816 23.375 9.7583 22.7517 9.7583 22C9.7583 21.2483 10.3816 20.625 11.1333 20.625H20.2083C20.96 20.625 21.5833 21.2483 21.5833 22C21.5833 22.7517 20.96 23.375 20.2083 23.375Z" fill="#2563EB"/>
<path d="M15.625 41.7083C14.8733 41.7083 14.25 41.0849 14.25 40.3333V33.4583C14.25 32.7066 14.8733 32.0833 15.625 32.0833C16.3767 32.0833 17 32.7066 17 33.4583V40.3333C17 41.0849 16.3767 41.7083 15.625 41.7083Z" fill="#2563EB"/>
<path d="M42.6666 38.9582H38.5049V33.4582C40.2466 32.8899 41.5116 31.2582 41.5116 29.3332V25.6666C41.5116 23.2649 39.5499 21.3032 37.1482 21.3032C34.7466 21.3032 32.7849 23.2649 32.7849 25.6666V29.3332C32.7849 31.2399 34.0315 32.8532 35.7365 33.4399V38.9582H2.33325C1.58159 38.9582 0.958252 39.5816 0.958252 40.3332C0.958252 41.0849 1.58159 41.7082 2.33325 41.7082H37.0382C37.0749 41.7082 37.0932 41.7266 37.1299 41.7266C37.1666 41.7266 37.185 41.7082 37.2216 41.7082H42.6666C43.4183 41.7082 44.0416 41.0849 44.0416 40.3332C44.0416 39.5816 43.4183 38.9582 42.6666 38.9582Z" fill="#2563EB"/>
</svg>
