<svg width="44" height="44" viewBox="0 0 44 44" fill="none" xmlns="http://www.w3.org/2000/svg">
<path opacity="0.4" d="M22.6753 38.4556L22.6626 38.4619L22.6502 38.469C22.6064 38.494 22.556 38.5159 22.5 38.5343V10.1662C22.7592 10.1138 23.0089 10.0206 23.2289 9.88853C23.2289 9.88852 23.229 9.88851 23.229 9.88851L23.6873 9.6136L23.6873 9.61366L23.6946 9.60909C26.891 7.61583 32.6443 5.69829 36.4137 5.39315L36.4153 5.39302C38.3032 5.23437 39.8333 6.65204 39.8333 8.54309V30.6898C39.8333 32.2015 38.5873 33.6354 37.0813 33.8236L37.0813 33.8236L37.075 33.8245L36.5454 33.8976C36.5451 33.8976 36.5448 33.8976 36.5445 33.8977C32.5081 34.4373 26.3149 36.4704 22.7402 38.4232L22.6753 38.4556Z" fill="#2563EB" stroke="#2563EB" stroke-opacity="0.2"/>
<path d="M7.52757 33.8979L7.52758 33.8978L7.52186 33.8971L6.91863 33.824C6.91835 33.8239 6.91808 33.8239 6.9178 33.8239C5.41225 33.6352 4.16663 32.2016 4.16663 30.6901V8.56178C4.16663 6.65722 5.71025 5.25265 7.60306 5.41171L7.62396 5.41347H7.64493H7.73336C11.5033 5.74197 17.2573 7.67348 20.4477 9.67998L20.7566 9.87989L20.7637 9.88449L20.771 9.88885C20.9911 10.0209 21.2407 10.1141 21.5 10.1666V38.5275C21.4633 38.5127 21.4303 38.496 21.4004 38.4776L21.3903 38.4714L21.38 38.4657C17.8057 36.4924 11.5861 34.4378 7.52757 33.8979Z" fill="#2563EB" stroke="#2563EB"/>
<path d="M34.8333 5.09668V12.9616C34.8333 13.695 34.0266 14.1349 33.4033 13.7316L31.1667 12.2466L28.9301 13.7316C28.3251 14.1349 27.5 13.695 27.5 12.9616V7.18659C29.9017 6.23326 32.5783 5.46335 34.8333 5.09668Z" fill="#2563EB"/>
</svg>
