<svg width="32" height="40" viewBox="0 0 32 40" fill="none" xmlns="http://www.w3.org/2000/svg">
<path d="M7.36794 31.0725C7.43321 31.3491 7.40573 32.1049 7.40573 32.5037C7.40573 32.9025 7.44008 35.3242 7.44008 35.3242C7.44008 35.3242 5.14854 34.9254 4.45799 34.9254C3.77087 34.9254 2.79173 35.3274 2.72301 36.0896C2.65774 36.794 3.11467 36.9773 3.70559 37.1317C4.29652 37.286 14.2529 39.0935 14.7442 39.1868C15.2354 39.28 16.1905 39.1514 16.3177 38.3892C16.3864 37.9614 16.1218 37.3053 15.1702 36.8551C14.3972 36.4884 11.2399 35.8131 11.2399 35.8131L11.2055 31.5517L7.36794 31.0725Z" fill="#D7D7D7"/>
<path d="M20.1485 31.8605C20.1485 31.8605 19.7568 32.1049 19.7568 32.5358C19.7568 32.9636 20.1279 33.0118 21.0658 33.2112C22.5087 33.5168 28.5004 34.4076 29.1223 34.4977C29.7441 34.5877 30.6855 34.681 30.5961 33.8834C30.4965 32.9958 29.8437 32.5037 28.0091 32.0438C26.4665 31.6578 25.7691 31.6353 25.618 31.4295C25.3259 31.0307 25.5699 29.9533 25.5699 29.9533L20.3443 30.8474L20.1485 31.8605Z" fill="#D7D7D7"/>
<path d="M2.91797 28.4256C2.91797 28.4256 3.14815 29.5609 4.26129 30.2363C5.37442 30.9117 7.73467 31.5871 9.73075 32.047C11.7303 32.5069 14.0871 32.9668 15.3651 32.8735C16.6432 32.7803 19.5256 32.2593 23.882 31.0018C28.2383 29.7443 29.9423 28.8566 30.1382 28.4578C30.4027 27.9207 30.2034 26.7404 30.2034 26.7404L23.1605 24.7175L2.91797 28.4256Z" fill="#D7D7D7"/>
<path d="M30.0984 24.7818C30.0984 24.7818 30.2255 25.3575 30.253 25.7691C30.277 26.1776 30.2908 26.6053 30.2083 26.7404C30.1258 26.8755 28.5317 27.6216 25.0137 28.6315C21.4956 29.6413 16.4075 30.8184 15.6895 30.6994C14.9714 30.5805 15.5108 27.5251 15.5108 27.5251L30.0984 24.7818Z" fill="#DF5F00"/>
<path d="M22.7008 21.1991C22.7008 21.1991 22.4671 20.5398 22.6492 20.1989C22.8313 19.8579 23.4806 19.8097 24.6281 19.8579C25.7722 19.9062 29.5032 20.231 29.8949 20.2664C30.211 20.2921 30.5064 19.9962 30.5064 19.9962L30.0151 18.0794L22.9069 16.8927L18.5918 16.838L19.3201 22.418L22.7008 21.1991Z" fill="white"/>
<path d="M29.8849 20.2728C29.8849 20.2728 30.2216 19.4688 29.7544 18.9574C29.2012 18.356 24.704 18.3239 23.9001 18.2756C23.0928 18.2274 21.9315 18.2531 21.9727 17.4973C22.0174 16.6804 22.9141 16.912 24.1166 16.957C25.3431 17.002 29.0191 17.3076 29.8334 17.5713C30.5652 17.8093 30.8641 18.1309 31.0015 18.4075C31.187 18.7805 31.2557 19.4495 30.9087 19.8579C30.4415 20.4047 29.8849 20.2728 29.8849 20.2728Z" fill="#D7D7D7"/>
<path d="M15.4656 28.4835C15.4656 28.4835 17.6232 28.4064 19.3719 28.178C21.1206 27.9497 27.1878 26.4188 28.3766 26.0264C29.5653 25.6341 30.1974 25.2739 30.1974 25.2739C30.1974 25.2739 29.8126 23.0451 29.4622 22.4566C29.1118 21.868 26.5798 21.3663 24.8448 21.1476C23.3056 20.9514 19.98 21.0479 19.98 21.0479L8.67688 22.5563L3.89453 24.2865L13.3321 26.422L15.4656 28.4835Z" fill="#F57E25"/>
<path d="M4.24805 24.3187C4.24805 24.3187 6.72167 24.367 9.61101 24.7336C12.5003 25.1002 14.1116 25.4154 15.1011 26.2677C15.7504 26.8273 15.9565 27.805 16.0631 28.9724C16.1661 30.0949 16.4753 30.9986 14.8125 30.7252C13.531 30.5162 12.4179 29.1654 12.2083 29.1172C11.9987 29.0689 4.76339 26.7533 4.76339 26.7533L4.24805 24.3187Z" fill="#FF8F3B"/>
<path d="M20.2172 20.3082C20.2172 20.3082 20.3099 20.8389 20.3202 21.0608C20.3237 21.1733 19.2346 21.3824 18.7673 21.4628C17.5477 21.6686 13.9541 22.2958 13.1742 22.418C12.3943 22.5402 4.47527 24.3541 4.47527 24.3541L3.2041 23.9038L3.93245 22.418C3.93245 22.418 12.4184 19.4785 13.6414 19.2984C16.3006 18.9092 20.2172 20.3082 20.2172 20.3082Z" fill="#DF5F00"/>
<path d="M11.9268 21.1894C11.9268 21.1894 14.1599 20.9418 16.0495 20.736C17.5302 20.5719 20.2169 20.3243 20.2169 20.3243C20.2169 20.3243 20.0073 18.5876 19.5538 17.0664C19.1106 15.5773 18.1212 14.2909 17.7776 12.7343C17.5955 11.9077 17.4065 10.8271 17.4065 10.8271L12.1879 9.09363C12.1879 9.09363 2.04601 11.0329 2.00822 11.242C1.97043 11.451 2.26589 20.8421 2.26589 20.8421L11.9268 21.1894Z" fill="#F57E25"/>
<path d="M2.26619 11.9013C2.26619 11.9013 4.7089 11.9367 6.89393 11.6922C9.07897 11.451 10.893 11.2066 12.6314 11.1037C14.3698 11.0008 17.4068 10.8271 17.4068 10.8271C17.4068 10.8271 17.3313 9.65001 17.3691 9.51172C17.4068 9.37343 17.9394 8.79131 18.1352 8.4697C18.331 8.14809 18.4822 7.78145 18.544 7.60135C18.6093 7.41803 17.7882 4.79046 17.7882 4.79046L7.16534 1.59686L2.76091 1.83807L2.15625 9.82047L2.26619 11.9013Z" fill="#DF5F00"/>
<path d="M3.06304 8.8331C3.06304 8.8331 6.24783 8.49863 6.35777 8.41823C6.46427 8.33782 6.4574 5.45618 6.34403 4.67145C6.15851 3.37536 5.85961 1.86379 5.85961 1.76409C5.85961 1.66439 5.02476 1.13373 5.02476 1.13373L2.19727 2.77073L3.06304 8.8331Z" fill="#F57E25"/>
<path d="M16.1801 5.62988C16.1801 5.62988 16.3794 6.90024 16.3656 7.37623C16.3622 7.49844 16.321 7.82005 16.4515 7.82005C16.5821 7.82005 18.5472 7.59814 18.5472 7.59814C18.5472 7.59814 18.9148 6.06084 18.4167 4.20193C17.9185 2.34301 17.0562 1.49396 17.0562 1.49396L13.8164 1.53577L16.1801 5.62988Z" fill="#F57E25"/>
<path d="M14.7886 1.83808L17.3379 1.81879C17.3379 1.81879 17.0149 1.15305 16.4515 0.927922C15.888 0.70601 13.1877 0.808926 13.1877 0.808926L5.26518 0.889329C5.26518 0.889329 2.4583 1.03084 1.53069 1.61617C0.60308 2.2015 0.407252 3.03126 0.232037 3.74524C0.122098 4.19871 -0.0393749 7.78789 0.00872339 11.2645C0.0739997 16.1241 0.609952 19.4527 0.609952 19.4527L2.09069 21.3695L3.76039 19.6907C3.76039 19.6907 3.88751 17.1275 3.50959 15.2107C3.13168 13.2939 2.62665 11.9174 2.62665 11.9174C2.62665 11.9174 3.73291 10.6727 3.73291 7.16718C3.73291 3.66162 3.40996 2.35909 3.40996 2.35909C3.40996 2.35909 4.37193 2.22402 5.23426 2.12432C5.76678 2.06321 14.7886 1.83808 14.7886 1.83808Z" fill="#FF8F3C"/>
<path d="M7.25118 8.34106C7.41265 8.49221 15.7818 7.66246 15.9398 7.57562C16.0978 7.48879 16.5273 6.21842 16.2215 4.53961C15.7508 1.94742 14.1258 0.644897 14.1258 0.644897C14.1258 0.644897 5.0627 0.683491 4.96994 0.802487C4.87718 0.921483 6.3751 1.83486 6.90762 4.48494C7.37829 6.83913 7.09314 8.19633 7.25118 8.34106Z" fill="white"/>
<path d="M14.8166 30.7252C14.8166 30.7252 12.5422 30.8571 9.17188 30.1495C6.16917 29.5192 3.40351 28.7634 2.9191 28.4257C2.43468 28.088 1.47958 25.0037 1.05013 23.0483C0.641297 21.1926 0.387064 19.5524 0.610377 19.4527C0.995164 19.2791 5.67788 19.7486 5.67788 19.7486L14.0916 22.1864L12.6968 23.7591L4.48229 23.46C4.48229 23.46 4.54413 24.933 5.42708 25.8464C6.05923 26.5024 6.7807 26.7597 8.85924 26.9077C10.9378 27.0556 13.2018 27.2325 14.1775 28.3228C15.2563 29.5288 14.8166 30.7252 14.8166 30.7252Z" fill="white"/>
<path d="M5.67722 19.7453C5.33022 19.7164 4.89047 19.8933 4.76335 20.5108C4.61905 21.2215 5.39206 21.5432 6.622 21.601C7.69047 21.6525 9.86864 21.8551 10.7207 21.9001C11.5899 21.9484 12.7477 22.151 12.9057 22.6817C13.0637 23.2123 12.6961 23.7526 12.6961 23.7526C12.6961 23.7526 13.4279 23.7655 13.7577 23.6658C14.2044 23.5307 14.4586 22.9872 14.4277 22.4565C14.3968 21.9259 14.0498 21.2183 12.569 20.7488C11.0917 20.276 5.67722 19.7453 5.67722 19.7453Z" fill="#D7D7D7"/>
</svg>
