<svg width="16" height="17" viewBox="0 0 16 17" fill="none" xmlns="http://www.w3.org/2000/svg">
<path d="M7.99997 3.59998C4.8133 3.59998 2.21997 6.19331 2.21997 9.37998C2.21997 12.5666 4.8133 15.1666 7.99997 15.1666C11.1866 15.1666 13.78 12.5733 13.78 9.38664C13.78 6.19998 11.1866 3.59998 7.99997 3.59998ZM8.49997 9.16664C8.49997 9.43998 8.2733 9.66664 7.99997 9.66664C7.72664 9.66664 7.49997 9.43998 7.49997 9.16664V5.83331C7.49997 5.55998 7.72664 5.33331 7.99997 5.33331C8.2733 5.33331 8.49997 5.55998 8.49997 5.83331V9.16664Z" fill="#F57E25"/>
<path d="M9.9266 2.80004H6.07326C5.80659 2.80004 5.59326 2.58671 5.59326 2.32004C5.59326 2.05337 5.80659 1.83337 6.07326 1.83337H9.9266C10.1933 1.83337 10.4066 2.04671 10.4066 2.31337C10.4066 2.58004 10.1933 2.80004 9.9266 2.80004Z" fill="#F57E25"/>
</svg>
