<svg width="40" height="40" viewBox="0 0 40 40" fill="none" xmlns="http://www.w3.org/2000/svg">
<path opacity="0.4" d="M30 34.1666H28.3333V33.75C28.3333 31.9166 26.8333 30.4166 25 30.4166H21.25V26.6C20.8333 26.65 20.4167 26.6666 20 26.6666C19.5833 26.6666 19.1667 26.65 18.75 26.6V30.4166H15C13.1667 30.4166 11.6667 31.9166 11.6667 33.75V34.1666H10C9.31667 34.1666 8.75 34.7333 8.75 35.4166C8.75 36.1 9.31667 36.6666 10 36.6666H30C30.6833 36.6666 31.25 36.1 31.25 35.4166C31.25 34.7333 30.6833 34.1666 30 34.1666Z" fill="#2563EB"/>
<path opacity="0.4" d="M9.2 19.4C8.1 18.9833 7.13333 18.3 6.36667 17.5333C4.81667 15.8166 3.8 13.7666 3.8 11.3666C3.8 8.96665 5.68333 7.08331 8.08333 7.08331H9.01667C8.58333 7.96665 8.33333 8.94998 8.33333 9.99998V15C8.33333 16.5666 8.63333 18.05 9.2 19.4Z" fill="#2563EB"/>
<path opacity="0.4" d="M36.2 11.3666C36.2 13.7666 35.1833 15.8166 33.6333 17.5333C32.8667 18.3 31.9 18.9833 30.8 19.4C31.3667 18.05 31.6667 16.5666 31.6667 15V9.99998C31.6667 8.94998 31.4167 7.96665 30.9833 7.08331H31.9167C34.3167 7.08331 36.2 8.96665 36.2 11.3666Z" fill="#2563EB"/>
<path d="M25 3.33331H15C11.3167 3.33331 8.33334 6.31665 8.33334 9.99998V15C8.33334 21.45 13.55 26.6666 20 26.6666C26.45 26.6666 31.6667 21.45 31.6667 15V9.99998C31.6667 6.31665 28.6833 3.33331 25 3.33331ZM24.7333 14.0833L23.7 15.35C23.5333 15.5333 23.4167 15.9 23.4333 16.15L23.5333 17.7833C23.6 18.7833 22.8833 19.3 21.95 18.9333L20.4333 18.3333C20.2 18.25 19.8 18.25 19.5667 18.3333L18.05 18.9333C17.1167 19.3 16.4 18.7833 16.4667 17.7833L16.5667 16.15C16.5833 15.9 16.4667 15.5333 16.3 15.35L15.2667 14.0833C14.6167 13.3166 14.9 12.4666 15.8667 12.2166L17.45 11.8166C17.7 11.75 18 11.5166 18.1333 11.3L19.0167 9.93331C19.5667 9.08331 20.4333 9.08331 20.9833 9.93331L21.8667 11.3C22 11.5166 22.3 11.75 22.55 11.8166L24.1333 12.2166C25.1 12.4666 25.3833 13.3166 24.7333 14.0833Z" fill="#2563EB"/>
<path opacity="0.4" d="M24.7333 14.0833L23.7 15.35C23.5333 15.5333 23.4167 15.9 23.4333 16.15L23.5333 17.7833C23.6 18.7833 22.8833 19.3 21.95 18.9333L20.4333 18.3333C20.2 18.25 19.8 18.25 19.5667 18.3333L18.05 18.9333C17.1167 19.3 16.4 18.7833 16.4667 17.7833L16.5667 16.15C16.5833 15.9 16.4667 15.5333 16.3 15.35L15.2667 14.0833C14.6167 13.3167 14.9 12.4667 15.8667 12.2167L17.45 11.8167C17.7 11.75 18 11.5167 18.1333 11.3L19.0167 9.93334C19.5667 9.08334 20.4333 9.08334 20.9833 9.93334L21.8667 11.3C22 11.5167 22.3 11.75 22.55 11.8167L24.1333 12.2167C25.1 12.4667 25.3833 13.3167 24.7333 14.0833Z" fill="#2563EB"/>
</svg>
