<svg width="45" height="44" viewBox="0 0 45 44" fill="none" xmlns="http://www.w3.org/2000/svg">
<path d="M31.0419 6.52674V6.98259L31.4958 7.02461C33.8776 7.24515 35.5919 8.0585 36.7559 9.29416C37.9231 10.5333 38.5853 12.2485 38.762 14.3601L38.7618 14.3601L38.7631 14.3717C38.7836 14.563 38.6053 14.7901 38.3436 14.7901H7.32359C7.08663 14.7901 6.89165 14.5832 6.90555 14.3557C7.0828 12.2461 7.74489 10.5324 8.91129 9.29416C10.0753 8.0585 11.7896 7.24515 14.1713 7.02461L14.6252 6.98259V6.52674V3.66675C14.6252 3.19122 15.0247 2.79175 15.5002 2.79175C15.9758 2.79175 16.3752 3.19122 16.3752 3.66675V6.41675V6.91675H16.8752H28.7919H29.2919V6.41675V3.66675C29.2919 3.19122 29.6914 2.79175 30.1669 2.79175C30.6424 2.79175 31.0419 3.19122 31.0419 3.66675V6.52674Z" fill="#2563EB" stroke="#2563EB"/>
<path opacity="0.4" d="M37.5002 18.54C38.2324 18.54 38.8335 19.1412 38.8335 19.8734V31.1667C38.8335 33.8401 38.1651 35.9915 36.79 37.4723C35.4212 38.9465 33.2799 39.8334 30.1668 39.8334H15.5002C12.3871 39.8334 10.2458 38.9465 8.87698 37.4723C7.50191 35.9915 6.8335 33.8401 6.8335 31.1667V19.8734C6.8335 19.1412 7.43464 18.54 8.16683 18.54H37.5002Z" fill="#2563EB" stroke="#2563EB" stroke-opacity="0.2"/>
<path d="M27.6867 27.1281L27.6866 27.1281L27.6832 27.1316L26.9135 27.9167H26.8981L26.7516 28.0631L21.1967 33.6181C21.1271 33.6877 20.9934 33.7828 20.827 33.8659C20.6591 33.9499 20.5086 33.9964 20.4162 34.0061L20.4057 34.0072L20.3953 34.0088L17.9228 34.375C17.9224 34.3751 17.922 34.3751 17.9216 34.3752C17.6089 34.4195 17.3936 34.3272 17.267 34.1995C17.1395 34.0708 17.0505 33.8541 17.095 33.5489L17.0954 33.5459L17.4431 31.0575C17.4609 30.9489 17.5128 30.7938 17.5939 30.6296C17.6737 30.4681 17.765 30.3317 17.8409 30.2481L23.4065 24.7008L23.4065 24.7008L23.4106 24.6967L24.3255 23.7635C24.9002 23.1893 25.4559 22.8667 25.9869 22.8667C26.4357 22.8667 26.9943 23.0728 27.6867 23.7652C28.4473 24.5258 28.6275 25.1244 28.5808 25.5968C28.5314 26.0957 28.2174 26.5974 27.6867 27.1281Z" fill="#2563EB" stroke="#2563EB"/>
</svg>
