<svg width="44" height="44" viewBox="0 0 44 44" fill="none" xmlns="http://www.w3.org/2000/svg">
<path opacity="0.4" d="M8.29163 12.3753C8.29163 7.84813 11.9728 4.16699 16.5 4.16699C21.0268 4.16699 24.7078 7.84761 24.7083 12.3744C24.6905 16.8155 21.2218 20.4054 16.8027 20.5653H16.8026H16.8026H16.8025H16.8024H16.8023H16.8023H16.8022H16.8021H16.8021H16.802H16.8019H16.8018H16.8018H16.8017H16.8016H16.8016H16.8015H16.8014H16.8014H16.8013H16.8012H16.8011H16.8011H16.801H16.8009H16.8009H16.8008H16.8007H16.8007H16.8006H16.8005H16.8005H16.8004H16.8003H16.8003H16.8002H16.8001H16.8001H16.8H16.8H16.7999H16.7998H16.7998H16.7997H16.7996H16.7996H16.7995H16.7994H16.7994H16.7993H16.7992H16.7992H16.7991H16.7991H16.799H16.7989H16.7989H16.7988H16.7988H16.7987H16.7986H16.7986H16.7985H16.7984H16.7984H16.7983H16.7983H16.7982H16.7981H16.7981H16.798H16.798H16.7979H16.7978H16.7978H16.7977H16.7977H16.7976H16.7976H16.7975H16.7974H16.7974H16.7973H16.7973H16.7972H16.7971H16.7971H16.797H16.797H16.7969H16.7969H16.7968H16.7967H16.7967H16.7966H16.7966H16.7965H16.7965H16.7964H16.7963H16.7963H16.7962H16.7962H16.7961H16.7961H16.796H16.796H16.7959H16.7958H16.7958H16.7957H16.7957H16.7956H16.7956H16.7955H16.7955H16.7954H16.7953H16.7953H16.7952H16.7952H16.7951H16.7951H16.795H16.795H16.7949H16.7949H16.7948H16.7947H16.7947H16.7946H16.7946H16.7945H16.7945H16.7944H16.7944H16.7943H16.7943H16.7942H16.7942H16.7941H16.794H16.794H16.7939H16.7939H16.7938H16.7938H16.7937H16.7937H16.7936H16.7936H16.7935H16.7935H16.7934H16.7933H16.7933H16.7932H16.7932H16.7931H16.7931H16.793H16.793H16.7929H16.7929H16.7928H16.7928H16.7927H16.7926H16.7926H16.7925H16.7925H16.7924H16.7924H16.7923H16.7923H16.7922H16.7922H16.7921H16.7921H16.792H16.7919H16.7919H16.7918H16.7918H16.7917H16.7917H16.7916H16.7916H16.7915H16.7915H16.7914H16.7913H16.7913H16.7912H16.7912H16.7911H16.7911H16.791H16.791H16.7909H16.7909H16.7908H16.7907H16.7907H16.7906H16.7906H16.7905H16.7905H16.7904H16.7903H16.7903H16.7902H16.7902H16.7901H16.7901H16.79H16.79H16.7899H16.7898H16.7898H16.7897H16.7897H16.7896H16.7896H16.7895H16.7894H16.7894H16.7893H16.7893H16.7892H16.7891H16.7891H16.789H16.789H16.7889H16.7889H16.7888H16.7887H16.7887H16.7886H16.7886H16.7885H16.7884H16.7884H16.7883H16.7883H16.7882H16.7881H16.7881H16.788H16.788H16.7879H16.7878H16.7878H16.7877H16.7876H16.7876H16.7875H16.7875H16.7874H16.7873H16.7873H16.7872H16.7871H16.7871H16.787H16.787H16.7869H16.7868H16.7868H16.7867H16.7866H16.7866H16.7865H16.7864H16.7864H16.7863H16.7862H16.7862H16.7861H16.786H16.786H16.7859H16.7858H16.7858H16.7857H16.7856H16.7856H16.7855H16.7854H16.7854H16.7853H16.7852H16.7852H16.7851H16.785H16.785H16.7849H16.7848H16.7847H16.7847H16.7846H16.7845H16.7845H16.7844H16.7843H16.7842H16.7842H16.7841H16.784H16.784H16.7839H16.7838H16.7837H16.7837H16.7836H16.7835H16.7834H16.7834H16.7833H16.7832H16.7831H16.7831H16.783H16.7829H16.7828H16.7827H16.7827H16.7826H16.7825H16.7824H16.7824H16.7823H16.7822H16.7821H16.782H16.782H16.7819H16.7818H16.7817H16.7816H16.7815H16.7815H16.7814H16.7813H16.7812H16.7811H16.781H16.781H16.7809H16.7808H16.7807H16.7806H16.7805H16.7805H16.7804H16.7803H16.7802H16.7801H16.78H16.7799H16.7798H16.7798H16.7797H16.7796H16.7795H16.7794H16.7793H16.7792H16.7791H16.779H16.7789H16.7788H16.7788H16.7787H16.7786H16.7785H16.7784H16.7783H16.7782H16.7781H16.778H16.7779H16.7778H16.7777H16.7776H16.7775H16.7774H16.7773H16.7772H16.7771H16.777H16.7769H16.7768H16.7767H16.7766H16.7765H16.7764H16.7763H16.7762H16.7761H16.776H16.7759H16.7758H16.7757H16.7756H16.7755H16.7754H16.7753H16.7752H16.7751H16.775H16.7747H16.7745H16.7743H16.7741H16.7739H16.7737H16.7735H16.7733H16.773H16.7728H16.7726H16.7724H16.7722H16.772H16.7718H16.7716H16.7714H16.7712H16.771H16.7707H16.7705H16.7703H16.7701H16.7699H16.7697H16.7695H16.7693H16.7691H16.7689H16.7687H16.7685H16.7683H16.7681H16.7679H16.7677H16.7675H16.7673H16.7671H16.7669H16.7667H16.7665H16.7663H16.7661H16.7659H16.7657H16.7655H16.7653H16.7651H16.7649H16.7647H16.7645H16.7643H16.7641H16.7639H16.7637H16.7635H16.7633H16.7632H16.763H16.7628H16.7626H16.7624H16.7622H16.762H16.7618H16.7616H16.7614H16.7612H16.761H16.7609H16.7607H16.7605H16.7603H16.7601H16.7599H16.7597H16.7595H16.7593H16.7592H16.759H16.7588H16.7586H16.7584H16.7582H16.758H16.7579H16.7577H16.7575H16.7573H16.7571H16.7569H16.7568H16.7566H16.7564H16.7562H16.756H16.7558H16.7557H16.7555H16.7553H16.7551H16.7549H16.7548H16.7546H16.7544H16.7542H16.754H16.7539H16.7537H16.7535H16.7533H16.7531H16.753H16.7528H16.7526H16.7524H16.7523H16.7521H16.7519H16.7517H16.7516H16.7514H16.7512H16.751H16.7508H16.7507H16.7505H16.7503H16.7501H16.75H16.7498H16.7496H16.7495H16.7493H16.7491H16.7489H16.7488H16.7486H16.7484H16.7482H16.7481H16.7479H16.7477H16.7476H16.7474H16.7472H16.747H16.7469H16.7467H16.7465H16.7464H16.7462H16.746H16.7459H16.7457H16.7455H16.7453H16.7452H16.745H16.7448H16.7447H16.7445H16.7443H16.7442H16.744H16.7438H16.7437H16.7435H16.7433H16.7432H16.743H16.7428H16.7427H16.7425H16.7423H16.7422H16.742H16.7418H16.7417H16.7415H16.7413H16.7412H16.741H16.7408H16.7407H16.7405H16.7403H16.7402H16.74H16.7398H16.7397H16.7395H16.7393H16.7392H16.739H16.7389H16.7387H16.7385H16.7384H16.7382H16.738H16.7379H16.7377H16.7375H16.7374H16.7372H16.7371H16.7369H16.7367H16.7366H16.7364H16.7362H16.7361H16.7359H16.7358H16.7356H16.7354H16.7353H16.7351H16.7349H16.7348H16.7346H16.7345H16.7343H16.7341H16.734H16.7338H16.7336H16.7335H16.7333H16.7332H16.733H16.7328H16.7327H16.7325H16.7324H16.7322H16.732H16.7319H16.7317H16.7315H16.7314H16.7312H16.7311H16.7309H16.7307H16.7306H16.7304H16.7303H16.7301H16.7299H16.7298H16.7296H16.7294H16.7293H16.7291H16.729H16.7288H16.7286H16.7285H16.7283H16.7282H16.728H16.7278H16.7277H16.7275H16.7274H16.7272H16.727H16.7269H16.7267H16.7265H16.7264H16.7262H16.7261H16.7259H16.7257H16.7256H16.7254H16.7253H16.7251H16.7249H16.7248H16.7246H16.7244H16.7243H16.7241H16.724H16.7238H16.7236H16.7235H16.7233H16.7232H16.723H16.7228H16.7227H16.7225H16.7223H16.7222H16.722H16.7219H16.7217H16.7215H16.7214H16.7212H16.721H16.7209H16.7207H16.7205H16.7204H16.7202H16.7201H16.7199H16.7197H16.7197C16.5741 20.5462 16.4124 20.5481 16.2604 20.5643C11.7409 20.3903 8.29163 16.802 8.29163 12.3753Z" fill="#2563EB" stroke="#2563EB"/>
<path d="M7.46544 37.3328L7.46407 37.3319C5.25512 35.8593 4.09338 33.9097 4.09338 31.863C4.09338 29.8159 5.25546 27.8482 7.48211 26.3575C9.95949 24.7181 13.231 23.8838 16.523 23.8838C19.8155 23.8838 23.0776 24.7184 25.536 26.3573C27.7414 27.8276 28.8893 29.7768 28.9067 31.8282C28.906 33.893 27.7439 35.8423 25.5344 37.333C23.0669 38.9897 19.7962 39.833 16.5 39.833C13.2038 39.833 9.93299 38.9896 7.46544 37.3328Z" fill="#2563EB" stroke="#2563EB"/>
<path opacity="0.4" d="M26.6337 19.0255C28.3674 17.2495 29.332 14.7513 29.1167 12.0597L29.1167 12.0597L29.1164 12.0565C28.9987 10.694 28.5752 9.43476 27.936 8.32954C28.447 8.13679 29.0065 8.01019 29.5787 7.95928C32.8968 7.67178 35.8616 10.1445 36.15 13.4981C36.4203 16.78 34.0954 19.6484 30.8794 20.0512H30.8793H30.8792H30.8791H30.879H30.879H30.8789H30.8788H30.8787H30.8786H30.8785H30.8784H30.8783H30.8783H30.8782H30.8781H30.878H30.8779H30.8778H30.8777H30.8776H30.8775H30.8774H30.8774H30.8773H30.8772H30.8771H30.877H30.8769H30.8768H30.8767H30.8766H30.8765H30.8764H30.8763H30.8762H30.8761H30.876H30.8759H30.8758H30.8757H30.8756H30.8756H30.8755H30.8754H30.8753H30.8752H30.8751H30.875H30.8749H30.8748H30.8746H30.8745H30.8744H30.8743H30.8742H30.8741H30.874H30.8739H30.8738H30.8737H30.8736H30.8735H30.8734H30.8733H30.8183C30.8126 20.0512 30.8062 20.0512 30.7994 20.0511C30.7212 20.0507 30.5718 20.05 30.4179 20.0915C28.995 20.1516 27.6848 19.7574 26.6337 19.0255Z" fill="#2563EB" stroke="#2563EB"/>
<path d="M39.8172 30.3684L39.8171 30.3684L39.8167 30.374C39.6871 31.9445 38.6836 33.354 36.8847 34.3399L36.884 34.3403C35.4497 35.1292 33.6916 35.5828 31.8752 35.6886C32.7667 34.5972 33.3005 33.3346 33.4245 32.0014L33.4245 32.0014L33.425 31.9953C33.6247 29.5191 32.4381 27.1881 30.1785 25.3689L30.1785 25.3689L30.1752 25.3663C29.3012 24.6749 28.332 24.0843 27.2931 23.593C30.9021 23.0127 35.0001 23.8701 37.6176 25.9825L37.6183 25.983C39.2124 27.2652 39.9624 28.8192 39.8172 30.3684Z" fill="#2563EB" stroke="#2563EB"/>
</svg>
