<svg width="141" height="140" viewBox="0 0 141 140" fill="none" xmlns="http://www.w3.org/2000/svg">
<rect x="6.4375" y="70.0312" width="91.9688" height="91.9688" rx="13.3662" transform="rotate(-45 6.4375 70.0312)" fill="#E3F5EA"/>
<mask id="mask0_2691_9628" style="mask-type:alpha" maskUnits="userSpaceOnUse" x="11" y="10" width="120" height="120">
<rect x="6.4375" y="70.0312" width="91.9688" height="91.9688" rx="13.3662" transform="rotate(-45 6.4375 70.0312)" fill="white"/>
</mask>
<g mask="url(#mask0_2691_9628)">
<ellipse cx="39.3737" cy="62.6374" rx="53.2038" ry="65.238" fill="#ECFAF1"/>
</g>
<path d="M102.515 72.4376C99.3513 84.8204 91.367 101.219 71.281 109.008C71.1006 109.081 70.8989 109.081 70.7185 109.008C50.6326 101.219 42.6482 84.8204 39.4841 72.4376C37.4161 64.2123 36.7166 55.7026 37.4138 47.2501C37.4328 47.0789 37.5085 46.919 37.6288 46.7958C37.7491 46.6727 37.9072 46.5933 38.0779 46.5704C54.8357 44.2813 70.3357 31.2579 70.492 31.1251C70.6335 31.004 70.8136 30.9375 70.9998 30.9375C71.186 30.9375 71.3661 31.004 71.5076 31.1251C71.6638 31.2579 87.1638 44.2813 103.922 46.5704C104.092 46.5933 104.25 46.6727 104.371 46.7958C104.491 46.919 104.567 47.0789 104.586 47.2501C105.283 55.7026 104.583 64.2123 102.515 72.4376Z" fill="#28C85E"/>
<path d="M102.516 72.4375C99.3516 84.8203 91.3672 101.219 71.2812 109.008C71.1008 109.081 70.8992 109.081 70.7188 109.008C59.3948 104.752 50.0581 96.4368 44.5234 85.6797C85.8828 96 95.8047 57.25 97.8594 45.2891C99.848 45.8566 101.874 46.2847 103.922 46.5703C104.093 46.5932 104.251 46.6726 104.371 46.7958C104.491 46.919 104.567 47.0788 104.586 47.25C105.283 55.7026 104.584 64.2122 102.516 72.4375Z" fill="#17AA49"/>
<path d="M97.1408 71.4063C93.1565 86.6641 84.469 97.3125 71.3127 103.078C71.2153 103.125 71.1084 103.149 71.0002 103.148C70.8922 103.148 70.7857 103.124 70.6877 103.078C44.6955 91.6484 42.4065 63.4922 42.6252 51.9219C42.6294 51.7482 42.6906 51.5808 42.7993 51.4453C42.908 51.3097 43.0582 51.2137 43.2268 51.1719C55.0002 48.4453 65.3908 41.75 70.5393 38C70.6726 37.9011 70.8342 37.8477 71.0002 37.8477C71.1662 37.8477 71.3278 37.9011 71.4612 38C76.6096 41.75 87.0002 48.4453 98.7737 51.1719C98.9423 51.2137 99.0924 51.3097 99.2011 51.4453C99.3098 51.5808 99.371 51.7482 99.3752 51.9219C99.5106 58.4876 98.7591 65.0416 97.1408 71.4063Z" fill="url(#paint0_linear_2691_9628)"/>
<path d="M97.1406 71.4063C93.1562 86.6641 84.4688 97.3125 71.3125 103.078C71.2151 103.125 71.1082 103.149 71 103.148C70.892 103.148 70.7854 103.124 70.6875 103.078C62.8875 99.7262 56.2545 94.1399 51.625 87.0234C82.5 90.8828 93.2109 64.8438 96.7266 50.6562C97.4062 50.8438 98.0859 51.0156 98.7734 51.1719C98.942 51.2137 99.0922 51.3097 99.2009 51.4452C99.3096 51.5808 99.3708 51.7482 99.375 51.9219C99.5104 58.4876 98.7588 65.0416 97.1406 71.4063Z" fill="#11B548"/>
<path d="M87.2092 67.8207L67.1858 84.3441C67.1532 84.3694 67.1193 84.3928 67.0842 84.4144C66.4414 84.7917 65.6849 84.9267 64.9513 84.7949C64.2177 84.6631 63.5554 84.2732 63.0842 83.6957L56.1389 75.2035C55.6074 74.5818 55.3347 73.7798 55.3768 72.963C55.419 72.1461 55.7728 71.3766 56.3655 70.8129C56.6775 70.5238 57.0465 70.3029 57.4486 70.1644C57.8508 70.0258 58.2775 69.9726 58.7014 70.0082C59.1244 70.0396 59.5366 70.1569 59.9127 70.3531C60.2888 70.5492 60.621 70.8199 60.8889 71.1488L66.1467 77.5707L83.8733 62.5394C83.9079 62.5132 83.9445 62.4897 83.9827 62.4691C84.336 62.2598 84.7271 62.1223 85.1336 62.0644C85.5402 62.0065 85.9541 62.0294 86.3518 62.1317C86.7495 62.234 87.1231 62.4138 87.4512 62.6607C87.7793 62.9076 88.0555 63.2169 88.2639 63.5707C88.6773 64.2767 88.7984 65.1162 88.6013 65.9103C88.4043 66.7043 87.9047 67.3899 87.2092 67.8207Z" fill="#11A042"/>
<path d="M86.1721 64.3832L66.1486 80.9066C66.1161 80.9319 66.0822 80.9554 66.0471 80.977C65.4043 81.3543 64.6477 81.4892 63.9141 81.3574C63.1805 81.2256 62.5183 80.8357 62.0471 80.2582L55.1018 71.766C54.5703 71.1443 54.2975 70.3424 54.3397 69.5255C54.3818 68.7087 54.7357 67.9391 55.3283 67.3754C55.6404 67.0863 56.0093 66.8654 56.4115 66.7269C56.8137 66.5883 57.2404 66.5351 57.6643 66.5707C58.0873 66.6021 58.4994 66.7195 58.8755 66.9156C59.2517 67.1117 59.5838 67.3825 59.8518 67.7113L65.1096 74.1332L82.8361 59.1019C82.8708 59.0758 82.9073 59.0523 82.9455 59.0316C83.2988 58.8223 83.6899 58.6848 84.0965 58.6269C84.503 58.569 84.917 58.5919 85.3147 58.6942C85.7124 58.7965 86.086 58.9763 86.4141 59.2232C86.7422 59.4701 87.0183 59.7794 87.2268 60.1332C87.6402 60.8392 87.7613 61.6788 87.5642 62.4728C87.3672 63.2668 86.8676 63.9524 86.1721 64.3832Z" fill="white"/>
<path d="M86.1719 64.3828L66.1484 80.9062C66.1159 80.9315 66.082 80.955 66.0469 80.9766C65.4041 81.3539 64.6475 81.4888 63.9139 81.357C63.1803 81.2252 62.5181 80.8353 62.0469 80.2578L59.1484 76.7109C66.3125 80.1562 84.2812 65.3125 85.9531 58.9375C86.4842 59.2044 86.9266 59.6196 87.2266 60.1328C87.64 60.8388 87.7611 61.6784 87.564 62.4724C87.367 63.2665 86.8674 63.952 86.1719 64.3828Z" fill="#E2F3E8"/>
<g clip-path="url(#clip0_2691_9628)">
<path fill-rule="evenodd" clip-rule="evenodd" d="M108.842 30.8613C103.907 30.8613 99.9209 26.8596 99.9209 21.9404C99.9209 26.8596 95.9192 30.8613 91 30.8613C95.9192 30.8613 99.9209 34.8473 99.9209 39.7664C99.9209 34.8473 103.907 30.8613 108.842 30.8613Z" fill="#A6E3BB"/>
<path fill-rule="evenodd" clip-rule="evenodd" d="M118 35.4637C115.295 35.4637 113.113 33.2651 113.113 30.5762C113.113 33.2651 110.914 35.4637 108.225 35.4637C110.914 35.4637 113.113 37.6465 113.113 40.3512C113.113 37.6465 115.295 35.4637 118 35.4637Z" fill="#16B14B"/>
<path fill-rule="evenodd" clip-rule="evenodd" d="M115.185 20.5957C111.895 20.5957 109.237 17.9384 109.237 14.6484C109.237 17.9384 106.58 20.5957 103.29 20.5957C106.58 20.5957 109.237 23.253 109.237 26.543C109.237 23.253 111.895 20.5957 115.185 20.5957Z" fill="#16B14B"/>
</g>
<defs>
<linearGradient id="paint0_linear_2691_9628" x1="71.0015" y1="37.8477" x2="71.0015" y2="103.148" gradientUnits="userSpaceOnUse">
<stop stop-color="#16B14B"/>
<stop offset="1" stop-color="#12CD52"/>
</linearGradient>
<clipPath id="clip0_2691_9628">
<rect width="27" height="27" fill="white" transform="translate(91 14)"/>
</clipPath>
</defs>
</svg>
