<svg width="22" height="22" viewBox="0 0 22 22" fill="none" xmlns="http://www.w3.org/2000/svg">
    <defs>
        <linearGradient id="paint0_linear_1182_135" x1="3.45011" y1="21.5507" x2="16.5368" y2="20.3591" gradientUnits="userSpaceOnUse">
            <stop stop-color="#192A80"/>
            <stop offset="0.451689" stop-color="#0B3EB1"/>
            <stop offset="1" stop-color="#0A48CD"/>
        </linearGradient>
        <linearGradient id="paint1_linear_1182_135" x1="0.128165" y1="17.8749" x2="19.0687" y2="16.8035" gradientUnits="userSpaceOnUse">
            <stop stop-color="#192A80"/>
            <stop offset="0.451689" stop-color="#0B3EB1"/>
            <stop offset="1" stop-color="#0A48CD"/>
        </linearGradient>
    </defs>
    <path d="M10.3125 16.729H8.25C7.24167 16.729 6.41667 17.554 6.41667 18.5624V18.7915H5.5C5.12417 18.7915 4.8125 19.1032 4.8125 19.479C4.8125 19.8549 5.12417 20.1665 5.5 20.1665H16.5C16.8758 20.1665 17.1875 19.8549 17.1875 19.479C17.1875 19.1032 16.8758 18.7915 16.5 18.7915H15.5833V18.5624C15.5833 17.554 14.7583 16.729 13.75 16.729H11.6875V14.6299C11.4583 14.6574 11.2292 14.6665 11 14.6665C10.7708 14.6665 10.5417 14.6574 10.3125 14.6299V16.729Z" fill="url(#paint0_linear_1182_135)"/>
<path d="M16.94 10.6699C17.545 10.4408 18.0767 10.0649 18.4983 9.64325C19.3508 8.69909 19.91 7.57159 19.91 6.25159C19.91 4.93159 18.8742 3.89575 17.5542 3.89575H17.0408C16.445 2.67659 15.1983 1.83325 13.75 1.83325H8.25C6.80167 1.83325 5.555 2.67659 4.95917 3.89575H4.44583C3.12583 3.89575 2.09 4.93159 2.09 6.25159C2.09 7.57159 2.64917 8.69909 3.50167 9.64325C3.92333 10.0649 4.455 10.4408 5.06 10.6699C6.01333 13.0166 8.305 14.6666 11 14.6666C13.695 14.6666 15.9867 13.0166 16.94 10.6699ZM13.6033 7.74575L13.035 8.44242C12.9433 8.54325 12.8792 8.74492 12.8883 8.88242L12.9433 9.78075C12.98 10.3308 12.5858 10.6149 12.0725 10.4133L11.2383 10.0833C11.11 10.0374 10.89 10.0374 10.7617 10.0833L9.9275 10.4133C9.41417 10.6149 9.02 10.3308 9.05667 9.78075L9.11167 8.88242C9.12083 8.74492 9.05667 8.54325 8.965 8.44242L8.39667 7.74575C8.03917 7.32409 8.195 6.85659 8.72667 6.71909L9.5975 6.49909C9.735 6.46242 9.9 6.33409 9.97333 6.21492L10.4592 5.46325C10.7617 4.99575 11.2383 4.99575 11.5408 5.46325L12.0267 6.21492C12.1 6.33409 12.265 6.46242 12.4025 6.49909L13.2733 6.71909C13.805 6.85659 13.9608 7.32409 13.6033 7.74575Z" fill="url(#paint1_linear_1182_135)"/>

</svg>
