<svg width="22" height="22" viewBox="0 0 22 22" fill="none" xmlns="http://www.w3.org/2000/svg">
<path d="M11.1375 17.7375C10.7617 17.7375 10.45 17.4258 10.45 17.05V15.125C10.45 14.7492 10.7617 14.4375 11.1375 14.4375C11.5133 14.4375 11.825 14.7492 11.825 15.125V17.05C11.825 17.4258 11.5133 17.7375 11.1375 17.7375Z" fill="#838895"/>
<path d="M16.4083 20.8542H5.86667V19.2501C5.86667 17.8567 6.99417 16.7292 8.3875 16.7292H13.8875C15.2808 16.7292 16.4083 17.8567 16.4083 19.2501V20.8542ZM7.24167 19.4792H15.0333V19.2501C15.0333 18.6176 14.52 18.1042 13.8875 18.1042H8.3875C7.755 18.1042 7.24167 18.6176 7.24167 19.2501V19.4792Z" fill="#838895"/>
<path d="M16.6375 20.8542H5.6375C5.26167 20.8542 4.95 20.5426 4.95 20.1667C4.95 19.7909 5.26167 19.4792 5.6375 19.4792H16.6375C17.0133 19.4792 17.325 19.7909 17.325 20.1667C17.325 20.5426 17.0133 20.8542 16.6375 20.8542Z" fill="#838895"/>
<path d="M16.8942 11.4034C16.7017 11.4034 16.5092 11.3209 16.3717 11.1651C16.1975 10.9634 16.1517 10.6793 16.2617 10.4409C16.5733 9.72593 16.7292 8.96509 16.7292 8.16759V5.41759C16.7292 5.09676 16.6742 4.78509 16.5642 4.45509C16.555 4.42759 16.5458 4.39093 16.5367 4.35426C16.5092 4.21676 16.5 4.07926 16.5 3.95093C16.5 3.57509 16.8117 3.26343 17.1875 3.26343H17.7375C19.3783 3.26343 20.7167 4.63843 20.7167 6.33426C20.7167 7.73676 20.1392 9.12093 19.14 10.1201C19.1217 10.1384 19.0667 10.1843 19.0575 10.1934C18.5167 10.6426 17.9025 11.1468 17.0775 11.3759C17.0133 11.3943 16.9583 11.4034 16.8942 11.4034ZM18.04 4.66593C18.0858 4.91343 18.1042 5.17009 18.1042 5.41759V8.16759C18.1042 8.54343 18.0767 8.90093 18.0217 9.26759C18.0767 9.22176 18.1225 9.18509 18.1775 9.13926C18.9108 8.40593 19.3417 7.37926 19.3417 6.33426C19.3417 5.50926 18.7825 4.81259 18.04 4.66593Z" fill="#838895"/>
<path d="M5.115 11.3667C5.04167 11.3667 4.9775 11.3575 4.90417 11.33C4.1525 11.0917 3.44667 10.6517 2.86 10.065C1.80583 8.90088 1.28333 7.62672 1.28333 6.27922C1.28333 4.61088 2.59417 3.30005 4.2625 3.30005H4.85833C5.0875 3.30005 5.3075 3.41922 5.43583 3.61172C5.56417 3.80422 5.5825 4.05172 5.49083 4.26255C5.34417 4.59255 5.27083 4.96838 5.27083 5.36255V8.11255C5.27083 8.90088 5.42667 9.67088 5.7475 10.4042C5.8575 10.6517 5.8025 10.9359 5.62833 11.1375C5.49083 11.2842 5.3075 11.3667 5.115 11.3667ZM3.94167 4.70255C3.19917 4.84922 2.65833 5.49088 2.65833 6.27922C2.65833 7.27838 3.06167 8.24088 3.85917 9.12088C3.89583 9.16672 3.94167 9.20338 3.9875 9.24005C3.92333 8.86422 3.89583 8.48838 3.89583 8.11255V5.36255C3.89583 5.14255 3.91417 4.92255 3.94167 4.70255Z" fill="#838895"/>
<path d="M11 15.3541C7.08583 15.3541 3.89583 12.1641 3.89583 8.24992V5.49992C3.89583 3.09825 5.84833 1.14575 8.25 1.14575H13.75C16.1517 1.14575 18.1042 3.09825 18.1042 5.49992V8.24992C18.1042 12.1641 14.9142 15.3541 11 15.3541ZM8.25 2.52075C6.60917 2.52075 5.27083 3.85909 5.27083 5.49992V8.24992C5.27083 11.4124 7.8375 13.9791 11 13.9791C14.1625 13.9791 16.7292 11.4124 16.7292 8.24992V5.49992C16.7292 3.85909 15.3908 2.52075 13.75 2.52075H8.25Z" fill="#838895"/>
</svg>
