<svg width="22" height="22" viewBox="0 0 22 22" fill="none" xmlns="http://www.w3.org/2000/svg">
    <defs>
        <linearGradient id="paint0_linear_1182_3056" x1="-0.184015" y1="25.0524" x2="19.3224" y2="24.2582" gradientUnits="userSpaceOnUse">
            <stop stop-color="#192A80"/>
            <stop offset="0.451689" stop-color="#0B3EB1"/>
            <stop offset="1" stop-color="#0A48CD"/>
        </linearGradient>
    </defs>
    <path d="M14.8408 2.13574H7.15916C3.82249 2.13574 1.83333 4.13408 1.83333 7.47074V15.1432C1.83333 18.4799 3.82249 20.4691 7.15916 20.4691H14.8317C18.1683 20.4691 20.1575 18.4799 20.1575 15.1432V7.47074C20.1667 4.13408 18.1775 2.13574 14.8408 2.13574ZM10.6058 15.6932C10.6058 15.9682 10.4683 16.2157 10.23 16.3624C10.1017 16.4449 9.96416 16.4816 9.8175 16.4816C9.69833 16.4816 9.57916 16.4541 9.45999 16.3991L6.25166 14.7949C5.79333 14.5566 5.49999 14.0891 5.49999 13.5666V10.5324C5.49999 10.2574 5.63749 10.0099 5.87583 9.86324C6.11416 9.71658 6.39833 9.70741 6.64583 9.82658L9.85416 11.4307C10.3217 11.6691 10.615 12.1366 10.615 12.6591V15.6932H10.6058ZM10.4133 10.7891L6.96666 8.92824C6.71916 8.79074 6.56333 8.52491 6.56333 8.22241C6.56333 7.92908 6.71916 7.65408 6.96666 7.51658L10.4133 5.65574C10.78 5.46324 11.2108 5.46324 11.5775 5.65574L15.0242 7.51658C15.2717 7.65408 15.4275 7.91991 15.4275 8.22241C15.4275 8.52491 15.2717 8.79074 15.0242 8.92824L11.5775 10.7891C11.3942 10.8899 11.1925 10.9357 10.9908 10.9357C10.7892 10.9357 10.5967 10.8899 10.4133 10.7891ZM16.5 13.5666C16.5 14.0891 16.2067 14.5657 15.7392 14.7949L12.5308 16.3991C12.4208 16.4541 12.3017 16.4816 12.1733 16.4816C12.0267 16.4816 11.8892 16.4449 11.7608 16.3624C11.5225 16.2157 11.385 15.9682 11.385 15.6932V12.6591C11.385 12.1366 11.6783 11.6599 12.1458 11.4307L15.3542 9.82658C15.6017 9.70741 15.8858 9.71658 16.1242 9.86324C16.3625 10.0099 16.5 10.2574 16.5 10.5324V13.5666Z" fill="url(#paint0_linear_1182_3056)"/>

</svg>
