<svg width="22" height="22" viewBox="0 0 22 22" fill="none" xmlns="http://www.w3.org/2000/svg">
<path d="M13.75 20.8541H8.24999C3.2725 20.8541 1.14583 18.7274 1.14583 13.7499V8.24992C1.14583 3.27242 3.2725 1.14575 8.24999 1.14575H13.75C18.7275 1.14575 20.8542 3.27242 20.8542 8.24992V13.7499C20.8542 18.7274 18.7275 20.8541 13.75 20.8541ZM8.24999 2.52075C4.02416 2.52075 2.52083 4.02409 2.52083 8.24992V13.7499C2.52083 17.9758 4.02416 19.4791 8.24999 19.4791H13.75C17.9758 19.4791 19.4792 17.9758 19.4792 13.7499V8.24992C19.4792 4.02409 17.9758 2.52075 13.75 2.52075H8.24999Z" fill="#838895"/>
<path d="M11.0001 11.9901C10.8809 11.9901 10.7618 11.9626 10.6518 11.8984L5.79345 9.09338C5.46345 8.90088 5.35344 8.47922 5.54594 8.15839C5.73844 7.82839 6.16012 7.71838 6.48095 7.91088L10.9909 10.5234L15.4735 7.92922C15.8035 7.73672 16.2251 7.85588 16.4084 8.17672C16.5918 8.49755 16.4818 8.92839 16.161 9.11172L11.3393 11.8984C11.2384 11.9534 11.1193 11.9901 11.0001 11.9901Z" fill="#838895"/>
<path d="M11 16.9767C10.6242 16.9767 10.3125 16.665 10.3125 16.2892V11.3025C10.3125 10.9267 10.6242 10.615 11 10.615C11.3758 10.615 11.6875 10.9267 11.6875 11.3025V16.2892C11.6875 16.665 11.3758 16.9767 11 16.9767Z" fill="#838895"/>
<path d="M11.0002 17.1875C10.4686 17.1875 9.94607 17.0683 9.5244 16.8392L6.59106 15.2075C5.71106 14.7216 5.03271 13.5575 5.03271 12.5491V9.44165C5.03271 8.44248 5.72023 7.27832 6.59106 6.78332L9.5244 5.15165C10.3677 4.68415 11.6327 4.68415 12.476 5.15165L15.4094 6.78332C16.2894 7.26915 16.9677 8.43332 16.9677 9.44165V12.5491C16.9677 13.5483 16.2802 14.7125 15.4094 15.2075L12.476 16.8392C12.0544 17.0775 11.5319 17.1875 11.0002 17.1875ZM11.0002 6.18748C10.6977 6.18748 10.4044 6.24248 10.1936 6.36165L7.26024 7.99332C6.81107 8.24082 6.40771 8.93748 6.40771 9.44165V12.5491C6.40771 13.0625 6.81107 13.75 7.26024 13.9975L10.1936 15.6292C10.6152 15.8675 11.3852 15.8675 11.8069 15.6292L14.7402 13.9975C15.1894 13.75 15.5927 13.0533 15.5927 12.5491V9.44165C15.5927 8.92832 15.1894 8.24082 14.7402 7.99332L11.8069 6.36165C11.5961 6.24248 11.3027 6.18748 11.0002 6.18748Z" fill="#838895"/>
</svg>
