<svg width="30" height="19" viewBox="0 0 30 19" fill="none" xmlns="http://www.w3.org/2000/svg">
<path d="M24.7567 2.85653C23.9623 2.86873 23.1906 3.12384 22.5454 3.58757C21.9002 4.05131 21.4125 4.70145 21.1478 5.4506C21.1186 5.52517 21.0181 5.84618 21.0181 5.84618L18.7483 15.7101H23.9818C24.8571 15.695 25.7021 15.3868 26.3816 14.8348C27.0611 14.2828 27.536 13.519 27.7302 12.6653L30 2.86302L24.7567 2.85653Z" fill="#1EB14B"/>
<path d="M16.0377 0C15.2005 0.00228966 14.3868 0.277299 13.7198 0.783393C13.0528 1.28949 12.5689 1.9991 12.3412 2.80482C12.3088 2.92804 12.2796 3.05127 12.2569 3.17773L8.70947 18.5638H13.9398C14.7957 18.5592 15.6258 18.2699 16.2992 17.7416C16.9726 17.2132 17.451 16.4757 17.659 15.6455L21.268 0.00324575L16.0377 0Z" fill="#F27328"/>
<path d="M6.01501 2.85653C5.19096 2.8679 4.39178 3.14061 3.73269 3.63537C3.0736 4.13013 2.58861 4.82137 2.34763 5.60948C2.3413 5.64635 2.33038 5.6823 2.31517 5.71649L2.22761 6.0602L0 15.7036H5.36C6.1361 15.6919 6.88964 15.4408 7.51763 14.9846C8.14561 14.5284 8.61734 13.8894 8.86841 13.155L9.07923 12.2373L11.2453 2.85653H6.01501Z" fill="#116AB1"/>
<path d="M5.03893 6.06058H4.95786C4.57247 6.06189 4.20054 6.20237 3.91052 6.45617C3.63827 6.66304 3.43391 6.94642 3.32359 7.27006L2.12061 12.4939H2.18544C2.57456 12.4885 2.9496 12.3475 3.24577 12.095C3.55531 11.8498 3.77248 11.5069 3.86183 11.1222L4.1245 9.99059H6.51107C6.90107 9.98685 7.27691 9.8443 7.57133 9.58851C7.88052 9.34994 8.09813 9.01213 8.18746 8.63195L8.20369 8.56385H4.45849L4.70169 7.48731H7.94427C8.32888 7.48489 8.70009 7.34584 8.99162 7.09497C9.29995 6.84928 9.51594 6.50639 9.60443 6.12219V6.05409L5.03893 6.06058Z" fill="white"/>
<path d="M18.2784 6.3684C18.1746 6.26268 18.0504 6.17935 17.9132 6.12358C17.776 6.06781 17.6288 6.04077 17.4807 6.04414H12.9022L11.4236 12.4709H11.4917C11.8805 12.4664 12.2552 12.3239 12.5488 12.0688C12.8615 11.826 13.0803 11.4822 13.1681 11.0961L13.434 9.95145H16.602C16.97 9.98074 17.336 9.87339 17.6299 9.64989C17.9508 9.37495 18.1775 9.00643 18.2784 8.59605L18.5573 7.40925C18.5778 7.31221 18.5887 7.21338 18.5897 7.11419C18.596 6.97165 18.5723 6.82937 18.5204 6.69648C18.4684 6.56358 18.3893 6.443 18.2881 6.34245L18.2784 6.3684ZM16.8484 8.5701H13.768L14.0144 7.49356H17.1046L16.8484 8.5701Z" fill="white"/>
<path d="M27.588 6.36856C27.4854 6.26214 27.3618 6.17832 27.225 6.12248C27.0882 6.06664 26.9412 6.04002 26.7935 6.04431H21.9653V6.08646C21.9436 6.1801 21.9317 6.2757 21.9296 6.37179C21.9221 6.51768 21.9454 6.66353 21.9978 6.79987C22.0503 6.93622 22.1308 7.06004 22.234 7.16334C22.3373 7.26663 22.4611 7.3471 22.5975 7.39955C22.7338 7.45199 22.8797 7.47523 23.0256 7.46779H24.0373L22.8862 12.4679H22.9543C23.3424 12.4623 23.7163 12.3212 24.0114 12.069C24.3229 11.825 24.5414 11.4817 24.6307 11.0962L25.4738 7.46131H27.857V7.41591C27.8758 7.31969 27.8867 7.22207 27.8895 7.12407C27.8956 6.98057 27.872 6.83734 27.8201 6.70341C27.7682 6.56948 27.6892 6.44775 27.588 6.34586V6.36856Z" fill="white"/>
</svg>
