<svg width="44" height="44" viewBox="0 0 44 44" fill="none" xmlns="http://www.w3.org/2000/svg">
<rect opacity="0.4" y="8.7998" width="44" height="27.8667" rx="2.86667" fill="#2563EB"/>
<rect x="4.39941" y="14.666" width="3.58333" height="3.58333" rx="0.716667" fill="#2563EB"/>
<rect x="12.2827" y="14.666" width="3.58333" height="3.58333" rx="0.716667" fill="#2563EB"/>
<rect x="20.166" y="14.666" width="3.58333" height="3.58333" rx="0.716667" fill="#2563EB"/>
<rect x="28.0493" y="14.666" width="3.58333" height="3.58333" rx="0.716667" fill="#2563EB"/>
<rect x="35.9326" y="14.666" width="3.58333" height="3.58333" rx="0.716667" fill="#2563EB"/>
<rect x="4.39941" y="26.3994" width="3.58333" height="3.58333" rx="0.716667" fill="#2563EB"/>
<rect x="12.2827" y="26.3994" width="19.35" height="3.58333" rx="0.716667" fill="#2563EB"/>
<rect x="35.9326" y="26.3994" width="3.58333" height="3.58333" rx="0.716667" fill="#2563EB"/>
<rect x="8.79883" y="20.5322" width="3.58333" height="3.58333" rx="0.716667" fill="#2563EB"/>
<rect x="16.6821" y="20.5322" width="3.58333" height="3.58333" rx="0.716667" fill="#2563EB"/>
<rect x="24.5654" y="20.5322" width="3.58333" height="3.58333" rx="0.716667" fill="#2563EB"/>
<rect x="32.4487" y="20.5322" width="3.58333" height="3.58333" rx="0.716667" fill="#2563EB"/>
</svg>
