<svg width="44" height="44" viewBox="0 0 44 44" fill="none" xmlns="http://www.w3.org/2000/svg">
<path opacity="0.4" d="M12.8332 9.00033H31.1665C33.2836 9.00033 34.9998 10.7166 34.9998 12.8337V31.167C34.9998 33.2841 33.2836 35.0003 31.1665 35.0003H12.8332C10.7161 35.0003 8.99984 33.2841 8.99984 31.167V12.8337C8.99984 10.7166 10.7161 9.00033 12.8332 9.00033Z" fill="#2563EB" stroke="#2563EB" stroke-width="10.6667"/>
<mask id="path-2-inside-1_1986_11381" fill="white">
<path d="M16.4998 27.0418C16.3192 27.0419 16.1404 27.0064 15.9735 26.9373C15.8066 26.8683 15.655 26.767 15.5272 26.6394L11.8606 22.9727C11.7328 22.845 11.6314 22.6934 11.5623 22.5265C11.4931 22.3596 11.4575 22.1808 11.4575 22.0001C11.4575 21.8195 11.4931 21.6406 11.5623 21.4737C11.6314 21.3068 11.7328 21.1552 11.8606 21.0275L15.5272 17.3609C15.7852 17.1029 16.135 16.958 16.4998 16.958C16.8646 16.958 17.2144 17.1029 17.4724 17.3609C17.7303 17.6188 17.8752 17.9687 17.8752 18.3334C17.8752 18.6982 17.7303 19.0481 17.4724 19.306L14.7774 22.0001L17.4724 24.6942C17.6648 24.8865 17.7959 25.1316 17.849 25.3984C17.9021 25.6652 17.8749 25.9417 17.7707 26.1931C17.6666 26.4444 17.4903 26.6592 17.264 26.8103C17.0378 26.9613 16.7718 27.0419 16.4998 27.0418Z"/>
</mask>
<path d="M16.4998 27.0418C16.3192 27.0419 16.1404 27.0064 15.9735 26.9373C15.8066 26.8683 15.655 26.767 15.5272 26.6394L11.8606 22.9727C11.7328 22.845 11.6314 22.6934 11.5623 22.5265C11.4931 22.3596 11.4575 22.1808 11.4575 22.0001C11.4575 21.8195 11.4931 21.6406 11.5623 21.4737C11.6314 21.3068 11.7328 21.1552 11.8606 21.0275L15.5272 17.3609C15.7852 17.1029 16.135 16.958 16.4998 16.958C16.8646 16.958 17.2144 17.1029 17.4724 17.3609C17.7303 17.6188 17.8752 17.9687 17.8752 18.3334C17.8752 18.6982 17.7303 19.0481 17.4724 19.306L14.7774 22.0001L17.4724 24.6942C17.6648 24.8865 17.7959 25.1316 17.849 25.3984C17.9021 25.6652 17.8749 25.9417 17.7707 26.1931C17.6666 26.4444 17.4903 26.6592 17.264 26.8103C17.0378 26.9613 16.7718 27.0419 16.4998 27.0418Z" fill="#2563EB"/>
<path d="M16.4998 27.0418L16.5046 16.3751L16.495 16.3751L16.4998 27.0418ZM15.5272 26.6394L7.98475 34.1818L7.98717 34.1843L15.5272 26.6394ZM11.8606 22.9727L19.403 15.4302L19.4006 15.4278L11.8606 22.9727ZM11.8606 21.0275L19.4006 28.5724L19.403 28.57L11.8606 21.0275ZM15.5272 17.3609L7.98475 9.81839L7.98475 9.81839L15.5272 17.3609ZM16.4998 16.958V27.6247V16.958ZM17.8752 18.3334L28.5419 18.3334L17.8752 18.3334ZM17.4724 19.306L25.0136 26.8498L25.0149 26.8485L17.4724 19.306ZM14.7774 22.0001L7.23621 14.4564L-0.310122 22.0001L7.23621 29.5439L14.7774 22.0001ZM17.4724 24.6942L9.93121 32.238L9.93234 32.2391L17.4724 24.6942ZM16.495 16.3751C17.7154 16.3746 18.9239 16.6144 20.0516 17.081L11.8953 36.7936C13.3568 37.3983 14.9231 37.7092 16.5046 37.7084L16.495 16.3751ZM20.0516 17.081C21.1793 17.5476 22.204 18.2318 23.0673 19.0945L7.98717 34.1843C9.10591 35.3023 10.4339 36.1889 11.8953 36.7936L20.0516 17.081ZM23.0697 19.0969L19.403 15.4302L4.31809 30.5152L7.98475 34.1818L23.0697 19.0969ZM19.4006 15.4278C20.2641 16.2907 20.949 17.3153 21.4163 18.443L1.70821 26.61C2.31384 28.0715 3.2015 29.3993 4.3205 30.5176L19.4006 15.4278ZM21.4163 18.443C21.8836 19.5707 22.1242 20.7794 22.1242 22.0001H0.790853C0.790853 23.5821 1.10258 25.1486 1.70821 26.61L21.4163 18.443ZM22.1242 22.0001C22.1242 23.2208 21.8836 24.4296 21.4163 25.5573L1.70821 17.3902C1.10258 18.8516 0.790853 20.4181 0.790853 22.0001H22.1242ZM21.4163 25.5573C20.949 26.6849 20.2641 27.7095 19.4006 28.5724L4.3205 13.4826C3.2015 14.6009 2.31384 15.9287 1.70821 17.3902L21.4163 25.5573ZM19.403 28.57L23.0697 24.9033L7.98475 9.81839L4.31809 13.4851L19.403 28.57ZM23.0697 24.9033C21.3272 26.6458 18.964 27.6247 16.4998 27.6247L16.4998 6.29134C13.3061 6.29134 10.2431 7.56004 7.98475 9.81839L23.0697 24.9033ZM16.4998 27.6247C14.0356 27.6247 11.6724 26.6458 9.92992 24.9033L25.0149 9.81839C22.7565 7.56004 19.6936 6.29134 16.4998 6.29134L16.4998 27.6247ZM9.92992 24.9033C8.18746 23.1609 7.20858 20.7976 7.20858 18.3334L28.5419 18.3334C28.5419 15.1397 27.2732 12.0767 25.0149 9.81839L9.92992 24.9033ZM7.20858 18.3334C7.20858 15.8693 8.18746 13.506 9.92992 11.7636L25.0149 26.8485C27.2732 24.5902 28.5419 21.5272 28.5419 18.3334L7.20858 18.3334ZM9.93121 11.7623L7.23621 14.4564L22.3186 29.5439L25.0136 26.8498L9.93121 11.7623ZM7.23621 29.5439L9.93121 32.238L25.0136 17.1504L22.3186 14.4564L7.23621 29.5439ZM9.93234 32.2391C8.63201 30.9396 7.7464 29.2836 7.38753 27.4807L28.3104 23.3161C27.8453 20.9795 26.6976 18.8334 25.0124 17.1493L9.93234 32.2391ZM7.38753 27.4807C7.02866 25.6777 7.21268 23.8088 7.91629 22.1104L27.6252 30.2757C28.537 28.0747 28.7755 25.6526 28.3104 23.3161L7.38753 27.4807ZM7.91629 22.1104C8.6199 20.4121 9.81148 18.9606 11.3403 17.9397L23.1878 35.6808C25.1691 34.3577 26.7133 32.4767 27.6252 30.2757L7.91629 22.1104ZM11.3403 17.9397C12.8691 16.9188 14.6663 16.3743 16.5046 16.3751L16.495 37.7084C18.8774 37.7095 21.2066 37.0039 23.1878 35.6808L11.3403 17.9397Z" fill="#2563EB" mask="url(#path-2-inside-1_1986_11381)"/>
<mask id="path-4-inside-2_1986_11381" fill="white">
<path d="M27.5001 27.0418C27.2281 27.0419 26.9621 26.9613 26.7359 26.8103C26.5097 26.6592 26.3333 26.4444 26.2292 26.1931C26.1251 25.9417 26.0979 25.6652 26.151 25.3984C26.2041 25.1316 26.3351 24.8865 26.5276 24.6942L29.2226 22.0001L26.5276 19.306C26.3998 19.1783 26.2985 19.0267 26.2294 18.8598C26.1603 18.6929 26.1247 18.5141 26.1247 18.3334C26.1247 18.1528 26.1603 17.974 26.2294 17.8071C26.2985 17.6402 26.3998 17.4886 26.5276 17.3609C26.7855 17.1029 27.1353 16.958 27.5001 16.958C27.6808 16.958 27.8596 16.9936 28.0265 17.0627C28.1934 17.1318 28.345 17.2331 28.4727 17.3609L32.1394 21.0275C32.2672 21.1552 32.3685 21.3068 32.4377 21.4737C32.5068 21.6406 32.5424 21.8195 32.5424 22.0001C32.5424 22.1808 32.5068 22.3596 32.4377 22.5265C32.3685 22.6934 32.2672 22.845 32.1394 22.9727L28.4727 26.6394C28.345 26.767 28.1933 26.8683 28.0265 26.9373C27.8596 27.0064 27.6807 27.0419 27.5001 27.0418Z"/>
</mask>
<path d="M27.5001 27.0418C27.2281 27.0419 26.9621 26.9613 26.7359 26.8103C26.5097 26.6592 26.3333 26.4444 26.2292 26.1931C26.1251 25.9417 26.0979 25.6652 26.151 25.3984C26.2041 25.1316 26.3351 24.8865 26.5276 24.6942L29.2226 22.0001L26.5276 19.306C26.3998 19.1783 26.2985 19.0267 26.2294 18.8598C26.1603 18.6929 26.1247 18.5141 26.1247 18.3334C26.1247 18.1528 26.1603 17.974 26.2294 17.8071C26.2985 17.6402 26.3998 17.4886 26.5276 17.3609C26.7855 17.1029 27.1353 16.958 27.5001 16.958C27.6808 16.958 27.8596 16.9936 28.0265 17.0627C28.1934 17.1318 28.345 17.2331 28.4727 17.3609L32.1394 21.0275C32.2672 21.1552 32.3685 21.3068 32.4377 21.4737C32.5068 21.6406 32.5424 21.8195 32.5424 22.0001C32.5424 22.1808 32.5068 22.3596 32.4377 22.5265C32.3685 22.6934 32.2672 22.845 32.1394 22.9727L28.4727 26.6394C28.345 26.767 28.1933 26.8683 28.0265 26.9373C27.8596 27.0064 27.6807 27.0419 27.5001 27.0418Z" fill="#2563EB"/>
<path d="M27.5001 27.0418L27.505 16.3751L27.4953 16.3751L27.5001 27.0418ZM26.5276 24.6942L34.0676 32.2391L34.0687 32.238L26.5276 24.6942ZM29.2226 22.0001L36.7637 29.5439L44.3101 22.0001L36.7637 14.4564L29.2226 22.0001ZM26.5276 19.306L18.9851 26.8485L18.9864 26.8498L26.5276 19.306ZM27.5001 16.958V6.29134V16.958ZM28.4727 17.3609L20.9302 24.9033L28.4727 17.3609ZM32.1394 21.0275L24.5969 28.57L24.5993 28.5724L32.1394 21.0275ZM32.1394 22.9727L24.5993 15.4278L24.5969 15.4302L32.1394 22.9727ZM28.4727 26.6394L36.0128 34.1843L36.0152 34.1818L28.4727 26.6394ZM27.4953 16.3751C29.3336 16.3743 31.1309 16.9188 32.6597 17.9397L20.8121 35.6808C22.7934 37.0039 25.1226 37.7095 27.505 37.7084L27.4953 16.3751ZM32.6597 17.9397C34.1885 18.9606 35.38 20.4121 36.0837 22.1104L16.3748 30.2757C17.2866 32.4767 18.8309 34.3577 20.8121 35.6808L32.6597 17.9397ZM36.0837 22.1104C36.7873 23.8088 36.9713 25.6777 36.6124 27.4807L15.6895 23.3161C15.2244 25.6526 15.4629 28.0747 16.3748 30.2757L36.0837 22.1104ZM36.6124 27.4807C36.2535 29.2836 35.3679 30.9396 34.0676 32.2391L18.9875 17.1493C17.3023 18.8334 16.1546 20.9795 15.6895 23.3161L36.6124 27.4807ZM34.0687 32.238L36.7637 29.5439L21.6814 14.4564L18.9864 17.1504L34.0687 32.238ZM36.7637 14.4564L34.0687 11.7623L18.9864 26.8498L21.6814 29.5439L36.7637 14.4564ZM34.07 11.7636C34.9328 12.6264 35.6172 13.6506 36.0841 14.7778L16.3747 22.9418C16.9798 24.4027 17.8668 25.7303 18.9851 26.8485L34.07 11.7636ZM36.0841 14.7778C36.551 15.9051 36.7914 17.1133 36.7914 18.3334H15.458C15.458 19.9149 15.7695 21.4808 16.3747 22.9418L36.0841 14.7778ZM36.7914 18.3334C36.7914 19.5536 36.551 20.7618 36.0841 21.889L16.3747 13.7251C15.7695 15.1861 15.458 16.752 15.458 18.3334H36.7914ZM36.0841 21.889C35.6172 23.0163 34.9328 24.0405 34.07 24.9033L18.9851 9.81839C17.8668 10.9366 16.9798 12.2642 16.3747 13.7251L36.0841 21.889ZM34.07 24.9033C32.3276 26.6458 29.9643 27.6247 27.5001 27.6247V6.29134C24.3064 6.29134 21.2434 7.56004 18.9851 9.81839L34.07 24.9033ZM27.5001 27.6247C26.28 27.6247 25.0718 27.3843 23.9445 26.9174L32.1085 7.20799C30.6475 6.60283 29.0815 6.29134 27.5001 6.29134V27.6247ZM23.9445 26.9174C22.8173 26.4505 21.7931 25.7661 20.9302 24.9033L36.0152 9.81839C34.8969 8.70014 33.5694 7.81314 32.1085 7.20799L23.9445 26.9174ZM20.9302 24.9033L24.5969 28.57L39.6819 13.4851L36.0152 9.81839L20.9302 24.9033ZM24.5993 28.5724C23.7358 27.7095 23.0509 26.6849 22.5836 25.5573L42.2917 17.3902C41.6861 15.9288 40.7985 14.601 39.6794 13.4826L24.5993 28.5724ZM22.5836 25.5573C22.1163 24.4296 21.8758 23.2208 21.8758 22.0001H43.2091C43.2091 20.4181 42.8974 18.8516 42.2917 17.3902L22.5836 25.5573ZM21.8758 22.0001C21.8758 20.7794 22.1163 19.5707 22.5836 18.443L42.2917 26.61C42.8974 25.1486 43.2091 23.5821 43.2091 22.0001H21.8758ZM22.5836 18.443C23.0509 17.3153 23.7358 16.2907 24.5993 15.4278L39.6794 30.5176C40.7985 29.3993 41.6861 28.0714 42.2917 26.61L22.5836 18.443ZM24.5969 15.4302L20.9302 19.0969L36.0152 34.1818L39.6819 30.5152L24.5969 15.4302ZM20.9327 19.0945C21.7959 18.2318 22.8206 17.5476 23.9483 17.081L32.1046 36.7936C33.566 36.1889 34.894 35.3023 36.0128 34.1843L20.9327 19.0945ZM23.9483 17.081C25.076 16.6144 26.2846 16.3746 27.505 16.3751L27.4953 37.7084C29.0769 37.7092 30.6431 37.3983 32.1046 36.7936L23.9483 17.081Z" fill="#2563EB" mask="url(#path-4-inside-2_1986_11381)"/>
<mask id="path-6-inside-3_1986_11381" fill="white">
<path d="M20.1666 29.7913C20.0386 29.7911 19.9112 29.7732 19.788 29.7381C19.4375 29.6379 19.1411 29.4026 18.9641 29.0839C18.787 28.7652 18.7438 28.3892 18.8438 28.0386L22.5105 15.2053C22.5572 15.0285 22.6388 14.8628 22.7503 14.7179C22.8619 14.573 23.0012 14.4518 23.1602 14.3614C23.3191 14.271 23.4945 14.2132 23.6761 14.1914C23.8577 14.1696 24.0418 14.1843 24.2176 14.2345C24.3934 14.2848 24.5575 14.3696 24.7002 14.484C24.8428 14.5984 24.9612 14.7401 25.0484 14.9009C25.1356 15.0616 25.1899 15.2381 25.2081 15.4201C25.2262 15.6021 25.2079 15.7858 25.1542 15.9606L21.4875 28.794C21.4055 29.0811 21.2322 29.3337 20.9939 29.5136C20.7556 29.6936 20.4652 29.791 20.1666 29.7913Z"/>
</mask>
<path d="M20.1666 29.7913C20.0386 29.7911 19.9112 29.7732 19.788 29.7381C19.4375 29.6379 19.1411 29.4026 18.9641 29.0839C18.787 28.7652 18.7438 28.3892 18.8438 28.0386L22.5105 15.2053C22.5572 15.0285 22.6388 14.8628 22.7503 14.7179C22.8619 14.573 23.0012 14.4518 23.1602 14.3614C23.3191 14.271 23.4945 14.2132 23.6761 14.1914C23.8577 14.1696 24.0418 14.1843 24.2176 14.2345C24.3934 14.2848 24.5575 14.3696 24.7002 14.484C24.8428 14.5984 24.9612 14.7401 25.0484 14.9009C25.1356 15.0616 25.1899 15.2381 25.2081 15.4201C25.2262 15.6021 25.2079 15.7858 25.1542 15.9606L21.4875 28.794C21.4055 29.0811 21.2322 29.3337 20.9939 29.5136C20.7556 29.6936 20.4652 29.791 20.1666 29.7913Z" fill="#2563EB"/>
<path d="M19.788 29.7381L16.8556 39.9938L16.8639 39.9962L19.788 29.7381ZM18.8438 28.0386L8.58759 25.1083L8.58701 25.1103L18.8438 28.0386ZM22.5105 15.2053L32.7668 18.1357L32.7959 18.0335L32.8231 17.9309L22.5105 15.2053ZM22.7503 14.7179L14.2981 8.21119L22.7503 14.7179ZM25.1542 15.9606L14.9583 12.8266L14.9271 12.9282L14.8979 13.0303L25.1542 15.9606ZM21.4875 28.794L11.2313 25.8636L11.2311 25.8642L21.4875 28.794ZM20.181 19.1246C21.037 19.1258 21.8888 19.2454 22.7122 19.4801L16.8639 39.9962C17.9335 40.3011 19.0401 40.4565 20.1522 40.458L20.181 19.1246ZM22.7204 19.4825C25.0892 20.1598 27.0919 21.7501 28.2884 23.9037L9.63971 34.2641C11.1903 37.0551 13.7858 39.1161 16.8556 39.9938L22.7204 19.4825ZM28.2884 23.9037C29.4849 26.0573 29.777 28.5979 29.1007 30.967L8.58701 25.1103C7.71048 28.1805 8.08914 31.473 9.63971 34.2641L28.2884 23.9037ZM29.1001 30.969L32.7668 18.1357L12.2543 12.2749L8.58759 25.1083L29.1001 30.969ZM32.8231 17.9309C32.5073 19.1257 31.9564 20.2454 31.2026 21.2246L14.2981 8.21119C13.3212 9.48017 12.6072 10.9313 12.1979 12.4797L32.8231 17.9309ZM31.2026 21.2246C30.4488 22.2038 29.5072 23.0228 28.4329 23.6337L17.8874 5.08907C16.4952 5.88075 15.275 6.94217 14.2981 8.21119L31.2026 21.2246ZM28.4329 23.6337C27.3587 24.2446 26.1734 24.635 24.9465 24.7822L22.4058 3.60067C20.8157 3.7914 19.2796 4.29741 17.8874 5.08907L28.4329 23.6337ZM24.9465 24.7822C23.7195 24.9293 22.4755 24.8303 21.2873 24.4908L27.148 3.97829C25.6081 3.53832 23.9959 3.40995 22.4058 3.60067L24.9465 24.7822ZM21.2873 24.4908C20.099 24.1513 18.9904 23.5782 18.0265 22.805L31.3739 6.16298C30.1245 5.161 28.6879 4.41827 27.148 3.97829L21.2873 24.4908ZM18.0265 22.805C17.0624 22.0319 16.2623 21.0742 15.673 19.988L34.4239 9.81378C33.6601 8.40612 32.6232 7.16497 31.3739 6.16298L18.0265 22.805ZM15.673 19.988C15.0836 18.9018 14.7168 17.709 14.5941 16.4793L35.822 14.3609C35.663 12.7673 35.1877 11.2214 34.4239 9.81378L15.673 19.988ZM14.5941 16.4793C14.4714 15.2497 14.5952 14.0079 14.9583 12.8266L35.3501 19.0946C35.8206 17.5638 35.981 15.9545 35.822 14.3609L14.5941 16.4793ZM14.8979 13.0303L11.2313 25.8636L31.7438 31.7243L35.4104 18.891L14.8979 13.0303ZM11.2311 25.8642C11.7853 23.9239 12.9562 22.2168 14.5665 21.0009L27.4213 38.0264C29.5083 36.4506 31.0256 34.2383 31.7439 31.7237L11.2311 25.8642ZM14.5665 21.0009C16.1769 19.785 18.1394 19.1264 20.1573 19.1246L20.1759 40.458C22.791 40.4557 25.3343 39.6021 27.4213 38.0264L14.5665 21.0009Z" fill="#2563EB" mask="url(#path-6-inside-3_1986_11381)"/>
</svg>
