<svg width="44" height="44" viewBox="0 0 44 44" fill="none" xmlns="http://www.w3.org/2000/svg">
<path opacity="0.4" d="M6.40081 10.527L6.39906 10.5257C5.35101 9.76952 3.93449 10.8154 4.376 12.0609C4.37606 12.0611 4.37611 12.0612 4.37617 12.0614L12.0022 33.418C12.0023 33.4182 12.0024 33.4184 12.0024 33.4186C12.1882 33.9352 12.6967 34.2969 13.255 34.2969H30.7449C31.3057 34.2969 31.8072 33.9341 31.9756 33.4288L31.979 33.4187L31.9791 33.4188L39.6057 12.0604L39.606 12.0598C40.0463 10.8321 38.6466 9.76832 37.5807 10.527C37.5805 10.5272 37.5803 10.5273 37.5801 10.5274L30.2474 15.7703L30.2444 15.7725C28.9955 16.6513 27.2416 16.1489 26.7016 14.6952C26.7014 14.6948 26.7013 14.6945 26.7012 14.6941L23.2368 5.4558L23.2357 5.45284C22.8096 4.29437 21.172 4.29437 20.7459 5.45284L20.7448 5.4558L17.2798 14.6958L17.2795 14.6966C16.7418 16.1226 14.9727 16.6578 13.7341 15.7703L6.40081 10.527ZM6.40081 10.527L13.7336 15.7699L6.40081 10.527Z" fill="#2563EB" stroke="#2563EB" stroke-opacity="0.2"/>
<path d="M31.1668 39.833H12.8335C12.358 39.833 11.9585 39.4335 11.9585 38.958C11.9585 38.4825 12.358 38.083 12.8335 38.083H31.1668C31.6424 38.083 32.0418 38.4825 32.0418 38.958C32.0418 39.4335 31.6424 39.833 31.1668 39.833Z" fill="#2563EB" stroke="#2563EB"/>
<path d="M26.5832 27.042H17.4165C16.6648 27.042 16.0415 26.4187 16.0415 25.667C16.0415 24.9153 16.6648 24.292 17.4165 24.292H26.5832C27.3348 24.292 27.9582 24.9153 27.9582 25.667C27.9582 26.4187 27.3348 27.042 26.5832 27.042Z" fill="#2563EB"/>
</svg>
