<svg width="30" height="30" viewBox="0 0 30 30" fill="none" xmlns="http://www.w3.org/2000/svg">
    <defs>
        <clipPath id="clip0_1259_64098">
            <rect width="30" height="30" fill="white"/>
        </clipPath>
    </defs>
    <g clip-path="url(#clip0_1259_64098)">
<path d="M18.1748 2.86537V1.71434C18.1748 0.767618 17.4074 0 16.4604 0C15.5137 0 14.7461 0.767618 14.7461 1.71434V2.89189C15.8835 2.74063 17.0353 2.7317 18.1748 2.86537Z" fill="#2563EB"/>
<path d="M26.5052 20.4158C26.5012 20.4184 26.4973 20.4208 26.4933 20.4231L22.0436 23.1215C22.1182 23.3718 22.166 23.6291 22.186 23.8896C22.2086 24.1856 21.9869 24.444 21.6907 24.4669L14.7932 24.9934C14.7792 24.9944 14.7653 24.995 14.7514 24.995C14.4625 24.9947 14.2254 24.7662 14.2144 24.4774C14.2036 24.1885 14.4229 23.9427 14.7112 23.9209L21.0168 23.4395C20.671 22.2659 19.553 21.4933 18.3329 21.5849L14.1366 21.9053C13.3033 21.9678 12.4669 21.8423 11.6891 21.5377L11.2405 21.3615C9.05059 20.4954 6.5626 20.8937 4.75293 22.4006L5.21408 28.4412L5.8517 28.009C6.53266 27.5463 7.36672 27.3661 8.17793 27.5066L15.4851 28.7608C16.8759 28.8977 18.2746 28.5925 19.4818 27.8882L28.6284 20.5242C28.0176 20.0358 27.1628 19.9919 26.5052 20.4158Z" fill="#2563EB"/>
<path opacity="0.4" d="M4.19074 17.3745C4.71229 18.4123 5.77902 19.0631 6.94056 19.052H26.215C27.3766 19.0631 28.4433 18.4123 28.9646 17.3745L30.014 15.1528H3.1416L4.19074 17.3745Z" fill="#2563EB"/>
<path opacity="0.4" d="M0.015625 20.9746L3.54488 20.7052L4.23372 29.7307L0.704722 30.0001L0.015625 20.9746Z" fill="#2563EB"/>
<path d="M24.7855 6.99837C22.5998 4.97021 19.685 3.84964 16.5781 3.84964C13.4713 3.84964 10.5566 4.9689 8.37088 6.99706C6.32039 8.89995 5.13916 11.3879 5.01074 14.0771H28.1456C28.0172 11.3879 26.836 8.90126 24.7855 6.99837Z" fill="#2563EB"/>
</g>

</svg>
