<svg width="44" height="44" viewBox="0 0 44 44" fill="none" xmlns="http://www.w3.org/2000/svg">
<path d="M22.8955 28.0052L23.4014 27.1425L23.784 26.4902L24.2898 25.6277L25.1524 26.1335L26.8409 27.1235C26.8411 27.1236 26.8413 27.1237 26.8414 27.1238C28.4925 28.0893 30.6249 27.5314 31.5916 25.8801L31.5917 25.8801L33.6203 22.4155C33.554 22.3816 33.4884 22.3458 33.4237 22.3079L33.4237 22.3079C32.5027 21.7689 31.8896 20.9062 31.6406 19.9501C30.6106 20.0247 29.7152 19.6495 29.2942 19.3922L29.2942 19.3922C28.6037 18.97 28.0945 18.3612 27.7886 17.6716C27.7169 17.6906 27.6429 17.7081 27.567 17.7237C27.9403 19.4276 27.7016 21.2731 26.7507 22.8973L26.7507 22.8973L25.7212 24.6556L25.216 25.5184L24.3531 25.0134L23.7005 24.6314L22.8373 24.1262L23.3426 23.2631L24.3721 21.5047L24.3721 21.5047C25.6097 19.3909 24.8964 16.6622 22.7826 15.4246L23.2879 14.5616L22.7826 15.4246L21.8957 14.9053L21.8956 14.9053C20.7776 14.2505 20.401 12.8103 21.0557 11.6921L21.0578 11.6884L21.0578 11.6884L21.274 11.3228C21.2744 11.3221 21.2748 11.3214 21.2753 11.3207C21.5908 10.783 22.1021 10.3966 22.7057 10.2388L22.8955 28.0052ZM22.8955 28.0052L23.7582 28.5111L25.4479 29.5019L25.4489 29.5024C25.5852 29.5822 25.7235 29.6561 25.8633 29.7243M22.8955 28.0052L25.8633 29.7243M25.8633 29.7243L20.3234 39.3644H8.52063L17.048 24.5945L18.1864 25.2605L19.0496 25.7654L19.5545 24.9023L19.9364 24.2496L20.4413 23.3865L19.5782 22.8815L17.8971 21.898L17.8969 21.8979C17.4486 21.6357 17.1666 21.1721 17.1401 20.653C17.1401 20.653 17.1401 20.653 17.1401 20.653L16.8176 14.3288L16.8176 14.3287C16.7834 13.6598 16.9417 13.0016 17.2757 12.4208C17.2761 12.4201 17.2765 12.4195 17.2769 12.4188L19.6563 8.33692C19.6564 8.3368 19.6565 8.33667 19.6566 8.33655C20.1256 7.53299 20.8752 6.96384 21.7753 6.72785L21.7753 6.72784C22.6751 6.4919 23.6067 6.61995 24.4074 7.08799C24.4081 7.08841 24.4089 7.08883 24.4096 7.08925L27.2995 8.80187L27.2995 8.80188L27.304 8.80456C27.9917 9.20715 28.2242 10.0963 27.8215 10.7841L27.8214 10.7843C27.6252 11.1194 27.3144 11.3548 26.9385 11.453L26.9383 11.453C26.5633 11.551 26.179 11.4978 25.8499 11.3064L24.4983 10.4912L24.4983 10.4911L24.4875 10.4848C23.9483 10.1687 23.312 10.0801 22.7061 10.2387C22.7063 10.2386 22.7064 10.2386 22.7065 10.2386L25.8633 29.7243ZM26.459 27.7763L26.4586 27.776L24.7699 26.7858L24.7698 26.7858L24.6465 26.9961L24.264 27.6484L24.2641 27.6485L24.1408 27.8588L25.8301 28.8493L25.8305 28.8495L25.8307 28.8496L25.831 28.8498L26.459 27.7763Z" fill="#2563EB" stroke="#2563EB" stroke-width="2"/>
<mask id="path-2-inside-1_1986_11281" fill="white">
<path d="M27.5901 6.93256L27.9543 6.33878C28.2823 5.36893 27.6233 4.70013 27.2629 4.48946L26.3285 3.94295C25.5848 3.50795 24.6261 3.75914 24.1911 4.50247L23.8975 5.00557C24.3835 5.1249 24.8551 5.31484 25.2991 5.5748L27.5901 6.93256Z"/>
</mask>
<path d="M27.5901 6.93256L27.9543 6.33878C28.2823 5.36893 27.6233 4.70013 27.2629 4.48946L26.3285 3.94295C25.5848 3.50795 24.6261 3.75914 24.1911 4.50247L23.8975 5.00557C24.3835 5.1249 24.8551 5.31484 25.2991 5.5748L27.5901 6.93256Z" fill="#2563EB"/>
<path d="M27.5901 6.93256L26.5704 8.6531L28.2649 9.65731L29.2948 7.9784L27.5901 6.93256ZM27.9543 6.33878L29.6591 7.38462L29.7769 7.1927L29.849 6.97941L27.9543 6.33878ZM27.2629 4.48946L26.2532 6.21586L26.2536 6.21612L27.2629 4.48946ZM26.3285 3.94295L25.3187 5.66932L25.3188 5.66935L26.3285 3.94295ZM24.1911 4.50247L22.4649 3.49232L22.4638 3.49432L24.1911 4.50247ZM23.8975 5.00557L22.1701 3.99741L20.8207 6.30949L23.4205 6.94787L23.8975 5.00557ZM25.2991 5.5748L26.3188 3.85423L26.3096 3.84886L25.2991 5.5748ZM29.2948 7.9784L29.6591 7.38462L26.2496 5.29294L25.8853 5.88672L29.2948 7.9784ZM29.849 6.97941C30.2099 5.91199 30.029 4.92947 29.6293 4.18419C29.2638 3.50265 28.727 3.02868 28.2722 2.7628L26.2536 6.21612C26.1875 6.17745 26.1611 6.15135 26.154 6.14419C26.1436 6.13381 26.1248 6.11306 26.1042 6.07465C26.0817 6.03262 26.0554 5.9656 26.0463 5.87959C26.0367 5.78857 26.0515 5.72252 26.0597 5.69815L29.849 6.97941ZM28.2726 2.76306L27.3382 2.21655L25.3188 5.66935L26.2532 6.21586L28.2726 2.76306ZM27.3382 2.21658C25.641 1.22386 23.4576 1.79603 22.4649 3.49232L25.9172 5.51262C25.7946 5.72226 25.5285 5.79204 25.3187 5.66932L27.3382 2.21658ZM22.4638 3.49432L22.1701 3.99741L25.6248 6.01372L25.9184 5.51062L22.4638 3.49432ZM23.4205 6.94787C23.7196 7.02131 24.0115 7.13851 24.2885 7.30073L26.3096 3.84886C25.6987 3.49117 25.0473 3.22848 24.3744 3.06326L23.4205 6.94787ZM24.2794 7.29534L26.5704 8.6531L28.6098 5.21202L26.3187 3.85426L24.2794 7.29534Z" fill="#2563EB" mask="url(#path-2-inside-1_1986_11281)"/>
<mask id="path-4-inside-2_1986_11281" fill="white">
<path d="M22.7892 12.2115L22.5708 12.5809C22.4917 12.7159 22.3596 13.0944 22.7835 13.3897L23.5912 13.8626C23.6177 13.8235 23.8605 13.4154 23.8605 13.4154C23.9358 12.9153 24.2432 12.388 24.2432 12.388L23.5956 11.9974C23.4632 11.9199 23.1119 11.8048 22.7892 12.2115Z"/>
</mask>
<path d="M22.7892 12.2115L22.5708 12.5809C22.4917 12.7159 22.3596 13.0944 22.7835 13.3897L23.5912 13.8626C23.6177 13.8235 23.8605 13.4154 23.8605 13.4154C23.9358 12.9153 24.2432 12.388 24.2432 12.388L23.5956 11.9974C23.4632 11.9199 23.1119 11.8048 22.7892 12.2115Z" fill="#2563EB"/>
<path d="M22.5708 12.5809L20.8491 11.5632L20.8451 11.57L22.5708 12.5809ZM22.7835 13.3897L21.6404 15.0308L21.705 15.0758L21.773 15.1156L22.7835 13.3897ZM23.5912 13.8626L22.5807 15.5885L24.197 16.5348L25.2472 14.984L23.5912 13.8626ZM23.8605 13.4154L25.5793 14.4381L25.7798 14.1011L25.8382 13.7133L23.8605 13.4154ZM24.2432 12.388L25.971 13.3953L26.9634 11.693L25.2761 10.6754L24.2432 12.388ZM23.5956 11.9974L24.6286 10.2848L24.6175 10.2782L24.6064 10.2717L23.5956 11.9974ZM21.0675 11.1938L20.8491 11.5632L24.2925 13.5986L24.5109 13.2292L21.0675 11.1938ZM20.8451 11.57C20.6745 11.8613 20.4476 12.3902 20.4932 13.0607C20.5466 13.8478 20.959 14.5561 21.6404 15.0308L23.9267 11.7486C24.0287 11.8196 24.1707 11.9484 24.2894 12.1525C24.4094 12.359 24.4698 12.5813 24.484 12.7897C24.5093 13.1634 24.3881 13.4355 24.2966 13.5918L20.8451 11.57ZM21.773 15.1156L22.5807 15.5885L24.6018 12.1367L23.7941 11.6637L21.773 15.1156ZM25.2472 14.984C25.3016 14.9038 25.4133 14.7159 25.4517 14.6517C25.4846 14.5969 25.5164 14.5436 25.54 14.5041C25.5518 14.4843 25.5615 14.4679 25.5684 14.4564C25.5718 14.4506 25.5745 14.4461 25.5763 14.443C25.5773 14.4414 25.578 14.4402 25.5785 14.4394C25.5787 14.439 25.5789 14.4387 25.5791 14.4384C25.5791 14.4383 25.5792 14.4382 25.5792 14.4382C25.5792 14.4381 25.5792 14.4381 25.5793 14.4381C25.5793 14.4381 25.5793 14.4381 25.5793 14.4381C25.5793 14.4381 25.5793 14.4381 23.8605 13.4154C22.1417 12.3928 22.1417 12.3928 22.1417 12.3928C22.1417 12.3928 22.1417 12.3928 22.1417 12.3928C22.1417 12.3928 22.1417 12.3928 22.1417 12.3929C22.1416 12.3929 22.1416 12.393 22.1416 12.393C22.1415 12.3932 22.1413 12.3935 22.1411 12.3938C22.1407 12.3946 22.14 12.3956 22.1392 12.3971C22.1374 12.4 22.1349 12.4042 22.1316 12.4097C22.1251 12.4207 22.1157 12.4365 22.1043 12.4556C22.0815 12.4938 22.051 12.5449 22.0198 12.597C21.9884 12.6495 21.9575 12.701 21.9335 12.7406C21.8911 12.8107 21.9054 12.7852 21.9353 12.7411L25.2472 14.984ZM25.8382 13.7133C25.8372 13.7199 25.8523 13.6512 25.9081 13.5256C25.9304 13.4753 25.9515 13.4332 25.9656 13.4064C25.9723 13.3935 25.9768 13.3853 25.9782 13.3829C25.9788 13.3817 25.9786 13.3821 25.9775 13.3841C25.9769 13.3851 25.9761 13.3865 25.975 13.3884C25.9745 13.3893 25.9739 13.3904 25.9732 13.3915C25.9729 13.3921 25.9725 13.3927 25.9722 13.3933C25.972 13.3936 25.9718 13.394 25.9716 13.3943C25.9715 13.3944 25.9714 13.3947 25.9713 13.3948C25.9712 13.395 25.971 13.3953 24.2432 12.388C22.5154 11.3807 22.5152 11.381 22.5151 11.3813C22.515 11.3813 22.5149 11.3816 22.5148 11.3818C22.5145 11.3821 22.5143 11.3825 22.5141 11.3829C22.5137 11.3837 22.5132 11.3845 22.5127 11.3853C22.5118 11.3869 22.5107 11.3888 22.5096 11.3907C22.5074 11.3946 22.5048 11.399 22.502 11.404C22.4963 11.414 22.4894 11.4261 22.4815 11.4404C22.4657 11.4688 22.4456 11.5057 22.4224 11.55C22.3765 11.6377 22.316 11.7587 22.2521 11.9028C22.1353 12.1658 21.9591 12.6108 21.8828 13.1176L25.8382 13.7133ZM25.2761 10.6754L24.6286 10.2848L22.5627 13.7101L23.2103 14.1006L25.2761 10.6754ZM24.6064 10.2717C24.2928 10.088 23.7603 9.87315 23.0935 9.93014C22.3448 9.99412 21.6902 10.3789 21.2224 10.9684L24.3559 13.4546C24.2109 13.6374 23.8933 13.8764 23.4341 13.9156C23.0567 13.9479 22.7661 13.8294 22.5848 13.7232L24.6064 10.2717Z" fill="#2563EB" mask="url(#path-4-inside-2_1986_11281)"/>
<path d="M29.6721 9.24286C29.8885 10.0706 29.7696 10.9331 29.3374 11.6714C28.9049 12.41 28.2106 12.9359 27.3824 13.1522C26.1328 13.56 24.8906 12.7785 24.8906 12.7785C24.8906 12.7785 24.1865 13.6854 24.8807 14.8347C25.1158 15.0656 25.669 15.6823 25.746 15.7293C26.2321 16.0265 26.8042 16.1138 27.3564 15.9747C27.9088 15.8359 28.3715 15.4886 28.6592 14.997C28.6592 14.997 32.5758 8.26732 32.6066 8.22227C33.0346 7.20749 32.3324 6.44024 31.972 6.22959L31.0375 5.68308C30.7902 5.53841 30.5191 5.46973 30.2514 5.46973C29.3568 5.48801 28.8974 6.2472 28.896 6.24942L28.24 7.31872C28.9519 7.75176 29.4604 8.43289 29.6721 9.24286Z" fill="#2563EB"/>
<path d="M30.2103 17.8942C30.6964 18.1914 32.0314 18.6474 33.102 17.1947L36.8019 10.8686C37.4047 9.73959 36.6025 8.94125 36.2422 8.73058L35.3077 8.18407C34.5647 7.74937 33.6055 8.00008 33.1704 8.74351L29.492 15.0367C28.9173 16.0189 29.2395 17.3007 30.2103 17.8942Z" fill="#2563EB"/>
<path d="M36.4704 12.9244L33.556 17.9166C32.9723 18.9171 33.3109 20.2073 34.3107 20.7924C35.924 21.6084 36.9069 20.5225 37.1903 20.0367L40.1019 15.0495C40.6765 13.8947 39.9027 13.1219 39.5424 12.9113L38.6078 12.3648C37.8648 11.9299 36.9054 12.1809 36.4704 12.9244Z" fill="#2563EB"/>
<path opacity="0.4" d="M4.29932 27.1738L5.04543 25.8816L5.86407 26.3542L5.11796 27.6465L4.29932 27.1738Z" fill="#2563EB"/>
<path opacity="0.4" d="M6.93359 22.6113L11.545 14.6244L12.3636 15.097L7.75223 23.084L6.93359 22.6113Z" fill="#2563EB"/>
<path opacity="0.4" d="M5.61328 24.8984L6.35939 23.6062L7.17803 24.0788L6.43192 25.3711L5.61328 24.8984Z" fill="#2563EB"/>
<path opacity="0.4" d="M3.18945 35.7246L3.93548 34.4325L4.75412 34.9052L4.00809 36.1973L3.18945 35.7246Z" fill="#2563EB"/>
<path opacity="0.4" d="M5.82373 31.1621L10.4351 23.1752L11.2538 23.6478L6.64237 31.6348L5.82373 31.1621Z" fill="#2563EB"/>
<path opacity="0.4" d="M4.50342 33.4492L5.24953 32.157L6.06817 32.6296L5.32206 33.9219L4.50342 33.4492Z" fill="#2563EB"/>
<path opacity="0.4" d="M33.0386 36.1787L33.7847 34.8865L34.6033 35.3591L33.8572 36.6514L33.0386 36.1787Z" fill="#2563EB"/>
<path opacity="0.4" d="M35.6729 31.6162L40.2843 23.6293L41.1029 24.1019L36.4915 32.0889L35.6729 31.6162Z" fill="#2563EB"/>
<path opacity="0.4" d="M34.3525 33.9033L35.0986 32.6112L35.9172 33.0839L35.1712 34.376L34.3525 33.9033Z" fill="#2563EB"/>
<path opacity="0.4" d="M29.6904 35.3506L34.3018 27.3636L35.1205 27.8363L30.5091 35.8232L29.6904 35.3506Z" fill="#2563EB"/>
<path opacity="0.4" d="M28.3696 37.6377L29.1157 36.3456L29.9343 36.8182L29.1883 38.1104L28.3696 37.6377Z" fill="#2563EB"/>
</svg>
