<svg width="44" height="44" viewBox="0 0 44 44" fill="none" xmlns="http://www.w3.org/2000/svg">
<g clip-path="url(#clip0_1986_11422)">
<path d="M4.92853 25.5831H2.70171C2.56774 25.5831 2.45947 25.4748 2.45947 25.3409C2.45947 25.2069 2.56774 25.0986 2.70171 25.0986H4.92844C5.06241 25.0986 5.17068 25.2069 5.17068 25.3409C5.17068 25.4749 5.06242 25.5831 4.92853 25.5831Z" fill="#2563EB" stroke="#2563EB"/>
<path d="M41.2986 26.0831H39.0718C38.6616 26.0831 38.3296 25.7508 38.3296 25.3409C38.3296 24.931 38.6616 24.5986 39.0718 24.5986H41.2986C41.7088 24.5986 42.0408 24.931 42.0408 25.3409C42.0408 25.7508 41.7088 26.0831 41.2986 26.0831Z" fill="#A8C1F7"/>
<path d="M22.0001 8.5111C21.8661 8.5111 21.7578 8.40279 21.7578 8.26886V6.04205C21.7578 5.90812 21.8661 5.7998 22.0001 5.7998C22.134 5.7998 22.2423 5.90812 22.2423 6.04205V8.26877C22.2423 8.40278 22.134 8.5111 22.0001 8.5111Z" fill="#A2BEF7" stroke="#A2BEF7"/>
<path d="M9.92848 14.0109C9.73855 14.0109 9.54863 13.9385 9.40366 13.7935L7.82928 12.2191C7.53933 11.9292 7.53933 11.4594 7.82928 11.1696C8.11923 10.8797 8.58897 10.8796 8.87884 11.1696L10.4532 12.744C10.7432 13.0339 10.7432 13.5036 10.4532 13.7935C10.3083 13.9385 10.1184 14.0109 9.92848 14.0109Z" fill="#A8C1F7"/>
<path d="M34.0719 14.011C33.882 14.011 33.692 13.9385 33.5471 13.7935C33.2571 13.5036 33.2571 13.0339 33.5471 12.744L35.1214 11.1696C35.4114 10.8797 35.8811 10.8797 36.171 11.1696C36.4609 11.4596 36.4609 11.9293 36.171 12.2192L34.5966 13.7935C34.4517 13.9385 34.2618 14.011 34.0719 14.011Z" fill="#A8C1F7"/>
<path d="M13.4651 11.2988C13.2085 11.2988 12.9591 11.1657 12.8214 10.9276L12.4502 10.2846C12.2451 9.92942 12.3669 9.47567 12.722 9.27054C13.0751 9.06541 13.5303 9.18718 13.7361 9.54236L14.1073 10.1853C14.3124 10.5405 14.1906 10.9943 13.8355 11.1994C13.7188 11.2669 13.5911 11.2988 13.4651 11.2988Z" fill="#2563EB"/>
<path d="M36.7858 17.5466C36.5292 17.5466 36.2799 17.4136 36.1421 17.1759C35.937 16.8207 36.0588 16.367 36.4139 16.1618L37.0562 15.7907C37.4099 15.5844 37.8644 15.707 38.0702 16.0618C38.2753 16.417 38.1536 16.8707 37.7984 17.0759L37.1562 17.447C37.0396 17.5147 36.9119 17.5466 36.7858 17.5466Z" fill="#2563EB"/>
<path d="M26.4193 9.59333C26.3555 9.59333 26.291 9.58499 26.2264 9.56763C25.8307 9.46141 25.5958 9.05441 25.7016 8.65867L25.8937 7.94178C25.9995 7.54604 26.4069 7.31117 26.8027 7.41696C27.1984 7.52318 27.4333 7.93018 27.3275 8.32592L27.1354 9.04281C27.0471 9.37436 26.747 9.59333 26.4193 9.59333Z" fill="#2563EB"/>
<path d="M5.51089 21.6651C5.44713 21.6651 5.38259 21.6567 5.31805 21.6394L4.60047 21.4473C4.20473 21.3415 3.96986 20.9344 4.07565 20.5383C4.18144 20.1426 4.58956 19.9081 4.98461 20.0135L5.70219 20.2056C6.09793 20.3114 6.3328 20.7185 6.22701 21.1146C6.13867 21.4461 5.83857 21.6651 5.51089 21.6651Z" fill="#2563EB"/>
<path d="M30.5353 11.2988C30.4092 11.2988 30.2816 11.2669 30.1649 11.1994C29.8097 10.9943 29.688 10.5405 29.8931 10.1853L30.2643 9.54236C30.4694 9.18718 30.9239 9.06541 31.2783 9.27054C31.6335 9.47567 31.7553 9.92942 31.5501 10.2846L31.179 10.9276C31.0413 11.1658 30.7919 11.2988 30.5353 11.2988Z" fill="#2563EB"/>
<path d="M7.21463 17.5467C7.08847 17.5467 6.96094 17.5148 6.84424 17.447L6.20203 17.0758C5.84685 16.8707 5.72508 16.4169 5.93021 16.0618C6.13534 15.7069 6.58986 15.5845 6.94427 15.7906L7.58648 16.1618C7.94166 16.3669 8.06343 16.8207 7.8583 17.1759C7.72054 17.4137 7.47115 17.5467 7.21463 17.5467Z" fill="#2563EB"/>
<path d="M17.5805 9.5935C17.2529 9.5935 16.9528 9.37462 16.8644 9.04299L16.6723 8.3261C16.5665 7.93035 16.8013 7.52335 17.1972 7.41713C17.593 7.31092 18.0003 7.54578 18.1061 7.94195L18.2982 8.65885C18.404 9.05459 18.1692 9.46159 17.7734 9.56781C17.7088 9.58517 17.6443 9.5935 17.5805 9.5935Z" fill="#2563EB"/>
<path d="M38.489 21.6654C38.1614 21.6654 37.8614 21.4465 37.7729 21.1148C37.6671 20.7187 37.9019 20.3117 38.2977 20.2059L39.0153 20.0138C39.4125 19.9076 39.8185 20.1425 39.9243 20.5386C40.0301 20.9348 39.7953 21.3418 39.3995 21.4476L38.6819 21.6397C38.6173 21.657 38.5528 21.6654 38.489 21.6654Z" fill="#2563EB"/>
<path d="M27.6702 20.8875H16.3301C15.4128 20.8875 14.715 20.0637 14.8658 19.1589L15.8554 13.2209C15.9747 12.5051 16.5941 11.9805 17.3197 11.9805H26.6806C27.4063 11.9805 28.0257 12.5051 28.1449 13.2209L29.1346 19.1589C29.2854 20.0637 28.5876 20.8875 27.6702 20.8875Z" fill="#A8C1F7"/>
<path d="M22.6702 19.403C19.4596 19.403 17.0173 16.52 17.5451 13.3531L17.7739 11.9805H17.3197C16.5941 11.9805 15.9747 12.5051 15.8554 13.2209L14.8658 19.1589C14.715 20.0637 15.4128 20.8875 16.3301 20.8875H27.6703C28.5038 20.8875 29.1562 20.2061 29.1552 19.403H22.6702Z" fill="#2563EB"/>
<path d="M20.2474 29.7937H8.90722C7.98992 29.7937 7.29211 28.97 7.44293 28.0652L8.43259 22.1271C8.55187 21.4114 9.17122 20.8867 9.89688 20.8867H19.2578C19.9834 20.8867 20.6028 21.4114 20.7221 22.1271L21.7117 28.0652C21.8626 28.97 21.1647 29.7937 20.2474 29.7937Z" fill="#A8C1F7"/>
<path d="M15.2474 28.3092C12.0368 28.3092 9.59455 25.4263 10.1224 22.2593L10.3511 20.8867H9.89696C9.17131 20.8867 8.55195 21.4114 8.43267 22.1271L7.44293 28.0652C7.29211 28.9701 7.98992 29.7938 8.90722 29.7938H20.2474C21.081 29.7938 21.7329 29.1124 21.7319 28.3093H15.2474V28.3092Z" fill="#2563EB"/>
<path d="M35.0927 29.7937H23.7524C22.8351 29.7937 22.1373 28.97 22.2881 28.0652L23.2778 22.1271C23.3971 21.4114 24.0164 20.8867 24.7421 20.8867H34.103C34.8287 20.8867 35.448 21.4114 35.5673 22.1271L36.557 28.0652C36.7078 28.97 36.01 29.7937 35.0927 29.7937Z" fill="#A8C1F7"/>
<path d="M30.0926 28.3092C26.8819 28.3092 24.4397 25.4263 24.9675 22.2593L25.1963 20.8867H24.7421C24.0164 20.8867 23.3971 21.4114 23.2778 22.1271L22.2881 28.0652C22.1373 28.97 22.8351 29.7937 23.7524 29.7937H35.0927C35.9262 29.7937 36.5781 29.1123 36.5771 28.3092H30.0926Z" fill="#2563EB"/>
<path d="M27.6702 38.7009H16.3301C15.4128 38.7009 14.715 37.8772 14.8658 36.9724L15.8554 31.0344C15.9747 30.3186 16.5941 29.7939 17.3197 29.7939H26.6806C27.4063 29.7939 28.0257 30.3186 28.1449 31.0344L29.1346 36.9724C29.2854 37.8772 28.5876 38.7009 27.6702 38.7009Z" fill="#A8C1F7"/>
<path d="M22.6702 37.2165C19.4596 37.2165 17.0173 34.3335 17.5451 31.1665L17.7739 29.7939H17.3197C16.5941 29.7939 15.9747 30.3186 15.8554 31.0344L14.8658 36.9724C14.715 37.8772 15.4128 38.7009 16.3301 38.7009H27.6703C28.5038 38.7009 29.1558 38.0195 29.1549 37.2165H22.6702Z" fill="#2563EB"/>
<path d="M42.515 38.7009H31.1748C30.2575 38.7009 29.5597 37.8772 29.7105 36.9724L30.7002 31.0344C30.8194 30.3186 31.4388 29.7939 32.1645 29.7939H41.5254C42.251 29.7939 42.8704 30.3186 42.9897 31.0344L43.9793 36.9724C44.1301 37.8772 43.4323 38.7009 42.515 38.7009Z" fill="#A8C1F7"/>
<path d="M37.5149 37.2165C34.3043 37.2165 31.862 34.3335 32.3899 31.1665L32.6186 29.7939H32.1645C31.4388 29.7939 30.8194 30.3186 30.7002 31.0344L29.7105 36.9724C29.5597 37.8772 30.2575 38.7009 31.1748 38.7009H42.515C43.3485 38.7009 44.0005 38.0195 43.9996 37.2165H37.5149Z" fill="#2563EB"/>
<path d="M12.8251 38.7009H1.48486C0.56756 38.7009 -0.130252 37.8772 0.0205678 36.9724L1.01022 31.0344C1.12951 30.3186 1.74886 29.7939 2.47451 29.7939H11.8354C12.5611 29.7939 13.1804 30.3186 13.2997 31.0344L14.2894 36.9724C14.4402 37.8772 13.7424 38.7009 12.8251 38.7009Z" fill="#A8C1F7"/>
<path d="M7.82507 37.2165C4.61444 37.2165 2.17218 34.3335 2.70001 31.1665L2.92878 29.7939H2.4746C1.74894 29.7939 1.12959 30.3186 1.01031 31.0344L0.0205678 36.9724C-0.130252 37.8772 0.56756 38.7009 1.48486 38.7009H12.8251C13.6586 38.7009 14.3107 38.0195 14.3097 37.2165H7.82507Z" fill="#2563EB"/>
</g>
<defs>
<clipPath id="clip0_1986_11422">
<rect width="44" height="44" fill="white"/>
</clipPath>
</defs>
</svg>
