<svg width="44" height="44" viewBox="0 0 44 44" fill="none" xmlns="http://www.w3.org/2000/svg">
<path opacity="0.4" d="M38 12.8337V31.167C38 33.8403 37.3316 35.9918 35.9565 37.4726C34.5877 38.9467 32.4464 39.8337 29.3333 39.8337H14.6667C11.5536 39.8337 9.41232 38.9467 8.04348 37.4726C6.66841 35.9918 6 33.8403 6 31.167V12.8337C6 10.1603 6.66841 8.00889 8.04348 6.52805C9.41232 5.05392 11.5536 4.16699 14.6667 4.16699H29.3333C32.4464 4.16699 34.5877 5.05392 35.9565 6.52805C37.3316 8.00889 38 10.1603 38 12.8337Z" fill="#2563EB" stroke="#2563EB" stroke-opacity="0.2"/>
<path d="M16.7844 18.3878L16.7844 18.3878L16.7815 18.3906C16.5223 18.6335 16.0834 18.4571 16.0834 18.077V4.16699H27.9167V18.077C27.9167 18.4363 27.4888 18.6334 27.2138 18.3861L22.9646 14.4664C22.4242 13.9572 21.5759 13.9572 21.0355 14.4664L16.7844 18.3878Z" fill="#2563EB" stroke="#2563EB"/>
<path d="M32.0833 27.042H24.2916C23.54 27.042 22.9166 26.4187 22.9166 25.667C22.9166 24.9153 23.54 24.292 24.2916 24.292H32.0833C32.835 24.292 33.4583 24.9153 33.4583 25.667C33.4583 26.4187 32.835 27.042 32.0833 27.042Z" fill="#2563EB"/>
<path d="M32.0833 34.375H16.5C15.7483 34.375 15.125 33.7517 15.125 33C15.125 32.2483 15.7483 31.625 16.5 31.625H32.0833C32.835 31.625 33.4583 32.2483 33.4583 33C33.4583 33.7517 32.835 34.375 32.0833 34.375Z" fill="#2563EB"/>
</svg>
