<svg width="22" height="22" viewBox="0 0 22 22" fill="none" xmlns="http://www.w3.org/2000/svg">
<path d="M11 17.1875C10.6242 17.1875 10.3125 16.8758 10.3125 16.5V13.75C10.3125 13.3742 10.6242 13.0625 11 13.0625C11.3758 13.0625 11.6875 13.3742 11.6875 13.75V16.5C11.6875 16.8758 11.3758 17.1875 11 17.1875Z" fill="#838895"/>
<path d="M16.1333 20.6799H5.86666C4.19833 20.6799 2.67666 19.3966 2.40166 17.7558L1.18249 10.4499C0.980828 9.31325 1.53999 7.85575 2.44749 7.13159L8.8 2.04408C10.0283 1.05408 11.9625 1.06325 13.2 2.05325L19.5525 7.13159C20.4508 7.85575 21.0008 9.31325 20.8175 10.4499L19.5983 17.7466C19.3233 19.3691 17.765 20.6799 16.1333 20.6799ZM10.9908 2.68575C10.505 2.68575 10.0192 2.83242 9.66166 3.11659L3.30916 8.21325C2.79583 8.62575 2.42916 9.57908 2.53916 10.2299L3.75833 17.5266C3.92333 18.4891 4.88583 19.3049 5.86666 19.3049H16.1333C17.1142 19.3049 18.0767 18.4891 18.2417 17.5174L19.4608 10.2208C19.5617 9.57908 19.195 8.60742 18.6908 8.20408L12.3383 3.12575C11.9717 2.83242 11.4767 2.68575 10.9908 2.68575Z" fill="#838895"/>
</svg>
