<svg width="22" height="22" viewBox="0 0 22 22" xmlns="http://www.w3.org/2000/svg">
    <g fill="#292D32" fill-rule="evenodd">
        <path d="M7.94 14.06A4.305 4.305 0 0 1 6.67 11c0-2.39 1.94-4.33 4.33-4.33 1.15 0 2.24.45 3.06 1.27a.75.75 0 0 1 0 1.06L9 14.06c-.15.15-.34.22-.53.22s-.38-.07-.53-.22zM8.17 11c0 .5.13.98.37 1.4l3.86-3.86A2.834 2.834 0 0 0 8.17 11z"/>
        <path d="M4.11 17.33C3.04 16.42 2.08 15.3 1.26 14 .2 12.35.2 9.66 1.26 8 3.7 4.18 7.25 1.98 11 1.98c2.2 0 4.37.76 6.27 2.19a.75.75 0 0 1-.9 1.2c-1.64-1.24-3.5-1.89-5.37-1.89-3.23 0-6.32 1.94-8.48 5.33-.75 1.17-.75 3.21 0 4.38s1.61 2.18 2.56 3c.31.27.35.74.08 1.06-.14.17-.35.26-.56.26-.17 0-.35-.06-.49-.18zM7.12 19.22a.75.75 0 0 1-.4-.98c.16-.38.6-.56.98-.4 1.06.45 2.17.68 3.29.68 3.23 0 6.32-1.94 8.48-5.33.75-1.17.75-3.21 0-4.38-.31-.49-.65-.96-1.01-1.4a.76.76 0 0 1 .11-1.06.75.75 0 0 1 1.06.11c.39.48.77 1 1.11 1.54 1.06 1.65 1.06 4.34 0 6-2.44 3.82-5.99 6.02-9.74 6.02-1.33 0-2.63-.27-3.88-.8z" fill-rule="nonzero"/>
        <path d="M10.95 14.66c-.08-.41.19-.8.6-.87 1.1-.2 2.02-1.12 2.22-2.22.08-.41.47-.67.88-.6.41.08.68.47.6.88-.32 1.73-1.7 3.1-3.42 3.42-.05-.01-.09 0-.14 0-.35 0-.67-.25-.74-.61zM.47 21.53a.754.754 0 0 1 0-1.06L7.94 13c.29-.29.77-.29 1.06 0 .29.29.29.77 0 1.06l-7.47 7.47c-.15.15-.34.22-.53.22s-.38-.07-.53-.22zM13 9a.754.754 0 0 1 0-1.06L20.47.47c.29-.29.77-.29 1.06 0 .29.29.29.77 0 1.06L14.06 9c-.15.15-.34.22-.53.22S13.15 9.15 13 9z" fill-rule="nonzero"/>
    </g>
</svg>
