<svg width="45" height="44" viewBox="0 0 45 44" fill="none" xmlns="http://www.w3.org/2000/svg">
<path opacity="0.4" d="M9.59899 34.8573L9.59802 34.8578C8.1888 35.6656 7.01734 35.6742 6.22939 35.2167C5.4413 34.7591 4.86499 33.7354 4.86499 32.1016V14.2633C4.86499 13.7956 5.03565 13.2356 5.33802 12.7157C5.64017 12.1963 6.04585 11.7651 6.46473 11.5257L6.46516 11.5255L14.4013 6.98009C14.6568 6.83744 14.9918 6.72977 15.36 6.67116V31.9331C14.8383 31.9998 14.324 32.1517 13.9028 32.4032L9.59899 34.8573Z" fill="#2563EB" stroke="#2563EB" stroke-opacity="0.2"/>
<path d="M27.0282 11.7255C27.4685 11.9375 27.9792 12.057 28.5051 12.0942V37.3628C28.1132 37.328 27.7556 37.2369 27.4654 37.0978L17.8441 32.2779L17.8441 32.2779L17.837 32.2745C17.3967 32.0625 16.886 31.9429 16.3601 31.9057V6.63715C16.752 6.67191 17.1096 6.76308 17.3998 6.90219L27.0212 11.722L27.0211 11.7221L27.0282 11.7255Z" fill="#2563EB" stroke="#2563EB"/>
<path opacity="0.4" d="M38.4004 32.4743L38.4 32.4745L30.4658 37.0188C30.4652 37.0192 30.4645 37.0195 30.4639 37.0199C30.2084 37.1625 29.8733 37.2702 29.5051 37.3288V12.0669C30.0268 12.0002 30.5412 11.8483 30.9624 11.5968L35.2661 9.14272L35.2671 9.14217C36.6763 8.33444 37.8478 8.32575 38.6357 8.78326C39.4238 9.24086 40.0001 10.2646 40.0001 11.8984V29.7367C40.0001 30.2044 39.8295 30.7644 39.5271 31.2843C39.2249 31.8037 38.8193 32.2349 38.4004 32.4743Z" fill="#2563EB" stroke="#2563EB" stroke-opacity="0.2"/>
</svg>
