<svg width="16" height="16" viewBox="0 0 16 16" fill="none" xmlns="http://www.w3.org/2000/svg">
<path d="M10.433 14.3049C10.1464 14.3049 9.8597 14.2475 9.62637 14.1391L6.12637 12.462C5.92637 12.3663 5.53303 12.3727 5.3397 12.4811L3.76637 13.342C3.08637 13.7119 2.38637 13.7629 1.8597 13.4632C1.32637 13.1698 1.02637 12.5704 1.02637 11.8179V5.61968C1.02637 5.03939 1.42637 4.38258 1.95303 4.09562L4.8397 2.51417C5.32637 2.24635 6.06637 2.22722 6.56637 2.46954L10.0664 4.14664C10.2664 4.24229 10.653 4.22954 10.853 4.12751L12.4197 3.27302C13.0997 2.90316 13.7997 2.85215 14.3264 3.15186C14.8597 3.44519 15.1597 4.04461 15.1597 4.79707V11.0017C15.1597 11.582 14.7597 12.2388 14.233 12.5258L11.3464 14.1072C11.093 14.2348 10.7597 14.3049 10.433 14.3049ZM5.7597 11.4417C6.04637 11.4417 6.33303 11.4991 6.56637 11.6075L10.0664 13.2846C10.2664 13.3803 10.653 13.3675 10.853 13.2655L13.7397 11.684C13.953 11.5692 14.1597 11.2249 14.1597 10.9953V4.7907C14.1597 4.38896 14.0397 4.08925 13.8197 3.97446C13.6064 3.85968 13.273 3.90432 12.913 4.102L11.3464 4.95649C10.8597 5.22432 10.1197 5.24345 9.6197 5.00113L6.1197 3.32403C5.9197 3.22838 5.53303 3.24113 5.33303 3.34316L2.44637 4.92461C2.23303 5.03939 2.02637 5.38374 2.02637 5.61968V11.8243C2.02637 12.2261 2.14637 12.5258 2.3597 12.6406C2.57303 12.7617 2.90637 12.7107 3.27303 12.513L4.8397 11.6585C5.0997 11.5119 5.43303 11.4417 5.7597 11.4417Z" fill="white"/>
<path d="M5.70703 11.971C5.4337 11.971 5.20703 11.7542 5.20703 11.4927V3.20287C5.20703 2.94142 5.4337 2.72461 5.70703 2.72461C5.98036 2.72461 6.20703 2.94142 6.20703 3.20287V11.4927C6.20703 11.7542 5.98036 11.971 5.70703 11.971Z" fill="white"/>
<path d="M10.4863 13.884C10.213 13.884 9.98633 13.6672 9.98633 13.4058V4.87359C9.98633 4.61214 10.213 4.39532 10.4863 4.39532C10.7597 4.39532 10.9863 4.61214 10.9863 4.87359V13.4058C10.9863 13.6672 10.7597 13.884 10.4863 13.884Z" fill="white"/>
</svg>
