<svg width="44" height="44" viewBox="0 0 44 44" fill="none" xmlns="http://www.w3.org/2000/svg">
<path opacity="0.4" d="M26.5519 35.1728L26.5507 35.1744L23.8007 38.8227L23.8 38.8237C23.2755 39.5229 22.6183 39.8337 22 39.8337C21.3816 39.8337 20.7244 39.5229 20.2 38.8237L20.1992 38.8227L17.4516 35.1775C17.2447 34.8947 16.9358 34.6667 16.6227 34.5102C16.3074 34.3525 15.9372 34.242 15.5833 34.242H12.8333C8.04748 34.242 4.16663 30.3756 4.16663 25.612V23.7787V12.8153C4.16663 8.03277 8.04813 4.16699 12.8333 4.16699H31.1666C35.9518 4.16699 39.8333 8.03277 39.8333 12.8153V25.612C39.8333 30.3756 35.9524 34.242 31.1666 34.242H28.4166C27.6897 34.242 26.9933 34.5919 26.5519 35.1728Z" fill="#2563EB" stroke="#2563EB" stroke-opacity="0.2"/>
<path d="M31.1667 15.542H12.8334C12.3578 15.542 11.9584 15.1425 11.9584 14.667C11.9584 14.1915 12.3578 13.792 12.8334 13.792H31.1667C31.6422 13.792 32.0417 14.1915 32.0417 14.667C32.0417 15.1425 31.6422 15.542 31.1667 15.542Z" fill="#2563EB" stroke="#2563EB"/>
<path d="M23.8334 24.708H12.8334C12.3578 24.708 11.9584 24.3085 11.9584 23.833C11.9584 23.3575 12.3578 22.958 12.8334 22.958H23.8334C24.3089 22.958 24.7084 23.3575 24.7084 23.833C24.7084 24.3085 24.3089 24.708 23.8334 24.708Z" fill="#2563EB" stroke="#2563EB"/>
</svg>
