<svg width="45" height="44" viewBox="0 0 45 44" fill="none" xmlns="http://www.w3.org/2000/svg">
<path opacity="0.4" d="M21.3834 35.145V34.6881L20.9283 34.647C13.8676 34.01 8.33008 28.0811 8.33008 20.8817V17.985C8.33008 17.5461 8.67455 17.2017 9.11341 17.2017C9.55227 17.2017 9.89674 17.5461 9.89674 17.985V20.9C9.89674 27.6661 15.4006 33.17 22.1667 33.17C28.9329 33.17 34.4367 27.6661 34.4367 20.9V18.0033C34.4367 17.5645 34.7812 17.22 35.2201 17.22C35.6363 17.22 35.989 17.5617 36.0034 17.9923V20.8817C36.0034 28.0817 30.4473 34.0277 23.4063 34.6469L22.9501 34.687V35.145V39.05C22.9501 39.4888 22.6056 39.8333 22.1667 39.8333C21.7279 39.8333 21.3834 39.4888 21.3834 39.05V35.145Z" fill="#2563EB" stroke="#2563EB" stroke-opacity="0.2"/>
<path d="M25.0513 16.5384L25.0513 16.5384L25.0526 16.5334C25.2639 15.7145 24.7944 14.8463 23.966 14.6242C22.7995 14.3078 21.5735 14.3076 20.4069 14.6235C19.5788 14.8391 19.0604 15.6961 19.3012 16.5406C19.5186 17.3672 20.3576 17.8841 21.2205 17.6414L21.2209 17.6413C21.8471 17.4647 22.5048 17.4647 23.1311 17.6413L23.1497 17.6466L23.1688 17.6504C23.1728 17.6512 23.1771 17.652 23.1814 17.6529C23.2653 17.6698 23.3995 17.6967 23.5418 17.6967C24.2409 17.6967 24.8632 17.2369 25.0513 16.5384ZM26.0083 13.0273L26.0096 13.0239C26.3098 12.2051 25.8702 11.3188 25.0706 11.0256L25.0697 11.0253C23.2011 10.3441 21.1389 10.3433 19.2699 11.0231C18.4502 11.3009 18.0287 12.2184 18.324 13.0239C18.6196 13.8299 19.5281 14.2608 20.3406 13.9629L20.3426 13.9621C21.5136 13.5272 22.82 13.5272 23.991 13.9621L24.0092 13.9689L24.0278 13.9742C24.1916 14.021 24.3484 14.0484 24.5318 14.0484C25.1704 14.0484 25.7667 13.6715 26.0083 13.0273ZM14.5635 11.7701C14.5635 7.57289 17.9696 4.16675 22.1668 4.16675C26.364 4.16675 29.7701 7.57289 29.7701 11.7701V21.1567C29.7701 25.3539 26.364 28.7601 22.1668 28.7601C17.9696 28.7601 14.5635 25.3539 14.5635 21.1567V11.7701Z" fill="#2563EB" stroke="#2563EB"/>
</svg>
