<svg width="141" height="140" viewBox="0 0 141 140" fill="none" xmlns="http://www.w3.org/2000/svg">
<g clip-path="url(#clip0_1884_112808)">
<rect x="6.43652" y="70.0322" width="91.9688" height="91.9688" rx="13.3662" transform="rotate(-45 6.43652 70.0322)" fill="#D6E6FF"/>
<mask id="mask0_1884_112808" style="mask-type:alpha" maskUnits="userSpaceOnUse" x="11" y="10" width="120" height="120">
<rect x="6.43652" y="70.0323" width="91.9688" height="91.9688" rx="13.3662" transform="rotate(-45 6.43652 70.0323)" fill="white"/>
</mask>
<g mask="url(#mask0_1884_112808)">
<ellipse cx="39.3728" cy="62.6376" rx="53.2038" ry="65.238" fill="#E3EEFE"/>
</g>
<rect x="122.47" y="20" width="14.8066" height="14.8066" rx="3.40821" transform="rotate(45 122.47 20)" fill="#E3EEFF"/>
<g clip-path="url(#clip1_1884_112808)">
<path d="M113.954 110.954C111.226 113.682 106.803 113.682 104.075 110.954L81.2885 88.1676C78.5604 85.4396 78.5604 81.0165 81.2885 78.2885C84.0165 75.5604 88.4396 75.5604 91.1676 78.2885L113.954 101.075C116.682 103.803 116.682 108.226 113.954 110.954Z" fill="#97A8E7"/>
<path d="M82.8294 94.9225C80.9281 93.0213 80.9281 89.9387 82.8294 88.0376L91.0376 79.8294C92.9387 77.9283 96.0213 77.9283 97.9225 79.8294C99.8236 81.7305 99.8236 84.813 97.9225 86.7142L89.7142 94.9225C87.813 96.8236 84.7305 96.8236 82.8294 94.9225Z" fill="#C1CBF1"/>
<path d="M66.7624 95.5249C84.3043 95.5249 98.5249 81.3043 98.5249 63.7624C98.5249 46.2205 84.3043 32 66.7624 32C49.2205 32 35 46.2205 35 63.7624C35 81.3043 49.2205 95.5249 66.7624 95.5249Z" fill="#6D85DE"/>
<path d="M66.7625 87.376C79.8039 87.376 90.376 76.8039 90.376 63.7625C90.376 50.7211 79.8039 40.1489 66.7625 40.1489C53.7211 40.1489 43.1489 50.7211 43.1489 63.7625C43.1489 76.8039 53.7211 87.376 66.7625 87.376Z" fill="#C1CBF1"/>
<path d="M66.7624 40.1489C65.6566 40.1489 64.5688 40.2271 63.5028 40.375C74.9861 41.9676 83.8567 51.8479 83.8567 63.7625C83.8567 75.6771 74.9861 85.5572 63.5028 87.15C64.5686 87.2977 65.6564 87.376 66.7624 87.376C79.7829 87.376 90.376 76.7831 90.376 63.7625C90.376 50.7419 79.7829 40.1489 66.7624 40.1489Z" fill="#ADB9E9"/>
<path d="M55.6629 67.1452C57.5311 67.1452 59.0456 65.6307 59.0456 63.7625C59.0456 61.8942 57.5311 60.3798 55.6629 60.3798C53.7946 60.3798 52.2802 61.8942 52.2802 63.7625C52.2802 65.6307 53.7946 67.1452 55.6629 67.1452Z" fill="white"/>
<path d="M66.7623 67.1452C68.6306 67.1452 70.145 65.6307 70.145 63.7625C70.145 61.8942 68.6306 60.3798 66.7623 60.3798C64.8941 60.3798 63.3796 61.8942 63.3796 63.7625C63.3796 65.6307 64.8941 67.1452 66.7623 67.1452Z" fill="white"/>
<path d="M77.8617 67.1452C79.7299 67.1452 81.2444 65.6307 81.2444 63.7625C81.2444 61.8942 79.7299 60.3798 77.8617 60.3798C75.9935 60.3798 74.479 61.8942 74.479 63.7625C74.479 65.6307 75.9935 67.1452 77.8617 67.1452Z" fill="white"/>
</g>
<line x1="22.8224" y1="35.7092" x2="28.6324" y2="37.6882" stroke="#C1CBF1" stroke-width="2.81515" stroke-linecap="round"/>
<line x1="36.5571" y1="23.0987" x2="37.3778" y2="29.1254" stroke="#C1CBF1" stroke-width="2.81515" stroke-linecap="round"/>
<line x1="24.6717" y1="25.6319" x2="32.412" y2="33.7271" stroke="#C1CBF1" stroke-width="2.81515" stroke-linecap="round"/>
<rect x="111.745" y="12" width="8.83147" height="8.83147" rx="2" transform="rotate(45 111.745 12)" fill="#E3EEFF"/>
<rect x="40.9238" y="112" width="8.37756" height="8.37756" rx="1" transform="rotate(45 40.9238 112)" fill="#E3EEFF"/>
</g>
<defs>
<clipPath id="clip0_1884_112808">
<rect width="130" height="130" fill="white" transform="translate(6 5)"/>
</clipPath>
<clipPath id="clip1_1884_112808">
<rect width="81" height="81" fill="white" transform="translate(35 32)"/>
</clipPath>
</defs>
</svg>
