<svg width="44" height="49" viewBox="0 0 44 49" fill="none" xmlns="http://www.w3.org/2000/svg">
<path opacity="0.4" fill-rule="evenodd" clip-rule="evenodd" d="M27.2334 40H16.4334C7.43337 40 3.83337 36.4 3.83337 27.4V20.75L39.8334 20.75V27.4C39.8334 36.4 36.2334 40 27.2334 40ZM39.8334 19.25V16.6C39.8334 7.6 36.2334 4 27.2334 4H16.4334C7.43337 4 3.83337 7.6 3.83337 16.6V19.25L39.8334 19.25Z" fill="#2563EB"/>
<path d="M18.8334 12L33.8334 12" stroke="#2563EB" stroke-width="2" stroke-linecap="round" stroke-linejoin="round"/>
<path d="M22 47.6663C27.0627 47.6663 31.1667 43.5623 31.1667 38.4997C31.1667 33.4371 27.0627 29.333 22 29.333C16.9374 29.333 12.8334 33.4371 12.8334 38.4997C12.8334 43.5623 16.9374 47.6663 22 47.6663Z" fill="#2563EB" stroke="#2563EB" stroke-width="1.5" stroke-miterlimit="10" stroke-linecap="round" stroke-linejoin="round"/>
<path d="M22.4584 36.208V37.913C22.4584 38.5547 22.1284 39.1597 21.5601 39.4897L20.1667 40.333" stroke="white" stroke-width="1.5" stroke-miterlimit="10" stroke-linecap="round" stroke-linejoin="round"/>
<circle cx="11.8334" cy="12" r="3" fill="#2563EB"/>
</svg>
