<svg width="21" height="20" viewBox="0 0 21 20" fill="none" xmlns="http://www.w3.org/2000/svg">
<path d="M14.6667 7.5C14.6667 10.725 11.8667 13.3333 8.41675 13.3333L7.64175 14.2667L7.18342 14.8167C6.79175 15.2834 6.04174 15.1833 5.78341 14.625L4.66675 12.1667C3.15008 11.1 2.16675 9.40834 2.16675 7.5C2.16675 4.27501 4.96675 1.66667 8.41675 1.66667C10.9334 1.66667 13.1084 3.05834 14.0834 5.05834C14.4584 5.80001 14.6667 6.62501 14.6667 7.5Z" stroke="#213992" stroke-width="1.25" stroke-linecap="round" stroke-linejoin="round"/>
<path d="M18.8333 10.7166C18.8333 12.625 17.8499 14.3167 16.3333 15.3833L15.2166 17.8416C14.9583 18.4 14.2083 18.5083 13.8166 18.0333L12.5833 16.55C10.5666 16.55 8.7666 15.6583 7.6416 14.2667L8.4166 13.3333C11.8666 13.3333 14.6666 10.725 14.6666 7.49999C14.6666 6.62499 14.4583 5.8 14.0833 5.05833C16.8083 5.68333 18.8333 7.98332 18.8333 10.7166Z" stroke="#213992" stroke-width="1.25" stroke-linecap="round" stroke-linejoin="round"/>
<path d="M6.33325 7.5H10.4999" stroke="#213992" stroke-width="1.25" stroke-linecap="round" stroke-linejoin="round"/>
</svg>
