<svg width="44" height="44" viewBox="0 0 44 44" fill="none" xmlns="http://www.w3.org/2000/svg">
<path opacity="0.4" d="M23.8333 33.2884H23.6822L23.5564 33.3721L15.398 38.7988L15.3976 38.7991C14.5177 39.3857 13.3333 38.7581 13.3333 37.6934V33.7884V33.2884H12.8333C10.1969 33.2884 8.03879 32.4118 6.54101 30.914C5.04324 29.4162 4.16663 27.2581 4.16663 24.6217V13.6217C4.16663 10.9854 5.04324 8.82724 6.54101 7.32946C8.03879 5.83169 10.1969 4.95508 12.8333 4.95508H31.1666C33.803 4.95508 35.9611 5.83169 37.4589 7.32946C38.9567 8.82724 39.8333 10.9854 39.8333 13.6217V24.6217C39.8333 27.2581 38.9567 29.4162 37.4589 30.914C35.9611 32.4118 33.803 33.2884 31.1666 33.2884H23.8333Z" fill="#2563EB" stroke="#2563EB" stroke-opacity="0.2"/>
<path d="M21.9999 21.7012C21.5244 21.7012 21.1249 21.3017 21.1249 20.8262V20.4412C21.1249 18.6038 22.4518 17.6917 23.046 17.2832L23.0516 17.2793C23.4038 17.0412 23.6875 16.8091 23.8797 16.5413C24.0876 16.2516 24.1682 15.9495 24.1682 15.6196C24.1682 14.4268 23.1928 13.4512 21.9999 13.4512C20.8071 13.4512 19.8317 14.4268 19.8317 15.6196C19.8317 16.0951 19.4322 16.4946 18.9567 16.4946C18.4811 16.4946 18.0817 16.0951 18.0817 15.6196C18.0817 13.4574 19.8378 11.7012 21.9999 11.7012C24.1621 11.7012 25.9182 13.4574 25.9182 15.6196C25.9182 17.4268 24.5992 18.3396 24.0311 18.7245C23.662 18.9707 23.3663 19.2082 23.1678 19.4856C22.9523 19.7866 22.8749 20.0995 22.8749 20.4412V20.8262C22.8749 21.3157 22.4798 21.7012 21.9999 21.7012Z" fill="#2563EB" stroke="#2563EB"/>
<path d="M22 26.7666C21.23 26.7666 20.625 26.1433 20.625 25.3916C20.625 24.6399 21.2483 24.0166 22 24.0166C22.7517 24.0166 23.375 24.6399 23.375 25.3916C23.375 26.1433 22.77 26.7666 22 26.7666Z" fill="#2563EB"/>
</svg>
