<svg width="30" height="30" viewBox="0 0 30 30" fill="none" xmlns="http://www.w3.org/2000/svg">
<path d="M27.4016 0H22.5591C22.3398 3.26743e-09 22.1295 0.087106 21.9744 0.242156C21.8194 0.397206 21.7323 0.607498 21.7323 0.826772C21.7323 1.04605 21.8194 1.25634 21.9744 1.41139C22.1295 1.56644 22.3398 1.65354 22.5591 1.65354H27.4016C27.6522 1.65354 27.8925 1.75309 28.0697 1.93029C28.2469 2.10749 28.3465 2.34783 28.3465 2.59843V7.44094C28.3465 7.66022 28.4336 7.87051 28.5886 8.02556C28.7437 8.18061 28.954 8.26772 29.1732 8.26772C29.3925 8.26772 29.6028 8.18061 29.7578 8.02556C29.9129 7.87051 30 7.66022 30 7.44094V2.59843C29.9992 1.90952 29.7252 1.24905 29.2381 0.761924C28.7509 0.274794 28.0905 0.000781516 27.4016 0Z" fill="white"/>
<path d="M0.826772 8.26772C1.04605 8.26772 1.25634 8.18061 1.41139 8.02556C1.56644 7.87051 1.65354 7.66022 1.65354 7.44094V2.59843C1.65354 2.34783 1.75309 2.10749 1.93029 1.93029C2.10749 1.75309 2.34783 1.65354 2.59843 1.65354H7.44094C7.66022 1.65354 7.87051 1.56644 8.02556 1.41139C8.18061 1.25634 8.26772 1.04605 8.26772 0.826772C8.26772 0.607498 8.18061 0.397206 8.02556 0.242156C7.87051 0.087106 7.66022 3.26743e-09 7.44094 0H2.59843C1.90952 0.000781516 1.24905 0.274794 0.761924 0.761924C0.274794 1.24905 0.000781516 1.90952 0 2.59843V7.44094C0 7.66022 0.087106 7.87051 0.242156 8.02556C0.397206 8.18061 0.607498 8.26772 0.826772 8.26772Z" fill="white"/>
<path d="M7.44094 28.3465H2.59843C2.34783 28.3465 2.10749 28.2469 1.93029 28.0697C1.75309 27.8925 1.65354 27.6522 1.65354 27.4016V22.5591C1.65354 22.3398 1.56644 22.1295 1.41139 21.9745C1.25634 21.8194 1.04605 21.7323 0.826772 21.7323C0.607498 21.7323 0.397206 21.8194 0.242156 21.9745C0.087106 22.1295 0 22.3398 0 22.5591V27.4016C0.000781516 28.0905 0.274794 28.751 0.761924 29.2381C1.24905 29.7252 1.90952 29.9992 2.59843 30H7.44094C7.66022 30 7.87051 29.9129 8.02556 29.7579C8.18061 29.6028 8.26772 29.3925 8.26772 29.1732C8.26772 28.954 8.18061 28.7437 8.02556 28.5886C7.87051 28.4336 7.66022 28.3465 7.44094 28.3465Z" fill="white"/>
<path d="M29.1732 21.7323C28.954 21.7323 28.7437 21.8194 28.5886 21.9745C28.4336 22.1295 28.3465 22.3398 28.3465 22.5591V27.4016C28.3465 27.6522 28.2469 27.8925 28.0697 28.0697C27.8925 28.2469 27.6522 28.3465 27.4016 28.3465H22.5591C22.3398 28.3465 22.1295 28.4336 21.9744 28.5886C21.8194 28.7437 21.7323 28.954 21.7323 29.1732C21.7323 29.3925 21.8194 29.6028 21.9744 29.7579C22.1295 29.9129 22.3398 30 22.5591 30H27.4016C28.0905 29.9992 28.7509 29.7252 29.2381 29.2381C29.7252 28.751 29.9992 28.0905 30 27.4016V22.5591C30 22.3398 29.9129 22.1295 29.7578 21.9745C29.6028 21.8194 29.3925 21.7323 29.1732 21.7323Z" fill="white"/>
<path d="M11.3386 3.77954H6.37795C5.68905 3.78032 5.02858 4.05434 4.54145 4.54147C4.05432 5.0286 3.78031 5.68906 3.77953 6.37797V11.3386C3.78031 12.0275 4.05432 12.688 4.54145 13.1751C5.02858 13.6622 5.68905 13.9362 6.37795 13.937H11.3386C12.0275 13.9362 12.688 13.6622 13.1751 13.1751C13.6622 12.688 13.9362 12.0275 13.937 11.3386V6.37797C13.9362 5.68906 13.6622 5.0286 13.1751 4.54147C12.688 4.05434 12.0275 3.78032 11.3386 3.77954ZM12.2835 11.3386C12.2835 11.5892 12.1839 11.8295 12.0067 12.0067C11.8295 12.1839 11.5892 12.2835 11.3386 12.2835H6.37795C6.12735 12.2835 5.88702 12.1839 5.70982 12.0067C5.53262 11.8295 5.43307 11.5892 5.43307 11.3386V6.37797C5.43307 6.12737 5.53262 5.88703 5.70982 5.70983C5.88702 5.53263 6.12735 5.43308 6.37795 5.43308H11.3386C11.5892 5.43308 11.8295 5.53263 12.0067 5.70983C12.1839 5.88703 12.2835 6.12737 12.2835 6.37797V11.3386Z" fill="white"/>
<path d="M11.3386 16.063H6.37795C5.68905 16.0638 5.02858 16.3378 4.54145 16.8249C4.05432 17.312 3.78031 17.9725 3.77953 18.6614V23.622C3.78031 24.3109 4.05432 24.9714 4.54145 25.4585C5.02858 25.9457 5.68905 26.2197 6.37795 26.2205H11.3386C12.0275 26.2197 12.688 25.9457 13.1751 25.4585C13.6622 24.9714 13.9362 24.3109 13.937 23.622V18.6614C13.9362 17.9725 13.6622 17.312 13.1751 16.8249C12.688 16.3378 12.0275 16.0638 11.3386 16.063ZM12.2835 23.622C12.2835 23.8726 12.1839 24.113 12.0067 24.2902C11.8295 24.4674 11.5892 24.5669 11.3386 24.5669H6.37795C6.12735 24.5669 5.88702 24.4674 5.70982 24.2902C5.53262 24.113 5.43307 23.8726 5.43307 23.622V18.6614C5.43307 18.4108 5.53262 18.1705 5.70982 17.9933C5.88702 17.8161 6.12735 17.7165 6.37795 17.7165H11.3386C11.5892 17.7165 11.8295 17.8161 12.0067 17.9933C12.1839 18.1705 12.2835 18.4108 12.2835 18.6614V23.622Z" fill="white"/>
<path d="M18.6614 13.937H23.622C24.311 13.9362 24.9714 13.6622 25.4585 13.1751C25.9457 12.688 26.2197 12.0275 26.2205 11.3386V6.37797C26.2197 5.68906 25.9457 5.0286 25.4585 4.54147C24.9714 4.05434 24.311 3.78032 23.622 3.77954H18.6614C17.9725 3.78032 17.312 4.05434 16.8249 4.54147C16.3378 5.0286 16.0638 5.68906 16.063 6.37797V11.3386C16.0638 12.0275 16.3378 12.688 16.8249 13.1751C17.312 13.6622 17.9725 13.9362 18.6614 13.937ZM17.7165 6.37797C17.7165 6.12737 17.8161 5.88703 17.9933 5.70983C18.1705 5.53263 18.4108 5.43308 18.6614 5.43308H23.622C23.8726 5.43308 24.113 5.53263 24.2902 5.70983C24.4674 5.88703 24.5669 6.12737 24.5669 6.37797V11.3386C24.5669 11.5892 24.4674 11.8295 24.2902 12.0067C24.113 12.1839 23.8726 12.2835 23.622 12.2835H18.6614C18.4108 12.2835 18.1705 12.1839 17.9933 12.0067C17.8161 11.8295 17.7165 11.5892 17.7165 11.3386V6.37797Z" fill="white"/>
<path d="M24.8031 26.2205C25.179 26.2205 25.5395 26.0711 25.8053 25.8053C26.0711 25.5395 26.2205 25.179 26.2205 24.8031V22.2047C26.2205 21.8288 26.0711 21.4683 25.8053 21.2025C25.5395 20.9367 25.179 20.7874 24.8031 20.7874H22.4409V17.4803C22.4409 17.1044 22.2916 16.7439 22.0258 16.4781C21.76 16.2123 21.3995 16.063 21.0236 16.063H17.4803C17.1044 16.063 16.7439 16.2123 16.4781 16.4781C16.2123 16.7439 16.063 17.1044 16.063 17.4803V21.0236C16.063 21.3995 16.2123 21.76 16.4781 22.0258C16.7439 22.2916 17.1044 22.4409 17.4803 22.4409H20.7874V24.8031C20.7874 25.179 20.9367 25.5395 21.2025 25.8053C21.4683 26.0711 21.8288 26.2205 22.2047 26.2205H24.8031ZM22.4409 22.4409H24.5669V24.5669H22.4409V22.4409ZM20.7874 20.7874H17.7165V17.7165H20.7874V20.7874Z" fill="white"/>
<path d="M9.33071 7.55908H8.38583C7.92921 7.55908 7.55906 7.92924 7.55906 8.38585V9.33074C7.55906 9.78735 7.92921 10.1575 8.38583 10.1575H9.33071C9.78732 10.1575 10.1575 9.78735 10.1575 9.33074V8.38585C10.1575 7.92924 9.78732 7.55908 9.33071 7.55908Z" fill="white"/>
<path d="M21.6142 7.55908H20.6693C20.2127 7.55908 19.8425 7.92924 19.8425 8.38585V9.33074C19.8425 9.78735 20.2127 10.1575 20.6693 10.1575H21.6142C22.0708 10.1575 22.4409 9.78735 22.4409 9.33074V8.38585C22.4409 7.92924 22.0708 7.55908 21.6142 7.55908Z" fill="white"/>
<path d="M9.33071 19.8425H8.38583C7.92921 19.8425 7.55906 20.2127 7.55906 20.6693V21.6142C7.55906 22.0708 7.92921 22.441 8.38583 22.441H9.33071C9.78732 22.441 10.1575 22.0708 10.1575 21.6142V20.6693C10.1575 20.2127 9.78732 19.8425 9.33071 19.8425Z" fill="white"/>
</svg>
