<svg width="141" height="140" viewBox="0 0 141 140" fill="none" xmlns="http://www.w3.org/2000/svg">
    <defs>
        <linearGradient id="paint0_linear_2710_13930" x1="81.999" y1="109" x2="50.6608" y2="68.26" gradientUnits="userSpaceOnUse">
            <stop stop-color="#E4EFFF"/>
            <stop offset="1" stop-color="white"/>
        </linearGradient>
        <clipPath id="clip0_2710_13930">
            <rect width="130" height="130" fill="white" transform="translate(6 5)"/>
        </clipPath>
    </defs>
    <g clip-path="url(#clip0_2710_13930)">
<rect x="6.43652" y="70.0322" width="91.9688" height="91.9688" rx="13.3662" transform="rotate(-45 6.43652 70.0322)" fill="#E3EEFF"/>
<mask id="mask0_2710_13930" style="mask-type:alpha" maskUnits="userSpaceOnUse" x="11" y="10" width="120" height="120">
<rect x="6.43652" y="70.0322" width="91.9688" height="91.9688" rx="13.3662" transform="rotate(-45 6.43652 70.0322)" fill="white"/>
</mask>
<g mask="url(#mask0_2710_13930)">
<ellipse cx="39.3728" cy="62.6374" rx="53.2038" ry="65.238" fill="#F1F7FE"/>
</g>
<rect x="122.47" y="20" width="14.8066" height="14.8066" rx="3.40821" transform="rotate(45 122.47 20)" fill="#F0F6FD"/>
<path fill-rule="evenodd" clip-rule="evenodd" d="M104.283 95.5568C106.262 92.1286 110.652 90.9524 114.08 92.9319C117.508 94.9113 118.684 99.3005 116.705 102.729C114.727 106.157 110.336 107.333 106.908 105.354C103.48 103.374 102.304 98.9849 104.283 95.5568Z" fill="#2A49BB"/>
<path fill-rule="evenodd" clip-rule="evenodd" d="M103.494 73.0181L84.3691 106.143C84.3691 106.143 87.2985 105.983 90.2517 105.821C94.1723 105.607 98.069 106.568 101.441 108.584C101.594 108.675 101.746 108.766 101.892 108.854C103.253 109.668 104.96 109.63 106.285 108.755H106.286C112.411 104.71 116.274 98.0192 116.714 90.6928V90.6912C116.808 89.1086 115.988 87.6104 114.603 86.8375C114.453 86.7546 114.3 86.6701 114.144 86.5825C110.712 84.67 107.931 81.7773 106.156 78.2727C104.82 75.635 103.494 73.0181 103.494 73.0181Z" fill="#B5C4FF"/>
<path fill-rule="evenodd" clip-rule="evenodd" d="M77.8331 45.6582C81.3681 46.2893 84.8568 47.5356 88.1463 49.4338C103.381 58.2313 108.61 77.7404 99.8141 92.9766C91.0166 108.211 71.506 113.44 56.2713 104.643C41.0367 95.847 35.8076 76.3363 44.6035 61.1016C47.4005 56.2582 51.2797 52.4269 55.7613 49.7334L61.298 51.9073L66.5892 51.7113L64.8728 56.5005L64.0886 58.9644L65.9486 62.383L71.6829 62.0133L71.8964 58.456L79.2245 55.3259L72.3236 51.3415L72.9961 48.0488L77.8331 45.6582Z" fill="url(#paint0_linear_2710_13930)"/>
<path fill-rule="evenodd" clip-rule="evenodd" d="M97.3042 57.3784C105.08 67.3154 106.507 81.3835 99.8144 92.9764C91.0169 108.211 71.5062 113.44 56.2715 104.643C48.7681 100.311 43.692 93.3796 41.5229 85.6388C47.3609 93.072 56.4277 97.8501 66.6038 97.8501C84.1972 97.8501 98.4788 83.5669 98.4788 65.9751C98.4788 62.9964 98.0708 60.1133 97.3042 57.3784Z" fill="#D5DEFF"/>
<path opacity="0.4" fill-rule="evenodd" clip-rule="evenodd" d="M72.6664 59.7726L76.3735 60.2141L78.133 62.8788C78.3752 63.2454 78.8693 63.3474 79.2358 63.1051C79.604 62.8629 79.7044 62.3672 79.4622 62.0007L77.4987 59.0267C77.3696 58.8307 77.1608 58.7016 76.9281 58.6745L72.8545 58.19C72.4178 58.139 72.0209 58.4514 71.9683 58.8881C71.9173 59.3248 72.2297 59.7216 72.6664 59.7726Z" fill="#C1CBF1"/>
<path opacity="0.4" fill-rule="evenodd" clip-rule="evenodd" d="M63.088 58.354L59.6965 59.6928L54.5088 56.6981C54.1279 56.4782 53.6402 56.6089 53.4203 56.9898C53.2003 57.3707 53.331 57.8584 53.7119 58.0783L59.2327 61.2658C59.4431 61.3869 59.6965 61.406 59.9228 61.3168L63.6729 59.8378C64.0825 59.6752 64.2833 59.213 64.1223 58.8035C63.9597 58.3939 63.4976 58.193 63.088 58.354Z" fill="#C1CBF1"/>
<path opacity="0.4" fill-rule="evenodd" clip-rule="evenodd" d="M65.6508 62.6876L65.0133 65.5149L61.4354 68.6881C61.107 68.9798 61.0768 69.4834 61.3684 69.8133C61.6601 70.1416 62.1637 70.1719 62.4936 69.8802L66.2644 66.5365C66.3887 66.425 66.4764 66.2784 66.513 66.1158L67.2063 63.0383C67.3019 62.6095 67.0326 62.1824 66.6039 62.0852C66.1752 61.988 65.748 62.2589 65.6508 62.6876Z" fill="#C1CBF1"/>
<path opacity="0.4" fill-rule="evenodd" clip-rule="evenodd" d="M70.9134 62.2188L72.08 66.5729C72.1342 66.7769 72.2681 66.9507 72.4513 67.0574L77.9721 70.2449C78.353 70.4649 78.8407 70.3342 79.0606 69.9533C79.2806 69.5724 79.1499 69.0847 78.769 68.8648L73.5335 65.8414L72.4529 61.806C72.3382 61.3821 71.9015 61.1287 71.476 61.2434C71.052 61.3566 70.7986 61.7949 70.9134 62.2188Z" fill="#C1CBF1"/>
<path opacity="0.4" fill-rule="evenodd" clip-rule="evenodd" d="M79.1036 56.3284L81.9675 59.6195C82.1668 59.849 82.4807 59.9446 82.774 59.8665L89.3052 58.115C89.7307 58.0018 89.9825 57.5651 89.8694 57.1396C89.7562 56.7157 89.3179 56.4622 88.894 56.577L82.8425 58.1978L80.3053 55.2813C80.0168 54.9498 79.5132 54.9147 79.1817 55.2032C78.8502 55.4933 78.8151 55.9969 79.1036 56.3284Z" fill="#C1CBF1"/>
<path fill-rule="evenodd" clip-rule="evenodd" d="M45.5199 33.4214L56.7893 44.6908C57.4109 45.3124 58.4213 45.3124 59.0429 44.6908C59.666 44.0692 59.666 43.0588 59.0429 42.4372L47.7734 31.1678C47.1519 30.5463 46.1414 30.5463 45.5199 31.1678C44.8983 31.7894 44.8983 32.7998 45.5199 33.4214Z" fill="#2A49BB"/>
<path fill-rule="evenodd" clip-rule="evenodd" d="M61.709 31.3767L64.1745 40.5758C64.4024 41.4253 65.2774 41.9305 66.1269 41.7026C66.9763 41.4763 67.4816 40.6013 67.2536 39.7518L64.7881 30.5511C64.5602 29.7016 63.6852 29.1964 62.8358 29.4243C61.9863 29.6522 61.4811 30.5272 61.709 31.3767Z" fill="#2A49BB"/>
<path fill-rule="evenodd" clip-rule="evenodd" d="M76.7526 23.4032L72.6279 38.7972C72.4 39.6467 72.9052 40.5216 73.7547 40.7495C74.6042 40.9774 75.4792 40.4722 75.7071 39.6227L79.8317 24.2271C80.0596 23.3777 79.5544 22.5043 78.7049 22.2764C77.8554 22.0485 76.9805 22.5537 76.7526 23.4032Z" fill="#2A49BB"/>
<rect x="111.745" y="12" width="8.83147" height="8.83147" rx="2" transform="rotate(45 111.745 12)" fill="#F0F6FD"/>
<rect x="42.9238" y="117" width="8.37756" height="8.37756" rx="1" transform="rotate(45 42.9238 117)" fill="#F0F6FD"/>
</g>

</svg>
