<svg width="156" height="94" viewBox="0 0 156 94" fill="none" xmlns="http://www.w3.org/2000/svg">
    <defs>
        <filter id="filter0_d_1813_21942" x="0.866699" y="0.522705" width="154.76" height="93.4773" filterUnits="userSpaceOnUse" color-interpolation-filters="sRGB">
            <feFlood flood-opacity="0" result="BackgroundImageFix"/>
            <feColorMatrix in="SourceAlpha" type="matrix" values="0 0 0 0 0 0 0 0 0 0 0 0 0 0 0 0 0 0 127 0" result="hardAlpha"/>
            <feOffset/>
            <feGaussianBlur stdDeviation="4"/>
            <feComposite in2="hardAlpha" operator="out"/>
            <feColorMatrix type="matrix" values="0 0 0 0 0 0 0 0 0 0 0 0 0 0 0 0 0 0 1 0"/>
            <feBlend mode="normal" in2="BackgroundImageFix" result="effect1_dropShadow_1813_21942"/>
            <feBlend mode="normal" in="SourceGraphic" in2="effect1_dropShadow_1813_21942" result="shape"/>
        </filter>
        <linearGradient id="paint0_linear_1813_21942" x1="146.247" y1="41.3429" x2="60.2748" y2="40.5953" gradientUnits="userSpaceOnUse">
            <stop stop-color="#FDDBB7"/>
            <stop offset="1" stop-color="white"/>
        </linearGradient>
        <linearGradient id="paint1_linear_1813_21942" x1="131.483" y1="71.4332" x2="37.2866" y2="70.4987" gradientUnits="userSpaceOnUse">
            <stop stop-color="#C7DDFF"/>
            <stop offset="1" stop-color="white"/>
        </linearGradient>
    </defs>
    <g filter="url(#filter0_d_1813_21942)">
<path d="M29.9413 18.7694C29.9413 18.6073 29.9904 18.4489 30.0824 18.3141C30.1744 18.1794 30.3052 18.0743 30.4582 18.0123C30.6112 17.9503 30.7795 17.9341 30.9419 17.9657C31.1044 17.9973 31.2535 18.0754 31.3706 18.19C31.4877 18.3046 31.5675 18.4506 31.5998 18.6095C31.6321 18.7685 31.6155 18.9332 31.5522 19.083C31.4888 19.2327 31.3815 19.3607 31.2438 19.4507C31.1061 19.5408 30.9442 19.5888 30.7786 19.5888C30.5565 19.5888 30.3435 19.5025 30.1865 19.3488C30.0295 19.1951 29.9413 18.9867 29.9413 18.7694ZM31.4103 18.7694C31.403 18.648 31.3595 18.5315 31.2852 18.434C31.2109 18.3366 31.1091 18.2627 30.9924 18.2213C30.8756 18.1799 30.749 18.1729 30.6282 18.2011C30.5074 18.2294 30.3977 18.2917 30.3127 18.3803C30.2277 18.4689 30.1711 18.58 30.1498 18.6997C30.1286 18.8195 30.1437 18.9427 30.1933 19.0542C30.2429 19.1656 30.3247 19.2604 30.4287 19.3268C30.5328 19.3932 30.6544 19.4284 30.7786 19.4279C30.8646 19.4265 30.9495 19.4082 31.0282 19.3741C31.1069 19.34 31.1779 19.2908 31.2368 19.2294C31.2957 19.168 31.3414 19.0956 31.3712 19.0166C31.401 18.9376 31.4143 18.8535 31.4103 18.7694M30.4534 18.3011H30.8272C31.0515 18.3011 31.1785 18.378 31.1785 18.5755C31.1785 18.773 31.0851 18.8096 30.9281 18.8243L31.1823 19.2303H31.0028L30.7562 18.8279H30.6515V19.2303H30.4721L30.4534 18.3011ZM30.6328 18.6999H30.7861C30.8907 18.6999 30.9804 18.6999 30.9804 18.5609C30.9804 18.4219 30.8795 18.4328 30.7898 18.4328H30.6328V18.6999Z" fill="white"/>
<path d="M13.3149 10.7395C12.72 10.7398 12.1403 10.9233 11.6579 11.2641C11.1755 11.6048 10.815 12.0856 10.6274 12.6381L10.6049 12.7149L10.5414 12.9491L8.97147 19.607H12.9262C13.4876 19.6078 14.0357 19.4393 14.4959 19.1245C14.956 18.8096 15.3059 18.3637 15.4979 17.8474L15.6474 17.2145L17.1762 10.7395H13.3149Z" fill="#0D529E"/>
<path d="M20.7753 8.52271C20.1603 8.5226 19.5621 8.71857 19.0711 9.08095C18.5801 9.44332 18.2231 9.95238 18.0541 10.5311C18.0317 10.6189 18.0092 10.7066 17.9943 10.7981L15.3777 21.8276H19.239C19.8689 21.8269 20.4807 21.6208 20.9776 21.2419C21.4744 20.8629 21.8281 20.3327 21.9827 19.7351V19.7351L24.6254 8.52271H20.7753Z" fill="#F27225"/>
<path d="M27.2006 10.7395C26.6266 10.7397 26.0663 10.9105 25.5937 11.2293C25.1211 11.5481 24.7586 11.9998 24.5541 12.5247C24.5354 12.5759 24.4644 12.7991 24.4644 12.7991L22.8571 19.607H26.7184C27.3501 19.6073 27.9638 19.4008 28.4617 19.0203C28.9596 18.6397 29.3131 18.1071 29.4658 17.5072V17.5072L31.0619 10.7395H27.2006Z" fill="#51B748"/>
<path d="M11.5919 13.1943C11.4015 13.3363 11.2615 13.5334 11.192 13.7576L10.3771 17.3683H10.422C10.6832 17.3662 10.9351 17.2728 11.1322 17.1049C11.3395 16.945 11.4846 16.7203 11.5433 16.4684L11.7527 15.5502H13.5058C13.7679 15.5467 14.0205 15.4535 14.2197 15.2868C14.4313 15.1284 14.5784 14.9014 14.6346 14.6466V14.6027H11.9695L12.1339 13.871H14.6608C14.9221 13.869 15.174 13.7756 15.371 13.6077C15.5767 13.4447 15.7213 13.2195 15.7822 12.9675V12.9199H12.2835C12.0226 12.9242 11.7715 13.0173 11.5733 13.1833" fill="white"/>
<path d="M29.4517 13.1466C29.3798 13.0777 29.2944 13.0237 29.2006 12.9878C29.1068 12.952 29.0066 12.9351 28.906 12.9381H25.4073V12.9674C25.396 13.0302 25.3898 13.0938 25.3886 13.1576C25.3858 13.2544 25.4032 13.3507 25.4398 13.4407C25.4765 13.5307 25.5316 13.6123 25.6017 13.6807C25.6739 13.749 25.7595 13.8023 25.8532 13.8375C25.947 13.8727 26.047 13.889 26.1474 13.8856H26.895L26.1474 17.3682H26.196C26.4561 17.3662 26.7069 17.2727 26.9025 17.1048C27.1105 16.9461 27.2548 16.7207 27.3099 16.4682L27.8706 13.8856H29.6461V13.8563C29.6518 13.7918 29.6518 13.7269 29.6461 13.6624C29.6486 13.5671 29.6314 13.4722 29.5954 13.3835C29.5594 13.2949 29.5055 13.2143 29.4368 13.1466" fill="white"/>
<path d="M21.7625 12.9309H18.4283L17.4639 17.3683H17.5087C17.77 17.3662 18.0219 17.2728 18.2189 17.1049C18.4256 16.9456 18.5685 16.7203 18.6226 16.4683L18.8207 15.5575H21.2055C21.4668 15.5554 21.7187 15.462 21.9157 15.2941C22.126 15.1351 22.2717 14.9082 22.3269 14.6539L22.5063 13.8527C22.52 13.7878 22.5262 13.7215 22.525 13.6552C22.5273 13.5595 22.5096 13.4645 22.4729 13.3758C22.4363 13.2871 22.3815 13.2066 22.312 13.1394C22.2396 13.07 22.1536 13.0158 22.0591 12.9799C21.9647 12.9441 21.8637 12.9274 21.7625 12.9309M19.1908 13.882H21.5307L21.37 14.6136H19.0263L19.1908 13.882Z" fill="white"/>
<path d="M18.705 28.3757C18.4678 28.1015 18.17 27.8838 17.834 27.7392C17.4567 27.5797 17.0488 27.5012 16.6379 27.5087C16.2 27.5058 15.7657 27.5866 15.3595 27.7465C14.9755 27.8981 14.627 28.1246 14.3353 28.4123C14.0391 28.71 13.8077 29.0634 13.655 29.4512C13.4856 29.8842 13.4019 30.3448 13.4083 30.8084C13.4046 31.254 13.4883 31.6961 13.655 32.1107C13.8137 32.5019 14.0514 32.8578 14.354 33.157C14.6639 33.4558 15.031 33.692 15.4343 33.852C15.877 34.0272 16.351 34.1143 16.8285 34.1081C17.1754 34.1131 17.521 34.065 17.8527 33.9654C18.1223 33.8855 18.3839 33.7814 18.6339 33.6545C18.8784 33.5308 19.1058 33.3772 19.3105 33.1972L18.7722 32.3412C18.6129 32.4826 18.4373 32.6054 18.2489 32.707C18.0562 32.8072 17.8548 32.8904 17.6471 32.9558C17.4051 33.0295 17.153 33.0665 16.8995 33.0655C16.6207 33.0676 16.3436 33.0218 16.0809 32.9301C15.8246 32.841 15.5903 32.7001 15.3931 32.5168C15.1893 32.3264 15.0233 32.1006 14.9035 31.851C14.7708 31.5681 14.6971 31.2622 14.6867 30.9511H19.3815C19.3776 30.8889 19.3776 30.8266 19.3815 30.7645C19.3815 30.7133 19.3815 30.6584 19.4002 30.6035C19.4189 30.5487 19.4002 30.4938 19.4002 30.4536C19.4029 30.065 19.3424 29.6785 19.2208 29.3085C19.1127 28.9632 18.9333 28.6432 18.6937 28.3684M14.7203 30.0658C14.7811 29.6035 15.0173 29.1804 15.3819 28.8805C15.7323 28.6089 16.1685 28.4653 16.6154 28.4745C17.0038 28.4721 17.3778 28.6178 17.6583 28.8805C17.8141 29.0371 17.9361 29.2227 18.017 29.4263C18.0979 29.6299 18.1361 29.8474 18.1293 30.0658H14.7203ZM30.7598 34.4739H31.855L34.2099 24.6882H33.1185L30.7598 34.4739ZM26.7527 34.4739H27.848L30.2066 24.6882H29.1114L26.7527 34.4739ZM12.3019 32.9301C12.1625 32.9282 12.0236 32.9135 11.887 32.8863C11.7255 32.8557 11.5733 32.7894 11.4421 32.6924C11.2909 32.5791 11.1693 32.4324 11.087 32.2644C10.9796 32.0276 10.9297 31.7696 10.9413 31.5108V28.6208H12.4813V27.6587H10.9413V25.9284H9.73016V27.6587H8.8667V28.6281H9.70774V31.6534C9.68612 32.0869 9.77745 32.5187 9.97314 32.9082C10.128 33.193 10.3528 33.4356 10.6273 33.6142C10.8729 33.7728 11.1488 33.8811 11.4384 33.9325C11.6772 33.9798 11.92 34.0055 12.1636 34.0093H12.3392C12.3864 34.0151 12.4341 34.0151 12.4813 34.0093C12.5186 34.0133 12.5561 34.0133 12.5934 34.0093V32.9375C12.569 32.9446 12.5431 32.9446 12.5187 32.9375C12.4465 32.9434 12.374 32.9434 12.3019 32.9375M25.3847 32.6009C25.1888 32.73 24.9764 32.8333 24.7529 32.9082C24.4892 32.9951 24.2126 33.0384 23.9343 33.0362C23.6408 33.0379 23.3495 32.987 23.0746 32.8863C22.8058 32.7919 22.5601 32.6436 22.3532 32.4509C22.1392 32.2533 21.9699 32.0141 21.856 31.7486C21.7288 31.4472 21.6664 31.1234 21.6729 30.7974C21.6684 30.484 21.7242 30.1725 21.8374 29.8792C21.9392 29.6132 22.0956 29.3704 22.2971 29.1659C22.4952 28.9667 22.7331 28.8098 22.9961 28.7049C23.2711 28.5944 23.5661 28.5397 23.8633 28.544C23.9888 28.5454 24.1139 28.5576 24.2371 28.5806C24.3661 28.6044 24.4917 28.6437 24.6109 28.6976C24.7221 28.7482 24.8233 28.8175 24.9099 28.9025C24.9865 28.9801 25.0294 29.0836 25.0295 29.1915V29.539H26.1509V28.8915C26.1581 28.6456 26.0669 28.4068 25.8967 28.2257C25.7212 28.0448 25.5102 27.9004 25.2763 27.8014C25.037 27.6982 24.786 27.6233 24.5287 27.5782C24.302 27.5348 24.0718 27.5115 23.8409 27.5087C23.356 27.5018 22.8746 27.5889 22.4242 27.7648C22.0368 27.9311 21.6854 28.1683 21.3888 28.4635C21.0808 28.7584 20.84 29.1137 20.6823 29.5061C20.3457 30.3468 20.3457 31.2809 20.6823 32.1217C20.8464 32.5128 21.0878 32.8683 21.3925 33.1679C21.7 33.4689 22.0678 33.7043 22.4728 33.8593C22.9183 34.029 23.3928 34.1134 23.8708 34.1081C24.251 34.1136 24.6296 34.0593 24.9922 33.9471C25.2777 33.8573 25.5512 33.7345 25.807 33.5813C26.0601 33.4336 26.2883 33.2485 26.4836 33.0326L25.9491 32.1729C25.7861 32.3394 25.6028 32.4856 25.4033 32.6082M47.9543 32.6594V29.9816C47.9572 29.6546 47.9157 29.3286 47.831 29.0122C47.7566 28.7215 47.6131 28.452 47.4123 28.2257C47.1881 27.9875 46.9067 27.8077 46.5937 27.7026C46.177 27.5671 45.7393 27.5039 45.3004 27.516C45.1471 27.516 44.9266 27.516 44.6874 27.5563C44.4321 27.5779 44.1808 27.632 43.9398 27.7172C43.7108 27.7965 43.5008 27.921 43.323 28.083C43.236 28.1635 43.1676 28.2613 43.1224 28.3699C43.0773 28.4784 43.0565 28.5952 43.0614 28.7122V29.3341H44.2164V28.9683C44.216 28.9204 44.2269 28.8729 44.2483 28.8298C44.2697 28.7866 44.301 28.7489 44.3398 28.7196C44.4257 28.651 44.5248 28.6 44.6313 28.5696C44.746 28.5367 44.8637 28.5146 44.9827 28.5037C45.0794 28.4916 45.1768 28.4855 45.2742 28.4854C45.4702 28.4677 45.6678 28.4879 45.8557 28.545C46.0437 28.6022 46.2183 28.695 46.3695 28.8183C46.6247 29.1504 46.7422 29.5647 46.6984 29.978V30.0402H46.433C46.2573 30.0402 46.0368 30.0402 45.7714 30.0585C45.506 30.0768 45.2331 30.1024 44.9453 30.1463C44.6535 30.1916 44.366 30.2601 44.0856 30.3511C43.8116 30.4347 43.5521 30.558 43.3155 30.7169C43.091 30.8761 42.9026 31.0791 42.7623 31.3132C42.6163 31.5793 42.5441 31.8783 42.553 32.1802C42.5472 32.4664 42.6113 32.7499 42.7399 33.007C42.8558 33.2389 43.0231 33.4426 43.2296 33.6033C43.4368 33.7674 43.674 33.8916 43.9286 33.9691C44.1918 34.0524 44.4668 34.0944 44.7434 34.0935C45.0759 34.103 45.4061 34.0366 45.7078 33.8996C45.9427 33.7909 46.1585 33.6465 46.347 33.4716C46.5345 33.2921 46.6899 33.0831 46.8068 32.8533V32.8533C46.8035 32.8898 46.8035 32.9266 46.8068 32.9631C46.8024 33.0032 46.8024 33.0437 46.8068 33.0838V33.2265C46.7946 33.4188 46.8604 33.6081 46.9899 33.7532C47.0749 33.8257 47.1741 33.8803 47.2815 33.9136C47.3889 33.947 47.5021 33.9584 47.6142 33.9471H48.7767V32.9265H48.2571C48.219 32.9321 48.18 32.9288 48.1434 32.917C48.1068 32.9051 48.0736 32.8851 48.0463 32.8584C48.0191 32.8317 47.9986 32.7992 47.9865 32.7634C47.9744 32.7275 47.9711 32.6894 47.9768 32.6521M46.7432 31.134C46.7415 31.3731 46.6998 31.6104 46.6199 31.8364C46.5409 32.0686 46.4248 32.2871 46.276 32.4838C46.1286 32.6743 45.9444 32.8346 45.734 32.9558C45.5154 33.0772 45.2676 33.1391 45.0163 33.135C44.8505 33.1483 44.6837 33.1275 44.5267 33.074C44.3696 33.0204 44.2257 32.9353 44.1043 32.8241C44.0093 32.7336 43.9337 32.6255 43.8817 32.5062C43.8297 32.3869 43.8025 32.2587 43.8015 32.129C43.794 32.002 43.8156 31.875 43.8647 31.7573C43.9139 31.6396 43.9893 31.5341 44.0856 31.4486C44.2821 31.2792 44.5144 31.1543 44.7659 31.0828C45.0444 31.0016 45.3317 30.9525 45.6219 30.9364C45.9246 30.9364 46.1938 30.9145 46.4218 30.9145H46.7432V31.134ZM54.3126 27.7904C54.1455 27.9181 54.0249 28.0952 53.9687 28.2952L52.6305 31.8437C52.5961 31.9262 52.5662 32.0105 52.5408 32.0961C52.5184 32.1839 52.4959 32.2644 52.4772 32.3412C52.4585 32.418 52.4324 32.5168 52.4137 32.6009H52.3913C52.3913 32.5168 52.3502 32.4326 52.3277 32.3412C52.3053 32.2497 52.2866 32.1839 52.2567 32.0961C52.2268 32.0083 52.1932 31.9241 52.1595 31.8437L50.698 28.2952C50.6362 28.0995 50.5196 27.9246 50.3616 27.7904C50.1866 27.6899 49.9845 27.6439 49.7822 27.6587H49.0495V28.6903H49.2028C49.2881 28.6874 49.3728 28.705 49.4495 28.7415C49.525 28.7887 49.5817 28.8597 49.6102 28.9427L51.8081 33.9508L51.5129 34.6349C51.4124 34.8915 51.251 35.1209 51.0419 35.3043C50.8588 35.461 50.6235 35.5469 50.3803 35.5458C50.2525 35.5469 50.1257 35.5246 50.0065 35.4799C49.903 35.4374 49.8031 35.3873 49.7074 35.3299C49.6086 35.2639 49.5183 35.1866 49.4383 35.0995L48.9299 35.9665C49.0481 36.085 49.1812 36.1883 49.3262 36.2737C49.6605 36.4828 50.0509 36.5897 50.4475 36.581C50.8878 36.5889 51.3193 36.4609 51.681 36.2152C52.0679 35.9406 52.361 35.5581 52.5221 35.1178L55.0676 28.9683C55.0938 28.8851 55.1495 28.8138 55.2246 28.7671C55.3026 28.7303 55.3886 28.7127 55.4751 28.7159H55.6395V27.6587H54.8919C54.6838 27.6451 54.4761 27.6909 54.2939 27.7904M40.9868 32.6521V25.965C41.0085 25.8556 41.0024 25.7428 40.9691 25.6364C40.9358 25.5299 40.8763 25.433 40.7959 25.3543C40.7154 25.2756 40.6165 25.2174 40.5077 25.1848C40.3989 25.1522 40.2836 25.1463 40.1719 25.1675H38.9571V26.2027H39.4804C39.5186 26.1972 39.5575 26.2004 39.5941 26.2123C39.6307 26.2241 39.6639 26.2441 39.6912 26.2708C39.7184 26.2975 39.739 26.33 39.751 26.3659C39.7631 26.4017 39.7665 26.4398 39.7608 26.4771V28.2257C39.7571 28.2695 39.7571 28.3136 39.7608 28.3574C39.7572 28.3988 39.7572 28.4404 39.7608 28.4818H39.7383C39.6191 28.2996 39.473 28.1356 39.3047 27.9952C39.1167 27.8586 38.9105 27.7478 38.6917 27.666C38.3928 27.5528 38.0738 27.4993 37.7535 27.5087C37.3494 27.505 36.9492 27.5861 36.5798 27.7465C36.2283 27.9018 35.9148 28.1288 35.6602 28.4123C35.3901 28.7159 35.1843 29.0691 35.0547 29.4512C34.9046 29.8884 34.8312 30.3473 34.8379 30.8084C34.8328 31.262 34.8997 31.7137 35.036 32.1473C35.1546 32.5257 35.3462 32.8784 35.6004 33.1862C35.8445 33.4751 36.1509 33.7074 36.4975 33.8666C36.8669 34.0314 37.2691 34.1138 37.675 34.1081C38.0157 34.1178 38.3545 34.0567 38.6693 33.9288C38.9021 33.8263 39.1196 33.6934 39.316 33.5337C39.5071 33.3731 39.6666 33.1797 39.7869 32.9631H39.8131C39.809 32.9922 39.809 33.0217 39.8131 33.0509V33.285C39.8064 33.3758 39.8192 33.4671 39.8508 33.5528C39.8823 33.6385 39.9319 33.7167 39.9963 33.7825C40.1675 33.9151 40.3844 33.978 40.6018 33.9581H41.783V32.9265H41.2746C41.2365 32.9321 41.1976 32.9288 41.161 32.917C41.1244 32.9051 41.0911 32.8851 41.0639 32.8584C41.0366 32.8317 41.0161 32.7992 41.004 32.7634C40.992 32.7275 40.9886 32.6894 40.9943 32.6521M39.6374 31.829C39.5492 32.0886 39.4094 32.3285 39.2262 32.5351C39.0653 32.7155 38.8629 32.856 38.6357 32.9448C38.4165 33.0287 38.1832 33.0721 37.9479 33.0728C37.689 33.0795 37.4324 33.0242 37.2003 32.9119C36.978 32.8019 36.7828 32.6458 36.6284 32.4546C36.458 32.2358 36.3312 31.9876 36.2546 31.7229C36.1626 31.4204 36.1184 31.1058 36.1237 30.7901C36.1186 30.465 36.1679 30.1412 36.2695 29.8317C36.3536 29.5657 36.488 29.3175 36.6658 29.1C36.826 28.9138 37.0247 28.763 37.2489 28.6574C37.4711 28.5557 37.7138 28.5044 37.9591 28.5074C38.2388 28.4997 38.5153 28.5667 38.759 28.7013C38.9858 28.8288 39.181 29.0036 39.3309 29.2134C39.4861 29.4365 39.6012 29.684 39.671 29.9451C39.7493 30.2139 39.7883 30.4923 39.7869 30.7718C39.7953 31.1222 39.7409 31.4714 39.6262 31.8034" fill="white"/>
<path d="M9.05396 47.0216C9.03901 46.5847 9.1463 46.1521 9.36422 45.7705C9.57066 45.4358 9.83499 45.1387 10.1454 44.8926C10.461 44.6414 10.8016 44.422 11.1622 44.2377C11.536 44.0512 11.8611 43.8536 12.1751 43.6524C12.4691 43.4669 12.7326 43.2387 12.9564 42.9757C13.1678 42.7125 13.2777 42.3848 13.2666 42.0501C13.272 41.8775 13.2398 41.7056 13.1721 41.546C13.1045 41.3865 13.0029 41.2428 12.8741 41.1246C12.5825 40.872 12.2016 40.7408 11.8126 40.7588C11.49 40.7475 11.1712 40.8303 10.8968 40.9966C10.7923 41.046 10.7028 41.1213 10.6372 41.2149C10.5717 41.3086 10.5323 41.4175 10.523 41.5307V41.8965H9.42776V41.2087C9.42204 40.9624 9.50694 40.7222 9.66699 40.532C9.83118 40.3372 10.0348 40.1777 10.2651 40.0637C10.513 39.9439 10.7755 39.8554 11.0463 39.8003C11.3045 39.7474 11.5674 39.7192 11.8312 39.7162C12.1871 39.7128 12.541 39.7685 12.8779 39.8808C13.1825 39.9846 13.4632 40.1462 13.704 40.3564C13.9335 40.5617 14.1179 40.8107 14.246 41.088C14.3757 41.3876 14.4406 41.7102 14.4366 42.0355C14.4508 42.4526 14.3432 42.865 14.1263 43.2244C13.9198 43.5517 13.6568 43.8414 13.3489 44.0804C13.0338 44.327 12.6974 44.5461 12.3433 44.7353C11.9696 44.9255 11.6481 45.1194 11.3378 45.3132C11.0523 45.4882 10.791 45.6985 10.5604 45.9388C10.3537 46.1572 10.2423 46.446 10.2501 46.7436C10.2501 46.8899 10.3473 46.9631 10.5417 46.9631H13.476C13.511 46.968 13.5467 46.9648 13.5803 46.9539C13.6138 46.9429 13.6444 46.9245 13.6694 46.9C13.6944 46.8755 13.7132 46.8456 13.7244 46.8128C13.7356 46.7799 13.7389 46.745 13.7339 46.7107V46.1912H14.8141V47.2155C14.8327 47.3156 14.8263 47.4186 14.7953 47.5157C14.7643 47.6128 14.7097 47.7011 14.6362 47.773C14.5627 47.8449 14.4725 47.8984 14.3733 47.9287C14.2741 47.959 14.1688 47.9654 14.0665 47.9471H9.82772C9.71156 47.9636 9.59304 47.9523 9.48235 47.914C9.37167 47.8758 9.27213 47.8118 9.19227 47.7277C9.07323 47.5089 9.0201 47.2615 9.03902 47.0143" fill="white"/>
<path d="M18.821 48.0897C18.3348 48.106 17.8531 47.9935 17.4268 47.7642C17.0524 47.5466 16.742 47.2378 16.5259 46.8679C16.2863 46.455 16.1219 46.0044 16.04 45.5363C15.8444 44.4472 15.8444 43.3331 16.04 42.2439C16.1213 41.7769 16.2857 41.3274 16.5259 40.916C16.7444 40.5498 17.0544 40.2439 17.4268 40.0271C17.8531 39.7977 18.3348 39.6852 18.821 39.7015C19.3024 39.6864 19.7789 39.7989 20.2003 40.0271C20.5738 40.2438 20.885 40.5496 21.1049 40.916C21.3435 41.3281 21.5078 41.7773 21.5908 42.2439C21.7864 43.3331 21.7864 44.4472 21.5908 45.5363C21.5072 46.004 21.3429 46.4543 21.1049 46.8679C20.8873 47.238 20.5757 47.5467 20.2003 47.7642C19.7789 47.9923 19.3024 48.1048 18.821 48.0897M18.821 47.0471C19.1217 47.0573 19.4174 46.9698 19.662 46.7984C19.8963 46.6226 20.0804 46.3908 20.1966 46.1253C20.3409 45.8079 20.4366 45.4713 20.4807 45.1266C20.5903 44.307 20.5903 43.4769 20.4807 42.6573C20.4355 42.3128 20.3399 41.9764 20.1966 41.6586C20.0803 41.3951 19.8961 41.1657 19.662 40.9928C19.4159 40.8253 19.1207 40.7405 18.821 40.7514C18.5165 40.7392 18.2162 40.8239 17.965 40.9928C17.732 41.1668 17.548 41.3959 17.4305 41.6586C17.2872 41.9764 17.1915 42.3128 17.1464 42.6573C17.0368 43.4769 17.0368 44.307 17.1464 45.1266C17.1905 45.4713 17.2862 45.8079 17.4305 46.1253C17.548 46.3901 17.7318 46.6216 17.965 46.7984C18.2145 46.9714 18.5155 47.0589 18.821 47.0471" fill="white"/>
<path d="M22.697 47.0216C22.682 46.5847 22.7893 46.1521 23.0072 45.7705C23.2137 45.4358 23.478 45.1387 23.7885 44.8926C24.104 44.6414 24.4446 44.422 24.8052 44.2377C25.1527 44.0594 25.4907 43.864 25.8181 43.6524C26.1129 43.468 26.3765 43.2396 26.5994 42.9757C26.8108 42.7125 26.9207 42.3848 26.9096 42.0501C26.9174 41.8788 26.8881 41.7078 26.8237 41.5483C26.7593 41.3888 26.6612 41.2444 26.5358 41.1246C26.2442 40.872 25.8633 40.7408 25.4743 40.7588C25.1517 40.7475 24.8329 40.8303 24.5585 40.9966C24.454 41.046 24.3645 41.1213 24.2989 41.2149C24.2334 41.3086 24.194 41.4175 24.1847 41.5307V41.8965H23.1044V41.2087C23.0987 40.9624 23.1836 40.7222 23.3436 40.532C23.5078 40.3372 23.7115 40.1777 23.9417 40.0637C24.1897 39.9439 24.4522 39.8554 24.7229 39.8003C24.9812 39.7474 25.2441 39.7192 25.5079 39.7162C25.8638 39.7128 26.2177 39.7685 26.5545 39.8808C26.8592 39.9846 27.1399 40.1462 27.3806 40.3564C27.6102 40.5617 27.7945 40.8107 27.9226 41.088C28.0523 41.3876 28.1172 41.7102 28.1132 42.0355C28.1274 42.4526 28.0198 42.865 27.803 43.2244C27.5965 43.5517 27.3334 43.8414 27.0255 44.0804C26.7105 44.327 26.3741 44.5461 26.02 44.7353C25.6462 44.9255 25.3248 45.1194 25.0145 45.3132C24.729 45.4882 24.4677 45.6985 24.237 45.9388C24.0303 46.1572 23.919 46.446 23.9268 46.7436C23.9268 46.8899 24.0239 46.9631 24.2183 46.9631H27.1526C27.1876 46.968 27.2234 46.9648 27.2569 46.9539C27.2905 46.9429 27.321 46.9245 27.346 46.9C27.371 46.8755 27.3899 46.8456 27.4011 46.8128C27.4123 46.7799 27.4155 46.745 27.4105 46.7107V46.1912H28.4908V47.2155C28.5094 47.3156 28.5029 47.4186 28.4719 47.5157C28.4409 47.6128 28.3864 47.7011 28.3129 47.773C28.2394 47.8449 28.1491 47.8984 28.0499 47.9287C27.9507 47.959 27.8455 47.9654 27.7432 47.9471H23.4857C23.3695 47.9636 23.251 47.9523 23.1403 47.914C23.0297 47.8758 22.9301 47.8118 22.8502 47.7277C22.7312 47.5089 22.6781 47.2615 22.697 47.0143" fill="white"/>
<path d="M29.5378 47.0216C29.5211 46.5845 29.6285 46.1515 29.848 45.7705C30.0531 45.4347 30.3176 45.1374 30.6292 44.8925C30.9435 44.6414 31.2829 44.422 31.6422 44.2377C32.016 44.0511 32.345 43.8536 32.659 43.6524C32.9518 43.4669 33.214 43.2387 33.4364 42.9756C33.6507 42.7137 33.7621 42.3854 33.7504 42.0501C33.7558 41.8771 33.7232 41.705 33.6549 41.5453C33.5865 41.3856 33.484 41.2422 33.3542 41.1246C33.0625 40.872 32.6817 40.7407 32.2926 40.7588C31.9711 40.7469 31.6534 40.8298 31.3806 40.9966C31.2763 41.0462 31.1871 41.1216 31.1215 41.2152C31.056 41.3089 31.0165 41.4176 31.0068 41.5306V41.8965H29.9265V41.2087C29.9222 40.962 30.0084 40.7218 30.1695 40.532C30.3331 40.3365 30.5368 40.177 30.7676 40.0637C31.0153 39.9433 31.2779 39.8548 31.5488 39.8003C31.807 39.7472 32.0699 39.719 32.3338 39.7162C32.6884 39.7131 33.041 39.7687 33.3766 39.8808C33.6824 39.9846 33.9643 40.1462 34.2065 40.3564C34.4455 40.5708 34.6356 40.8322 34.7644 41.1234C34.8932 41.4146 34.9578 41.7291 34.954 42.0465C34.967 42.4634 34.8595 42.8755 34.6438 43.2354C34.435 43.561 34.1723 43.8503 33.8663 44.0914C33.5494 44.3372 33.2118 44.5562 32.8571 44.7462C32.4833 44.9364 32.1655 45.1303 31.8516 45.3242C31.5667 45.5002 31.3055 45.7103 31.0741 45.9497C30.869 46.1692 30.758 46.4573 30.7638 46.7546C30.7638 46.9009 30.861 46.974 31.0554 46.974H33.9934C34.0281 46.9783 34.0634 46.9747 34.0965 46.9635C34.1296 46.9522 34.1596 46.9337 34.1842 46.9093C34.2088 46.8849 34.2273 46.8552 34.2383 46.8227C34.2493 46.7901 34.2525 46.7556 34.2476 46.7216V46.2022H35.3278V47.2265C35.3382 47.3265 35.328 47.4276 35.2978 47.5237C35.2676 47.6198 35.2181 47.7091 35.1522 47.7862C35.0729 47.8513 34.9812 47.9004 34.8823 47.9305C34.7835 47.9606 34.6796 47.9713 34.5765 47.9618H30.3228C30.2067 47.9764 30.0887 47.9642 29.9783 47.9261C29.868 47.8879 29.7683 47.825 29.6873 47.7423C29.5698 47.523 29.5179 47.2757 29.5378 47.0289" fill="white"/>
<path fill-rule="evenodd" clip-rule="evenodd" d="M68.0422 39.2272C63.3361 38.1656 61.0934 35.8705 61.0934 32.5587H61.0784C61.0784 27.0639 65.9265 23.5876 71.7054 23.5876C76.8787 23.5876 80.4746 26.7798 80.7175 31.1831L77.1216 32.0316C76.6133 28.5591 74.6546 26.9406 71.3802 26.9406C67.5824 26.9406 64.835 29.0002 64.835 32.1961C64.835 34.2968 66.2181 35.3061 70.3298 36.2368L72.8754 36.8013C77.8057 37.8927 79.9102 40.1542 79.9102 43.4697C79.9102 49.2075 74.9387 52.8445 68.8758 52.8445C63.2203 52.8445 59.5421 49.3271 59.3403 44.6808L62.9511 43.7912C63.5978 47.4693 65.6163 49.4916 69.2533 49.4916C73.1744 49.4916 76.1236 47.1853 76.1236 43.9519C76.1236 41.8512 74.7518 40.7224 70.5877 39.7916L68.0422 39.2272ZM86.859 43.8734C86.859 39.5486 89.6475 35.9527 93.7704 35.9527C97.0449 35.9527 99.2241 38.2553 99.2241 41.8512C99.2241 46.176 96.4356 49.7719 92.3164 49.7719C89.0419 49.7719 86.859 47.4693 86.859 43.8734ZM83.1846 44.0848C83.1891 49.2903 86.8622 52.8445 92.0734 52.8445C98.2971 52.8445 102.913 47.8319 102.913 41.6494C102.913 36.4387 99.2353 32.8802 94.0246 32.8802C87.8043 32.8802 83.1896 37.8873 83.1846 44.0839L83.1846 44.0753V44.094L83.1846 44.0848ZM114.195 33.6598C113.07 34.1843 112.076 34.9537 111.286 35.9116H111.275H111.152L111.193 33.3661H108.001L105.982 52.3586H109.537L110.629 42.0157C111.073 38.0124 113.335 36.035 116.486 36.035C118.994 36.035 120.246 37.1564 120.246 40.1953C120.246 40.6165 120.215 41.0349 120.18 41.509C120.175 41.5818 120.169 41.6559 120.164 41.7316L119.043 52.3586H122.601L123.894 40.3561C123.928 39.9832 123.941 39.6089 123.936 39.2347C123.936 35.194 121.469 32.8802 117.79 32.8802C116.549 32.869 115.321 33.1353 114.195 33.6598ZM131.139 43.6604C131.139 39.4552 133.886 35.9415 137.927 35.9415C141.291 35.9415 143.504 38.3637 143.22 41.3167L142.939 44.1463C142.655 47.0955 139.867 49.5177 136.514 49.5177C133.28 49.5177 131.139 47.2563 131.139 43.6604ZM127.46 44.0411C127.463 49.0873 130.857 52.5604 135.583 52.5604C138.413 52.5604 141.078 51.3493 142.371 49.5701H142.494L142.169 52.6015C141.766 56.4815 139.059 58.8663 135.179 58.8663C132.312 58.8663 130.492 57.2478 129.804 54.8256L126.492 55.7115C126.866 59.1878 130.167 61.8978 135.06 61.8978C141.078 61.8978 144.999 58.3804 145.604 52.4408L147.627 33.3773H144.434L143.907 35.9228H143.788C142.778 34.1436 140.311 32.8914 137.605 32.8914C131.705 32.8914 127.464 38.1427 127.46 44.0383C127.46 44.0387 127.46 44.0392 127.46 44.0397" fill="url(#paint0_linear_1813_21942)"/>
<path fill-rule="evenodd" clip-rule="evenodd" d="M62.0168 70.8874L63.4709 57.229H67.1901L64.1961 85.5177H60.4806L61.6505 74.2815H48.1566L46.9828 85.5177H43.2673L46.2539 57.229H49.9732L48.5192 70.8874H62.0168ZM80.6093 69.1082C76.4079 69.1082 73.8212 72.7078 73.8212 77.07C73.8212 80.7481 75.9219 82.9311 79.1552 82.9311C82.5082 82.9311 85.2593 80.5463 85.5808 77.5559L85.9022 74.4833C86.2162 71.493 83.9735 69.1082 80.6093 69.1082ZM78.2656 85.9999C73.5409 85.9999 70.1431 82.4862 70.1431 77.3129H70.1506C70.1506 71.0482 74.5576 66.0393 80.3739 66.0393C83.0839 66.0393 85.4275 67.2915 86.4779 69.0708H86.5975L87.1245 66.5215H90.3167L88.2945 85.514H85.0948L85.1359 82.9684H85.0164C83.723 84.7477 81.0953 85.9999 78.2656 85.9999ZM80.7812 63.5312L77.3835 57.8757H81.7082L83.809 63.5312H80.7812ZM99.0037 69.0708H98.8916L98.9327 66.5215H95.7367L93.7183 85.514H97.2656L98.3645 75.1711C98.8093 71.1715 101.071 69.1904 104.226 69.1904C106.73 69.1904 107.964 70.3118 107.964 73.3545C107.964 73.7473 107.936 74.1426 107.906 74.5808L107.906 74.5841L107.9 74.6612L107.885 74.887L106.764 85.514H110.318L111.612 73.5152C111.645 73.1424 111.659 72.7681 111.653 72.3938C111.653 68.3531 109.186 66.0393 105.512 66.0393C104.269 66.0273 103.04 66.2933 101.914 66.8178C100.788 67.3424 99.7937 68.1121 99.0037 69.0708ZM115.496 85.514L118.486 57.229H122.041L120.8 69.0708C121.562 68.1115 122.653 67.3395 123.76 66.814C124.866 66.2886 126.079 66.0235 127.304 66.0393C131.023 66.0393 133.445 68.3531 133.445 72.3938C133.445 72.7452 133.445 73.1115 133.408 73.5152L132.114 85.514H128.556L129.677 74.887L129.692 74.6819C129.728 74.2029 129.759 73.7773 129.759 73.3545C129.759 70.3118 128.507 69.1904 125.999 69.1904C122.848 69.1904 120.587 71.1715 120.142 75.1711L119.05 85.514H115.496Z" fill="url(#paint1_linear_1813_21942)"/>
</g>

</svg>
