<svg width="21" height="20" viewBox="0 0 21 20" fill="none" xmlns="http://www.w3.org/2000/svg">
    <path d="M9.23689 17.9381L9.2348 17.936L7.81187 16.5298C7.8115 16.5294 7.81114 16.529 7.81077 16.5287C7.36335 16.0819 6.75171 15.8417 6.13334 15.8417H5.5C4.04765 15.8417 2.875 14.6704 2.875 13.2417V4.14166C2.875 2.71294 4.04765 1.54166 5.5 1.54166H15.5C16.9523 1.54166 18.125 2.71294 18.125 4.14166V13.2333C18.125 14.662 16.9523 15.8333 15.5 15.8333H14.8667C14.2426 15.8333 13.6345 16.0856 13.1924 16.5172L13.1924 16.5172L13.1902 16.5194L11.7652 17.9277L11.7652 17.9277L11.7598 17.9331C11.4174 18.282 10.9567 18.4583 10.5 18.4583C10.0428 18.4583 9.58027 18.2815 9.23689 17.9381ZM9.41519 17.7556L9.41677 17.7572C10.0195 18.3476 10.9888 18.3476 11.5916 17.7572L11.5932 17.7556L13.0176 16.3477C13.0178 16.3476 13.0179 16.3475 13.0181 16.3473C13.509 15.8636 14.1832 15.5833 14.875 15.5833H15.5C16.8036 15.5833 17.875 14.5319 17.875 13.2333V4.14166C17.875 2.83326 16.8022 1.79166 15.5 1.79166H5.5C4.19636 1.79166 3.125 2.84305 3.125 4.14166V13.2333C3.125 14.5417 4.19784 15.5833 5.5 15.5833H6.13334C6.82524 15.5833 7.49956 15.8637 7.99054 16.3476C7.99057 16.3477 7.99061 16.3477 7.99064 16.3477L9.41519 17.7556Z" fill="white" stroke="white"/>
    <path d="M10.4427 7.33307L10.9584 7.34918V7.26498C11.5664 7.07182 12 6.50324 12 5.83331C12 5.00716 11.3261 4.33331 10.5 4.33331C9.67387 4.33331 9 5.00716 9 5.83331C9 6.64038 9.63483 7.30782 10.4427 7.33307ZM10.5583 7.58331H10.5583H10.5582H10.5581H10.558H10.5579H10.5578H10.5577H10.5576H10.5575H10.5574H10.5573H10.5572H10.5571H10.557H10.5569H10.5568H10.5567H10.5566H10.5565H10.5564H10.5563H10.5562H10.5561H10.556H10.5559H10.5557H10.5556H10.5555H10.5554H10.5553H10.5552H10.5551H10.555H10.5549H10.5548H10.5547H10.5546H10.5545H10.5544H10.5543H10.5542H10.5541H10.554H10.5539H10.5538H10.5537H10.5536H10.5535H10.5533H10.5532H10.5531H10.553H10.5529H10.5528H10.5527H10.5526H10.5525H10.5524H10.5523H10.5522H10.5521H10.552H10.5518H10.5517H10.5516H10.5515H10.5514H10.5513H10.5512H10.5511H10.551H10.5509H10.5508H10.5507H10.5505H10.5504H10.5503H10.5502H10.5501H10.55H10.5499H10.5498H10.5497H10.5495H10.5494H10.5493H10.5492H10.5491H10.549H10.5489H10.5488H10.5487H10.5485H10.5484H10.5483H10.5482H10.5481H10.548H10.5479H10.5478H10.5476H10.5475H10.5474H10.5473H10.5472H10.5471H10.547H10.5468H10.5467H10.5466H10.5465H10.5464H10.5463H10.5462H10.546H10.5459H10.5458H10.5457H10.5456H10.5455H10.5454H10.5452H10.5451H10.545H10.5449H10.5448H10.5447H10.5445H10.5444H10.5443H10.5442H10.5441H10.544H10.5438H10.5437H10.5436H10.5435H10.5434H10.5433H10.5431H10.543H10.5429H10.5428H10.5427H10.5426H10.5424H10.5423H10.5422H10.5421H10.542H10.5419H10.5417H10.5416H10.5415H10.5414H10.5413H10.5411H10.541H10.5409H10.5408H10.5407H10.5406H10.5404H10.5403H10.5402H10.5401H10.54H10.5398H10.5397H10.5396H10.5395H10.5394H10.5392H10.5391H10.539H10.5389H10.5388H10.5386H10.5385H10.5384H10.5383H10.5382H10.538H10.5379H10.5378H10.5377H10.5376H10.5374H10.5373H10.5372H10.5371H10.537H10.5368H10.5367H10.5366H10.5365H10.5364H10.5362H10.5361H10.536H10.5359H10.5358H10.5356H10.5355H10.5354H10.5353H10.5351H10.535H10.5349H10.5348H10.5347H10.5345H10.5344H10.5343H10.5342H10.5341H10.5339H10.5338H10.5337H10.5336H10.5334H10.5333H10.5332H10.5331H10.533H10.5328H10.5327H10.5326H10.5325H10.5324H10.5322H10.5321H10.532H10.5319H10.5317H10.5316H10.5315H10.5314H10.5313H10.5311H10.531H10.5309H10.5308H10.5306H10.5305H10.5304H10.5303H10.5302H10.53H10.5299H10.5298H10.5297H10.5295H10.5294H10.5293H10.5292H10.5291H10.5289H10.5288H10.5287H10.5286H10.5284H10.5283H10.5282H10.5281H10.528H10.5278H10.5277H10.5276H10.5275H10.5273H10.5272H10.5271H10.527H10.5269H10.5267H10.5266H10.5265H10.5264H10.5263H10.5261H10.526H10.5259H10.5258H10.5256H10.5255H10.5254H10.5253H10.5252H10.525H10.5249H10.5248H10.5247H10.5245H10.5244H10.5243H10.5242H10.5241H10.5239H10.5238H10.5237H10.5236H10.5235H10.5233H10.5232H10.5231H10.523H10.5228H10.5227H10.5226H10.5225H10.5224H10.5222H10.5221H10.522H10.5219H10.5218H10.5216H10.5215H10.5214H10.5213H10.5212H10.521H10.5209H10.5208H10.5207H10.5206H10.5204H10.5203H10.5202H10.5201H10.52H10.5198H10.5197H10.5196H10.5195H10.5194H10.5192H10.5191H10.519H10.5189H10.5188H10.5186H10.5185H10.5184H10.5183H10.5182H10.518H10.5179H10.5178H10.5177H10.5176H10.5175H10.5173H10.5172H10.5171H10.517H10.5169H10.5167H10.5166H10.5165H10.5164H10.5163H10.5162H10.516H10.5159H10.5158H10.5157H10.5156H10.5154H10.5153H10.5152H10.5151H10.515H10.5149H10.5147H10.5146H10.5145H10.5144H10.5143H10.5142H10.514H10.5139H10.5138H10.5137H10.5136H10.5135H10.5134H10.5132H10.5131H10.513H10.5129H10.5128H10.5127H10.5125H10.5124H10.5123H10.5122H10.5121H10.512H10.5119H10.5117H10.5116H10.5115H10.5114H10.5113H10.5112H10.5111H10.5109H10.5108H10.5107H10.5106H10.5105H10.5104H10.5103H10.5102H10.51H10.5099H10.5098H10.5097H10.5096H10.5095H10.5094H10.5093H10.5091H10.509H10.5089H10.5088H10.5087H10.5086H10.5085H10.5084H10.5083H10.5081H10.508H10.5079H10.5078H10.5077H10.5076H10.5075H10.5074H10.5073H10.5072H10.5071H10.5069H10.5068H10.5067H10.5066H10.5065H10.5064H10.5063H10.5062H10.5061H10.506H10.5059H10.5058H10.5056H10.5055H10.5054H10.5053H10.5052H10.5051H10.505H10.5049H10.5048H10.5047H10.5046H10.5045H10.5044H10.5043H10.5042H10.5041H10.504H10.5039H10.5037H10.5036H10.5035H10.5034H10.5033H10.5032H10.5031H10.503H10.5029H10.5028H10.5027H10.5026H10.5025H10.5024H10.5023H10.5022H10.5021H10.502H10.5019H10.5018H10.5017H10.5016H10.5015H10.5014H10.5013H10.5012H10.5011H10.501H10.5009H10.5008H10.5007H10.5006H10.5005H10.5004H10.5003H10.5002H10.5001H10.5H10.4999H10.4997H10.4996H10.4994H10.4993H10.4991H10.499H10.4988H10.4987H10.4985H10.4984H10.4982H10.4981H10.4979H10.4978H10.4976H10.4975H10.4973H10.4972H10.497H10.4969H10.4967H10.4966H10.4964H10.4963H10.4961H10.496H10.4958H10.4957H10.4955H10.4954H10.4952H10.4951H10.4949H10.4948H10.4946H10.4945H10.4943H10.4942H10.494H10.4939H10.4937H10.4935H10.4934H10.4932H10.4931H10.4929H10.4928H10.4926H10.4925H10.4923H10.4922H10.492H10.4918H10.4917H10.4915H10.4914H10.4912H10.4911H10.4909H10.4907H10.4906H10.4904H10.4903H10.4901H10.49H10.4898H10.4896H10.4895H10.4893H10.4892H10.489H10.4889H10.4887H10.4885H10.4884H10.4882H10.4881H10.4879H10.4877H10.4876H10.4874H10.4873H10.4871H10.4869H10.4868H10.4866H10.4865H10.4863H10.4861H10.486H10.4858H10.4857H10.4855H10.4853H10.4852H10.485H10.4849H10.4847H10.4845H10.4844H10.4842H10.484H10.4839H10.4837H10.4836H10.4834H10.4832H10.4831H10.4829H10.4827H10.4826H10.4824H10.4823H10.4821H10.4819H10.4818H10.4816H10.4814H10.4813H10.4811H10.4809H10.4808H10.4806H10.4805H10.4803H10.4801H10.48H10.4798H10.4796H10.4795H10.4793H10.4791H10.479H10.4788H10.4786H10.4785H10.4783H10.4781H10.478H10.4778H10.4776H10.4775H10.4773H10.4771H10.477H10.4768H10.4766H10.4765H10.4763H10.4761H10.476H10.4758H10.4756H10.4755H10.4753H10.4751H10.475H10.4748H10.4746H10.4745H10.4743H10.4741H10.474H10.4738H10.4736H10.4735H10.4733H10.4731H10.473H10.4728H10.4726H10.4725H10.4723H10.4721H10.472H10.4718H10.4716H10.4715H10.4713H10.4711H10.4709H10.4708H10.4706H10.4704H10.4703H10.4701H10.4699H10.4698H10.4696H10.4694H10.4693H10.4691H10.4689H10.4687H10.4686H10.4684H10.4682H10.4681H10.4679H10.4677H10.4676H10.4674H10.4672H10.4671H10.4669H10.4667H10.4665H10.4664H10.4662H10.466H10.4659H10.4657H10.4655H10.4653H10.4652H10.465H10.4648H10.4647H10.4645H10.4643H10.4642H10.464H10.4638H10.4636H10.4635H10.4633H10.4631H10.463H10.4628H10.4626H10.4625H10.4623H10.4621H10.4619H10.4618H10.4616H10.4614H10.4613H10.4611H10.4609H10.4607H10.4606H10.4604H10.4602H10.4601H10.4599H10.4597H10.4595H10.4594H10.4592H10.459H10.4589H10.4587H10.4585H10.4584H10.4582H10.458H10.4578H10.4577H10.4575H10.4573H10.4572H10.457H10.4568H10.4566H10.4565H10.4563H10.4561H10.456H10.4558H10.4556H10.4555H10.4553H10.4551H10.4549H10.4548H10.4546H10.4544H10.4543H10.4541H10.4539H10.4537H10.4536H10.4534H10.4532H10.4531H10.4529H10.4527H10.4526H10.4524H10.4522H10.452H10.4519H10.4517H10.4515H10.4514H10.4512H10.451H10.4508H10.4507H10.4505H10.4503H10.4502H10.45H10.4498H10.4497H10.4495H10.4493H10.4491H10.449H10.4488H10.4486H10.4485H10.4483H10.4481H10.448H10.4478H10.4476H10.4475H10.4473H10.4471H10.4469H10.4468H10.4466H10.4464H10.4463H10.4461H10.4459H10.4458H10.4456H10.4454H10.4453H10.4451H10.4449H10.4448H10.4446H10.4444H10.4442H10.4441H10.4439H10.4437H10.4436H10.4434H10.4432H10.4431H10.4429H10.4427H10.4426H10.4424H10.4422H10.4421H10.4419H10.4417H10.4416H10.4414H10.4412H10.4411H10.4409H10.4407H10.4406H10.4404H10.4402H10.4401H10.4399H10.4397H10.4396H10.4394H10.4392H10.4391H10.4389H10.4387H10.4386H10.4384H10.4382H10.4381H10.4379H10.4377H10.4376H10.4374H10.4372H10.4371H10.4369H10.4367H10.4366H10.4364H10.4363H10.4361H10.4359H10.4358H10.4356H10.4354H10.4353H10.4351H10.4349H10.4348H10.4346H10.4344H10.4343H10.4341H10.434H10.4338H10.4336H10.4335H10.4333H10.4331H10.433H10.4328H10.4327H10.4325H10.4323H10.4322H10.432H10.4318H10.4317H10.4315H10.4314H10.4312H10.431H10.4309H10.4307H10.4306H10.4304H10.4302H10.4301H10.4299H10.4298H10.4296H10.4294H10.4293H10.4291H10.429H10.4288H10.4286H10.4285H10.4283H10.4282H10.428H10.4278H10.4277H10.4275H10.4274H10.4272H10.4271H10.4269H10.4267H10.4266H10.4264H10.4263H10.4261H10.426H10.4258H10.4258C9.48345 7.54689 8.75 6.78728 8.75 5.83331C8.75 4.86779 9.53448 4.08331 10.5 4.08331C11.465 4.08331 12.2491 4.86687 12.25 5.8316C12.2427 6.78801 11.5071 7.54693 10.566 7.58331H10.5659H10.5659H10.5658H10.5658H10.5657H10.5657H10.5656H10.5656H10.5656H10.5655H10.5655H10.5654H10.5654H10.5653H10.5653H10.5652H10.5652H10.5652H10.5651H10.5651H10.565H10.565H10.5649H10.5649H10.5648H10.5648H10.5647H10.5647H10.5647H10.5646H10.5646H10.5645H10.5645H10.5644H10.5644H10.5643H10.5643H10.5642H10.5642H10.5642H10.5641H10.5641H10.564H10.564H10.5639H10.5639H10.5638H10.5638H10.5637H10.5637H10.5636H10.5636H10.5635H10.5635H10.5635H10.5634H10.5634H10.5633H10.5633H10.5632H10.5632H10.5631H10.5631H10.563H10.563H10.5629H10.5629H10.5628H10.5628H10.5627H10.5627H10.5627H10.5626H10.5626H10.5625H10.5625H10.5624H10.5624H10.5623H10.5623H10.5622H10.5622H10.5621H10.5621H10.562H10.562H10.5619H10.5619H10.5618H10.5618H10.5617H10.5617H10.5617H10.5616H10.5616H10.5615H10.5615H10.5614H10.5614H10.5613H10.5613H10.5612H10.5612H10.5611H10.5611H10.561H10.561H10.5609H10.5609H10.5608H10.5608H10.5607H10.5607H10.5606H10.5606H10.5605H10.5605H10.5604H10.5604H10.5603H10.5603H10.5603H10.5602H10.5602H10.5601H10.5601H10.56H10.56H10.5599H10.5599H10.5598H10.5598H10.5597H10.5597H10.5596H10.5596H10.5595H10.5595H10.5594H10.5594H10.5593H10.5593H10.5592H10.5592H10.5591H10.5591H10.559H10.559H10.5589H10.5589H10.5588H10.5588H10.5587H10.5587H10.5586H10.5586H10.5585H10.5585H10.5584H10.5584H10.5583Z" fill="white" stroke="white"/>
    <path d="M8.13343 9.86755L8.13343 9.86756L8.13462 9.86677C8.78026 9.43876 9.62985 9.21252 10.499 9.21252C11.3682 9.21252 12.2151 9.43879 12.856 9.86605C13.4475 10.2604 13.7417 10.8009 13.7417 11.3084C13.7417 11.8254 13.4545 12.3576 12.8548 12.7598L12.8548 12.7597L12.8516 12.7619C12.2185 13.1936 11.3725 13.4167 10.5 13.4167C9.63164 13.4167 8.78182 13.1872 8.13513 12.7586C7.54302 12.3637 7.25 11.8313 7.25 11.3167C7.25 10.7973 7.53925 10.259 8.13343 9.86755ZM8.27187 10.0762L8.27187 10.0762L8.27041 10.0772C7.84081 10.3669 7.5 10.792 7.5 11.3167C7.5 11.8455 7.85447 12.2691 8.26588 12.5531L8.26585 12.5532L8.27187 12.5572C8.90197 12.9789 9.71356 13.1729 10.4958 13.1729C11.2781 13.1729 12.0897 12.9789 12.7198 12.5572L12.7213 12.5562C13.1383 12.275 13.5037 11.8484 13.4916 11.3096C13.4885 10.784 13.1353 10.363 12.7258 10.0802L12.7258 10.0802L12.7213 10.0772C12.0943 9.65421 11.2817 9.46044 10.499 9.46044C9.71602 9.46044 8.90222 9.65428 8.27187 10.0762Z" fill="white" stroke="white"/>
</svg>
