<svg width="20" height="20" viewBox="0 0 20 20" fill="none" xmlns="http://www.w3.org/2000/svg">
<g clip-path="url(#clip0_559_35427)">
<path d="M10.8333 11.6666H9.16667C7.79967 11.6661 6.45853 12.0393 5.28823 12.7457C4.11793 13.4522 3.163 14.4651 2.52667 15.675C2.50878 15.4504 2.49989 15.2252 2.5 15C2.5 10.3975 6.23083 6.66665 10.8333 6.66665V2.08331L19.5833 9.16665L10.8333 16.25V11.6666ZM9.16667 9.99998H12.5V12.7566L16.9342 9.16665L12.5 5.57665V8.33331H10.8333C9.87521 8.33224 8.92816 8.53816 8.05699 8.937C7.18582 9.33583 6.4111 9.91817 5.78583 10.6441C6.86193 10.2177 8.00914 9.99908 9.16667 9.99998Z" fill="#253645"/>
</g>
<defs>
<clipPath id="clip0_559_35427">
<rect width="20" height="20" fill="white"/>
</clipPath>
</defs>
</svg>
