<svg width="141" height="140" viewBox="0 0 141 140" fill="none" xmlns="http://www.w3.org/2000/svg">
<g clip-path="url(#clip0_2462_2222)">
<rect x="-0.170898" y="70.672" width="99.9441" height="99.9441" rx="14.1818" transform="rotate(-45 -0.170898 70.672)" fill="#E3EEFF"/>
<mask id="mask0_2462_2222" style="mask-type:alpha" maskUnits="userSpaceOnUse" x="5" y="5" width="131" height="131">
<rect x="-0.170898" y="70.6714" width="99.9441" height="99.9441" rx="14.1818" transform="rotate(-45 -0.170898 70.6714)" fill="#E3EEFF"/>
</mask>
<g mask="url(#mask0_2462_2222)">
<ellipse cx="35.6208" cy="62.6358" rx="57.8176" ry="70.8953" fill="#F1F7FE"/>
</g>
<path d="M37.4886 49.9771C30.0389 49.9771 24 43.938 24 36.4886C24 29.0391 30.0391 23 37.4886 23C44.938 23 50.9771 29.0391 50.9771 36.4886C50.9771 43.938 44.938 49.9771 37.4886 49.9771Z" fill="#6D85DE"/>
<path opacity="0.5" d="M37.4886 23C35.8448 23 34.27 23.2948 32.8132 23.8332C37.9581 25.7346 41.6264 30.6829 41.6264 36.4886C41.6264 42.2942 37.9581 47.2426 32.8132 49.1439C34.27 49.6821 35.8446 49.9771 37.4886 49.9771C44.938 49.9771 50.9772 43.9382 50.9772 36.4886C50.9772 29.0389 44.938 23 37.4886 23Z" fill="#4463D5"/>
<path d="M38.2967 30.691L39.5195 33.1634C39.6507 33.4287 39.9044 33.6127 40.1978 33.6552L42.9321 34.0516C43.671 34.1587 43.9662 35.0648 43.4313 35.5849L41.4526 37.5093C41.2402 37.7158 41.1433 38.0133 41.1935 38.3051L41.6605 41.0227C41.7867 41.757 41.0142 42.317 40.3535 41.9703L37.9078 40.6873C37.6452 40.5496 37.3318 40.5496 37.0693 40.6873L34.6236 41.9703C33.9626 42.317 33.1902 41.757 33.3166 41.0227L33.7836 38.3051C33.8337 38.0135 33.7368 37.7161 33.5244 37.5093L31.5457 35.5849C31.0111 35.0648 31.3061 34.1587 32.0449 34.0516L34.7793 33.6552C35.0727 33.6125 35.3264 33.4287 35.4575 33.1634L36.6804 30.691C37.0114 30.0229 37.9663 30.0229 38.2967 30.691Z" fill="white"/>
<path d="M71.1045 49.9771C63.6549 49.9771 57.616 43.938 57.616 36.4886C57.616 29.0391 63.6551 23 71.1045 23C78.5539 23 84.5931 29.0391 84.5931 36.4886C84.5931 43.938 78.5539 49.9771 71.1045 49.9771Z" fill="#6D85DE"/>
<path opacity="0.5" d="M71.1043 23C69.4606 23 67.8858 23.2948 66.429 23.8332C71.5738 25.7346 75.2421 30.6829 75.2421 36.4886C75.2421 42.2942 71.5738 47.2426 66.429 49.1439C67.8858 49.6821 69.4603 49.9771 71.1043 49.9771C78.5538 49.9771 84.5929 43.9382 84.5929 36.4886C84.5929 29.0389 78.5538 23 71.1043 23Z" fill="#4463D5"/>
<path d="M71.9124 30.691L73.1353 33.1634C73.2664 33.4287 73.5201 33.6127 73.8135 33.6552L76.5478 34.0516C77.2867 34.1587 77.5819 35.0648 77.0471 35.5849L75.0684 37.5093C74.856 37.7158 74.7591 38.0133 74.8092 38.3051L75.2762 41.0227C75.4024 41.757 74.63 42.317 73.9692 41.9703L71.5235 40.6873C71.2609 40.5496 70.9476 40.5496 70.685 40.6873L68.2393 41.9703C67.5783 42.317 66.8059 41.757 66.9323 41.0227L67.3993 38.3051C67.4494 38.0135 67.3525 37.7161 67.1401 37.5093L65.1614 35.5849C64.6268 35.0648 64.9218 34.1587 65.6606 34.0516L68.395 33.6552C68.6884 33.6125 68.9421 33.4287 69.0732 33.1634L70.2961 30.691C70.6272 30.0229 71.582 30.0229 71.9124 30.691Z" fill="white"/>
<path d="M104.721 49.9771C97.2711 49.9771 91.2322 43.938 91.2322 36.4886C91.2322 29.0391 97.2713 23 104.721 23C112.17 23 118.209 29.0391 118.209 36.4886C118.209 43.938 112.17 49.9771 104.721 49.9771Z" fill="#6D85DE"/>
<path opacity="0.5" d="M104.721 23C103.077 23 101.502 23.2948 100.045 23.8332C105.19 25.7346 108.859 30.6829 108.859 36.4886C108.859 42.2942 105.19 47.2426 100.045 49.1439C101.502 49.6821 103.077 49.9771 104.721 49.9771C112.17 49.9771 118.209 43.9382 118.209 36.4886C118.209 29.0389 112.17 23 104.721 23Z" fill="#4463D5"/>
<path d="M105.529 30.691L106.752 33.1634C106.883 33.4287 107.137 33.6127 107.43 33.6552L110.164 34.0516C110.903 34.1587 111.198 35.0648 110.664 35.5849L108.685 37.5093C108.472 37.7158 108.376 38.0133 108.426 38.3051L108.893 41.0227C109.019 41.757 108.246 42.317 107.586 41.9703L105.14 40.6873C104.877 40.5496 104.564 40.5496 104.301 40.6873L101.856 41.9703C101.195 42.317 100.422 41.757 100.549 41.0227L101.016 38.3051C101.066 38.0135 100.969 37.7161 100.757 37.5093L98.7779 35.5849C98.2433 35.0648 98.5383 34.1587 99.2771 34.0516L102.011 33.6552C102.305 33.6125 102.559 33.4287 102.69 33.1634L103.913 30.691C104.244 30.0229 105.198 30.0229 105.529 30.691Z" fill="white"/>
<path d="M37.4886 83.5931C30.0389 83.5931 24 77.5539 24 70.1045C24 62.6551 30.0391 56.616 37.4886 56.616C44.938 56.616 50.9771 62.6551 50.9771 70.1045C50.9771 77.5539 44.938 83.5931 37.4886 83.5931Z" fill="#6D85DE"/>
<path opacity="0.5" d="M37.4886 56.6162C35.8448 56.6162 34.27 56.911 32.8132 57.4494C37.9581 59.3508 41.6264 64.2991 41.6264 70.1048C41.6264 75.9104 37.9581 80.8588 32.8132 82.7601C34.27 83.2983 35.8446 83.5933 37.4886 83.5933C44.938 83.5933 50.9772 77.5544 50.9772 70.1048C50.9772 62.6551 44.938 56.6162 37.4886 56.6162Z" fill="#4463D5"/>
<path d="M38.2967 64.3072L39.5195 66.7797C39.6507 67.0449 39.9044 67.229 40.1978 67.2714L42.9321 67.6678C43.671 67.7749 43.9662 68.681 43.4313 69.2011L41.4526 71.1255C41.2402 71.332 41.1433 71.6295 41.1935 71.9213L41.6605 74.6389C41.7867 75.3732 41.0142 75.9332 40.3535 75.5865L37.9078 74.3035C37.6452 74.1658 37.3318 74.1658 37.0693 74.3035L34.6236 75.5865C33.9626 75.9332 33.1902 75.3732 33.3166 74.6389L33.7836 71.9213C33.8337 71.6298 33.7368 71.3323 33.5244 71.1255L31.5457 69.2011C31.0111 68.681 31.3061 67.7749 32.0449 67.6678L34.7793 67.2714C35.0727 67.2287 35.3264 67.0449 35.4575 66.7797L36.6804 64.3072C37.0114 63.6391 37.9663 63.6391 38.2967 64.3072Z" fill="white"/>
<path d="M71.1045 83.5933C63.6549 83.5933 57.616 77.5542 57.616 70.1048C57.616 62.6553 63.6551 56.6162 71.1045 56.6162C78.5539 56.6162 84.5931 62.6553 84.5931 70.1048C84.5931 77.5542 78.5539 83.5933 71.1045 83.5933Z" fill="#6D85DE"/>
<path opacity="0.5" d="M71.1043 56.6165C69.4606 56.6165 67.8858 56.9112 66.429 57.4497C71.5738 59.351 75.2421 64.2994 75.2421 70.105C75.2421 75.9107 71.5738 80.859 66.429 82.7603C67.8858 83.2986 69.4603 83.5936 71.1043 83.5936C78.5538 83.5936 84.5929 77.5547 84.5929 70.105C84.5929 62.6554 78.5538 56.6165 71.1043 56.6165Z" fill="#4463D5"/>
<path d="M71.9124 64.3074L73.1353 66.7799C73.2664 67.0452 73.5201 67.2292 73.8135 67.2716L76.5478 67.6681C77.2867 67.7752 77.5819 68.6812 77.0471 69.2013L75.0684 71.1258C74.856 71.3323 74.7591 71.6298 74.8092 71.9216L75.2762 74.6391C75.4024 75.3734 74.63 75.9335 73.9692 75.5867L71.5235 74.3038C71.2609 74.166 70.9476 74.166 70.685 74.3038L68.2393 75.5867C67.5783 75.9335 66.8059 75.3734 66.9323 74.6391L67.3993 71.9216C67.4494 71.63 67.3525 71.3325 67.1401 71.1258L65.1614 69.2013C64.6268 68.6812 64.9218 67.7752 65.6606 67.6681L68.395 67.2716C68.6884 67.229 68.9421 67.0452 69.0732 66.7799L70.2961 64.3074C70.6272 63.6394 71.582 63.6394 71.9124 64.3074Z" fill="white"/>
<path d="M104.721 83.5931C97.2711 83.5931 91.2322 77.5539 91.2322 70.1045C91.2322 62.6551 97.2713 56.616 104.721 56.616C112.17 56.616 118.209 62.6551 118.209 70.1045C118.209 77.5539 112.17 83.5931 104.721 83.5931Z" fill="#6D85DE"/>
<path opacity="0.5" d="M104.721 56.616C103.077 56.616 101.502 56.9107 100.045 57.4492C105.19 59.3505 108.859 64.2989 108.859 70.1045C108.859 75.9102 105.19 80.8585 100.045 82.7599C101.502 83.2981 103.077 83.5931 104.721 83.5931C112.17 83.5931 118.209 77.5542 118.209 70.1045C118.209 62.6549 112.17 56.616 104.721 56.616Z" fill="#4463D5"/>
<path d="M105.529 64.3069L106.752 66.7794C106.883 67.0447 107.137 67.2287 107.43 67.2711L110.164 67.6676C110.903 67.7747 111.198 68.6807 110.664 69.2008L108.685 71.1253C108.472 71.3318 108.376 71.6293 108.426 71.9211L108.893 74.6386C109.019 75.3729 108.246 75.933 107.586 75.5862L105.14 74.3033C104.877 74.1655 104.564 74.1655 104.301 74.3033L101.856 75.5862C101.195 75.933 100.422 75.3729 100.549 74.6386L101.016 71.9211C101.066 71.6295 100.969 71.332 100.757 71.1253L98.7779 69.2008C98.2433 68.6807 98.5383 67.7747 99.2771 67.6676L102.011 67.2711C102.305 67.2285 102.559 67.0447 102.69 66.7794L103.913 64.3069C104.244 63.6389 105.198 63.6389 105.529 64.3069Z" fill="white"/>
<path d="M37.4886 117.209C30.0389 117.209 24 111.17 24 103.72C24 96.2711 30.0391 90.2319 37.4886 90.2319C44.938 90.2319 50.9771 96.2711 50.9771 103.72C50.9771 111.17 44.938 117.209 37.4886 117.209Z" fill="#6D85DE"/>
<path opacity="0.5" d="M37.4886 90.2319C35.8448 90.2319 34.27 90.5267 32.8132 91.0652C37.9581 92.9665 41.6264 97.9149 41.6264 103.72C41.6264 109.526 37.9581 114.474 32.8132 116.376C34.27 116.914 35.8446 117.209 37.4886 117.209C44.938 117.209 50.9772 111.17 50.9772 103.72C50.9772 96.2708 44.938 90.2319 37.4886 90.2319Z" fill="#4463D5"/>
<path d="M38.2967 97.9229L39.5195 100.395C39.6507 100.661 39.9044 100.845 40.1978 100.887L42.9321 101.284C43.671 101.391 43.9662 102.297 43.4313 102.817L41.4526 104.741C41.2402 104.948 41.1433 105.245 41.1935 105.537L41.6605 108.255C41.7867 108.989 41.0142 109.549 40.3535 109.202L37.9078 107.919C37.6452 107.781 37.3318 107.781 37.0693 107.919L34.6236 109.202C33.9626 109.549 33.1902 108.989 33.3166 108.255L33.7836 105.537C33.8337 105.245 33.7368 104.948 33.5244 104.741L31.5457 102.817C31.0111 102.297 31.3061 101.391 32.0449 101.284L34.7793 100.887C35.0727 100.844 35.3264 100.661 35.4575 100.395L36.6804 97.9229C37.0114 97.2549 37.9663 97.2549 38.2967 97.9229Z" fill="white"/>
<path d="M71.1045 117.209C63.6549 117.209 57.616 111.17 57.616 103.72C57.616 96.2711 63.6551 90.2319 71.1045 90.2319C78.5539 90.2319 84.5931 96.2711 84.5931 103.72C84.5931 111.17 78.5539 117.209 71.1045 117.209Z" fill="#6D85DE"/>
<path opacity="0.5" d="M71.1043 90.2319C69.4606 90.2319 67.8858 90.5267 66.429 91.0652C71.5738 92.9665 75.2421 97.9149 75.2421 103.72C75.2421 109.526 71.5738 114.474 66.429 116.376C67.8858 116.914 69.4603 117.209 71.1043 117.209C78.5538 117.209 84.5929 111.17 84.5929 103.72C84.5929 96.2708 78.5538 90.2319 71.1043 90.2319Z" fill="#4463D5"/>
<path d="M71.9124 97.9229L73.1353 100.395C73.2664 100.661 73.5201 100.845 73.8135 100.887L76.5478 101.284C77.2867 101.391 77.5819 102.297 77.0471 102.817L75.0684 104.741C74.856 104.948 74.7591 105.245 74.8092 105.537L75.2762 108.255C75.4024 108.989 74.63 109.549 73.9692 109.202L71.5235 107.919C71.2609 107.781 70.9476 107.781 70.685 107.919L68.2393 109.202C67.5783 109.549 66.8059 108.989 66.9323 108.255L67.3993 105.537C67.4494 105.245 67.3525 104.948 67.1401 104.741L65.1614 102.817C64.6268 102.297 64.9218 101.391 65.6606 101.284L68.395 100.887C68.6884 100.844 68.9421 100.661 69.0732 100.395L70.2961 97.9229C70.6272 97.2549 71.582 97.2549 71.9124 97.9229Z" fill="white"/>
<path d="M104.721 116.459C97.6853 116.459 91.9822 110.756 91.9822 103.72C91.9822 96.6853 97.6855 90.9819 104.721 90.9819C111.756 90.9819 117.459 96.6853 117.459 103.72C117.459 110.756 111.756 116.459 104.721 116.459Z" fill="url(#paint0_linear_2462_2222)" stroke="url(#paint1_linear_2462_2222)" stroke-width="1.5"/>
<path opacity="0.3" d="M104.721 90.2319C103.077 90.2319 101.502 90.5267 100.045 91.0652C105.19 92.9665 108.859 97.9149 108.859 103.72C108.859 109.526 105.19 114.474 100.045 116.376C101.502 116.914 103.077 117.209 104.721 117.209C112.17 117.209 118.209 111.17 118.209 103.72C118.209 96.2708 112.17 90.2319 104.721 90.2319Z" fill="#F57E25"/>
<path d="M105.529 97.9229L106.752 100.395C106.883 100.661 107.137 100.845 107.43 100.887L110.164 101.284C110.903 101.391 111.198 102.297 110.664 102.817L108.685 104.741C108.472 104.948 108.376 105.245 108.426 105.537L108.893 108.255C109.019 108.989 108.246 109.549 107.586 109.202L105.14 107.919C104.877 107.781 104.564 107.781 104.301 107.919L101.856 109.202C101.195 109.549 100.422 108.989 100.549 108.255L101.016 105.537C101.066 105.245 100.969 104.948 100.757 104.741L98.7779 102.817C98.2433 102.297 98.5383 101.391 99.2771 101.284L102.011 100.887C102.305 100.844 102.559 100.661 102.69 100.395L103.913 97.9229C104.244 97.2549 105.198 97.2549 105.529 97.9229Z" fill="#FEEE63"/>
<path fill-rule="evenodd" clip-rule="evenodd" d="M127.749 96.8745C125.605 96.8745 123.874 95.1316 123.874 93C123.874 95.1316 122.132 96.8745 120 96.8745C122.132 96.8745 123.874 98.6048 123.874 100.749C123.874 98.6048 125.605 96.8745 127.749 96.8745Z" fill="#F57E25"/>
<path fill-rule="evenodd" clip-rule="evenodd" d="M125.429 89.7146C122.821 89.7146 120.715 87.6081 120.715 85C120.715 87.6081 118.608 89.7146 116 89.7146C118.608 89.7146 120.715 91.8211 120.715 94.4292C120.715 91.8211 122.821 89.7146 125.429 89.7146Z" fill="#F57E25"/>
</g>
<defs>
<linearGradient id="paint0_linear_2462_2222" x1="91.2322" y1="117.209" x2="119.227" y2="116.263" gradientUnits="userSpaceOnUse">
<stop stop-color="#F0893B"/>
<stop offset="1" stop-color="#EBC232"/>
</linearGradient>
<linearGradient id="paint1_linear_2462_2222" x1="91.8805" y1="100.723" x2="118.021" y2="105.702" gradientUnits="userSpaceOnUse">
<stop stop-color="#FFB800"/>
<stop offset="1" stop-color="#FFA800"/>
</linearGradient>
<clipPath id="clip0_2462_2222">
<rect width="140" height="140" fill="white" transform="translate(0.5)"/>
</clipPath>
</defs>
</svg>
