<svg width="44" height="44" viewBox="0 0 44 44" fill="none" xmlns="http://www.w3.org/2000/svg">
<path opacity="0.4" d="M36.1667 15.1253V33.0003C36.1667 35.648 35.3807 37.3251 34.1926 38.3511C32.9908 39.3889 31.294 39.8337 29.3334 39.8337H14.6667C12.7061 39.8337 11.0092 39.3889 9.80746 38.3511C8.61938 37.3251 7.83337 35.648 7.83337 33.0003V15.1253C7.83337 12.2358 8.62626 10.572 9.79779 9.61085C10.8943 8.71132 12.4118 8.35081 14.1941 8.29873C14.311 9.37079 14.7947 10.3321 15.5231 11.0605C16.3646 11.902 17.5169 12.417 18.7917 12.417H25.2084C27.5866 12.417 29.5525 10.6109 29.8058 8.29873C31.5882 8.35079 33.1058 8.71129 34.2023 9.61085C35.3738 10.572 36.1667 12.2358 36.1667 15.1253Z" fill="#2563EB" stroke="#2563EB" stroke-opacity="0.2"/>
<path d="M28.8333 7.79199C28.8333 9.78918 27.2055 11.417 25.2083 11.417H18.7916C17.7931 11.417 16.892 11.0153 16.2301 10.3534C15.5683 9.69158 15.1666 8.79057 15.1666 7.79199C15.1666 5.7948 16.7944 4.16699 18.7916 4.16699H25.2083C26.2069 4.16699 27.1079 4.5687 27.7698 5.23055C28.4316 5.8924 28.8333 6.79342 28.8333 7.79199Z" fill="#2563EB" stroke="#2563EB"/>
<path d="M22 25.208H14.6666C13.915 25.208 13.2916 24.5847 13.2916 23.833C13.2916 23.0813 13.915 22.458 14.6666 22.458H22C22.7516 22.458 23.375 23.0813 23.375 23.833C23.375 24.5847 22.7516 25.208 22 25.208Z" fill="#2563EB"/>
<path d="M29.3333 32.542H14.6666C13.915 32.542 13.2916 31.9187 13.2916 31.167C13.2916 30.4153 13.915 29.792 14.6666 29.792H29.3333C30.085 29.792 30.7083 30.4153 30.7083 31.167C30.7083 31.9187 30.085 32.542 29.3333 32.542Z" fill="#2563EB"/>
</svg>
