    <svg width="45" height="44" viewBox="0 0 45 44" fill="none" xmlns="http://www.w3.org/2000/svg">
<path opacity="0.4" d="M37.895 24.4382C37.895 32.9406 31.0024 39.8332 22.5 39.8332C13.9976 39.8332 7.10498 32.9406 7.10498 24.4382C7.10498 15.9358 13.9976 9.04321 22.5 9.04321C31.0024 9.04321 37.895 15.9358 37.895 24.4382Z" fill="#2563EB" stroke="#2563EB" stroke-opacity="0.2"/>
<path d="M22.5 24.7084C22.0245 24.7084 21.625 24.3089 21.625 23.8334V14.6667C21.625 14.1912 22.0245 13.7917 22.5 13.7917C22.9755 13.7917 23.375 14.1912 23.375 14.6667V23.8334C23.375 24.3089 22.9755 24.7084 22.5 24.7084Z" fill="#2563EB" stroke="#2563EB"/>
<path d="M27.7983 5.82508H17.2016C16.7444 5.82508 16.3816 5.46227 16.3816 5.00508C16.3816 4.53887 16.7533 4.16675 17.2016 4.16675H27.7983C28.2554 4.16675 28.6183 4.52956 28.6183 4.98675C28.6183 5.45296 28.2465 5.82508 27.7983 5.82508Z" fill="#2563EB" stroke="#2563EB"/>
</svg>
