<svg width="28" height="29" viewBox="0 0 28 29" fill="none" xmlns="http://www.w3.org/2000/svg">
<path d="M14 26.5416C7.35781 26.5416 1.95834 21.1422 1.95834 14.5C1.95834 7.85779 7.35781 2.45831 14 2.45831C20.6422 2.45831 26.0417 7.85779 26.0417 14.5C26.0417 21.1422 20.6422 26.5416 14 26.5416ZM14 3.20831C7.77386 3.20831 2.70834 8.27384 2.70834 14.5C2.70834 20.7261 7.77386 25.7916 14 25.7916C20.2261 25.7916 25.2917 20.7261 25.2917 14.5C25.2917 8.27384 20.2261 3.20831 14 3.20831Z" fill="#16B14B" stroke="white"/>
<path d="M11.9898 16.9185L12.3433 17.2721L12.6969 16.9185L18.6936 10.9219C18.8366 10.7788 19.08 10.7788 19.2231 10.9219C19.3662 11.0649 19.3662 11.3084 19.2231 11.4514L12.6081 18.0664C12.5375 18.1371 12.4426 18.1767 12.3433 18.1767C12.2441 18.1767 12.1492 18.1371 12.0786 18.0664L8.77689 14.7648C8.63381 14.6217 8.63381 14.3783 8.77689 14.2352C8.91996 14.0921 9.16337 14.0921 9.30645 14.2352L11.9898 16.9185Z" fill="white" stroke="white"/>
</svg>
