<svg width="44" height="44" viewBox="0 0 44 44" fill="none" xmlns="http://www.w3.org/2000/svg">
<path d="M29.7867 10.2118V10.7118H30.2867H30.7267C34.4446 10.7118 36.8746 11.5623 38.2941 13.1321C39.8632 14.868 39.9249 17.1984 39.7811 19.031C39.7718 19.0991 39.7667 19.1583 39.7627 19.2041L39.7619 19.2137C39.7573 19.2666 39.7541 19.2994 39.7485 19.3329L39.7461 19.3475L39.7445 19.3622L39.6531 20.2216L39.6528 20.2239L39.601 20.6901C38.8745 21.2214 38.1308 21.703 37.3373 22.1515L37.3372 22.1514L37.3261 22.158C37.2648 22.1948 37.2284 22.2186 37.1998 22.2373C37.1614 22.2624 37.137 22.2784 37.0848 22.3046L37.0702 22.3119L37.0561 22.3201C33.8456 24.1959 30.2924 25.4764 26.6135 26.0715L26.2231 26.1347L26.1947 26.5291C26.1341 27.3676 25.9227 28.1699 25.3298 28.7685C24.7417 29.3622 23.6914 29.8418 21.7617 29.8418C19.8337 29.8418 18.7922 29.3585 18.2079 28.7668C17.6171 28.1683 17.4061 27.3721 17.3278 26.5541L17.291 26.1701L16.9101 26.1082C13.4622 25.5486 10.0702 24.4115 6.98756 22.717L6.98757 22.7169L6.98199 22.7139C6.7037 22.5655 6.44701 22.4283 6.21041 22.2762L6.19689 22.2675L6.18285 22.2597C5.57914 21.9243 5.00378 21.5556 4.43646 21.1789L4.27444 19.4777L4.27333 19.466L4.27167 19.4544L4.25487 19.3368C4.07336 17.4948 4.05091 14.9897 5.7063 13.15C7.12607 11.5803 9.53787 10.7301 13.2734 10.7301H13.7134H14.2134V10.2301V10.1385C14.2134 8.57299 14.2276 7.00897 14.9956 5.814C15.7273 4.6756 17.2454 3.74512 20.6067 3.74512H23.3934C26.7556 3.74512 28.2733 4.67155 29.0046 5.80745C29.7724 6.9999 29.7867 8.56343 29.7867 10.1385V10.2118ZM19.4884 22.5634H18.9884V23.0634V25.3735V25.4003C18.9883 25.8454 18.9883 26.2428 19.0271 26.5681C19.067 26.9027 19.1553 27.2414 19.3946 27.5139C19.6379 27.7908 19.9722 27.9263 20.3439 27.9989C20.7116 28.0706 21.1755 28.0918 21.7434 28.0918C22.3088 28.0918 22.7713 28.0742 23.1368 28.0075C23.5056 27.9402 23.8433 27.8114 24.0897 27.5349C24.3323 27.2628 24.4201 26.9208 24.4597 26.5826C24.4984 26.2526 24.4984 25.8454 24.4984 25.3825V25.3551V23.0634V22.5634H23.9984H19.4884ZM27.665 10.7301H28.165V10.2301V10.1385V10.1132C28.165 9.35898 28.165 8.67927 28.0946 8.10319C28.0228 7.51651 27.8721 6.97523 27.5245 6.53212C27.1709 6.08141 26.6614 5.79199 25.9904 5.61506C25.328 5.44037 24.4768 5.36678 23.3934 5.36678H20.6067C19.5236 5.36678 18.6728 5.43918 18.0107 5.6122C17.3402 5.78742 16.8302 6.07475 16.4761 6.52461C16.1279 6.96689 15.9772 7.50809 15.9055 8.09555C15.835 8.67244 15.835 9.35438 15.835 10.113V10.1385V10.2118V10.2301V10.7301H16.335H27.665Z" fill="#2563EB" stroke="#2563EB"/>
<path opacity="0.4" d="M37.8315 22.9841C38.4092 22.6696 38.9681 22.323 39.513 21.9562L38.461 33.2777C38.4609 33.2787 38.4608 33.2798 38.4607 33.2808C38.2721 35.0742 37.8178 36.7853 36.5122 38.0596C35.2092 39.3312 32.9669 40.2549 29.0033 40.2549H15.0333C11.0697 40.2549 8.82714 39.3313 7.52411 38.0616C6.21846 36.7894 5.7644 35.0827 5.57584 33.2987L4.55587 22.4135C4.91967 22.645 5.29471 22.8729 5.6833 23.0893C5.9531 23.2617 6.238 23.4136 6.50282 23.5549L6.50757 23.5574C9.58212 25.2649 12.949 26.4165 16.3748 26.9972C16.489 27.8194 16.7721 28.7175 17.4905 29.4404C18.3298 30.2852 19.6761 30.8049 21.7616 30.8049C23.8484 30.8049 25.1953 30.28 26.0344 29.4273C26.7539 28.6963 27.0361 27.788 27.1494 26.9569C30.8142 26.3021 34.352 25.0213 37.5605 23.1466L37.5606 23.1466L37.5655 23.1437L37.8315 22.9841Z" fill="#2563EB" stroke="#2563EB" stroke-opacity="0.2"/>
</svg>
