<svg width="44" height="44" viewBox="0 0 44 44" fill="none" xmlns="http://www.w3.org/2000/svg">
<path opacity="0.4" d="M14.3367 4.77148H29.6817C32.9183 4.77148 35.4419 5.7387 37.156 7.45709C38.8703 9.17566 39.8334 11.7042 39.8334 14.9415V30.2682C39.8334 33.5054 38.8704 36.0291 37.1565 37.7429C35.4426 39.4568 32.9189 40.4198 29.6817 40.4198H14.3367C11.0995 40.4198 8.57582 39.4568 6.86194 37.7429C5.14807 36.0291 4.18506 33.5054 4.18506 30.2682V14.9232C4.18506 11.6859 5.14807 9.16225 6.86194 7.44837C8.57582 5.7345 11.0995 4.77148 14.3367 4.77148Z" fill="#2563EB" stroke="#2563EB" stroke-opacity="0.2"/>
<path d="M21.0859 21.1583L21.0825 21.1565L14.1921 17.4364C13.8636 17.2528 13.645 16.893 13.645 16.4631C13.645 16.0332 13.8636 15.6734 14.1921 15.4898L21.0798 11.7712C21.6663 11.4643 22.3521 11.4643 22.9385 11.7712L29.8262 15.4898C30.1523 15.6721 30.3759 16.0324 30.3917 16.4706C30.3891 16.8972 30.1711 17.2538 29.8445 17.4364L22.9541 21.1565L22.9541 21.1564L22.9507 21.1583C22.6649 21.3155 22.3458 21.3898 22.0183 21.3898C21.6909 21.3898 21.3718 21.3155 21.0859 21.1583Z" fill="#2563EB" stroke="#2563EB"/>
<path d="M19.69 22.8618L13.2734 19.6534C12.7784 19.4151 12.21 19.4334 11.7334 19.7268C11.2567 20.0201 10.9817 20.5151 10.9817 21.0651V27.1334C10.9817 28.1784 11.5684 29.1318 12.5034 29.5901L18.9201 32.7984C19.1401 32.9084 19.3784 32.9634 19.635 32.9634C19.9284 32.9634 20.2034 32.8901 20.46 32.7251C20.9367 32.4318 21.2117 31.9368 21.2117 31.3868V25.3184C21.2117 24.2734 20.6434 23.3384 19.69 22.8618Z" fill="#2563EB"/>
<path d="M32.2483 19.7268C31.7717 19.4334 31.2033 19.4151 30.7083 19.6534L24.2917 22.8618C23.3567 23.3384 22.77 24.2734 22.77 25.3184V31.3868C22.77 31.9368 23.045 32.4318 23.5216 32.7251C23.7783 32.8901 24.0533 32.9634 24.3467 32.9634C24.585 32.9634 24.8234 32.9084 25.0617 32.7984L31.4784 29.5901C32.4134 29.1134 33 28.1784 33 27.1334V21.0651C33 20.5151 32.725 20.0201 32.2483 19.7268Z" fill="#2563EB"/>
</svg>
