<svg fill="none" height="12" viewBox="0 0 21 12" width="21" xmlns="http://www.w3.org/2000/svg" xmlns:xlink="http://www.w3.org/1999/xlink"><linearGradient id="a" gradientUnits="userSpaceOnUse" x1="13.5" x2="0" y1="6" y2="6"><stop offset="0" stop-color="#f27225"/><stop offset="1" stop-color="#213992"/></linearGradient><path clip-rule="evenodd" d="m.292894 11.7071c-.3905242-.3905-.3905243-1.0237 0-1.4142l4.292896-4.2929-4.292897-4.29289c-.3905241-.39053-.3905241-1.023692 0-1.414216.390525-.3905252 1.023687-.3905252 1.414217 0l5 4.999996c.39052.39053.39052 1.02369 0 1.41422l-5 4.99999c-.39053.3905-1.023691.3905-1.414216 0zm6.999996 0c-.39052-.3905-.39052-1.0237 0-1.4142l4.29291-4.2929-4.29291-4.29289c-.39052-.39053-.39052-1.023692 0-1.414216.39053-.3905252 1.02369-.3905252 1.41422 0l4.99999 4.999996c.3905.39053.3905 1.02369 0 1.41422l-4.99999 4.99999c-.39053.3905-1.02369.3905-1.41422 0zm7.00001-1.4142c-.3905.3905-.3905 1.0237 0 1.4142s1.0237.3905 1.4142 0l5-4.99999c.3905-.39053.3905-1.02369 0-1.41422l-5-4.999996c-.3905-.3905252-1.0237-.3905252-1.4142 0-.3905.390524-.3905 1.023686 0 1.414216l4.2929 4.29289z" fill="url(#a)" fill-rule="evenodd"/></svg>