<svg width="22" height="22" viewBox="0 0 22 22" fill="none" xmlns="http://www.w3.org/2000/svg">
    <defs>
        <linearGradient id="paint0_linear_1182_2472" x1="2.93712" y1="12.7072" x2="12.2072" y2="12.3292" gradientUnits="userSpaceOnUse">
            <stop stop-color="#192A80"/>
            <stop offset="0.451689" stop-color="#0B3EB1"/>
            <stop offset="1" stop-color="#0A48CD"/>
        </linearGradient>
        <linearGradient id="paint1_linear_1182_2472" x1="0.375751" y1="22.2854" x2="14.0851" y2="21.4348" gradientUnits="userSpaceOnUse">
            <stop stop-color="#192A80"/>
            <stop offset="0.451689" stop-color="#0B3EB1"/>
            <stop offset="1" stop-color="#0A48CD"/>
        </linearGradient>
        <linearGradient id="paint2_linear_1182_2472" x1="12.3395" y1="11.9441" x2="18.0926" y2="11.7517" gradientUnits="userSpaceOnUse">
            <stop stop-color="#192A80"/>
            <stop offset="0.451689" stop-color="#0B3EB1"/>
            <stop offset="1" stop-color="#0A48CD"/>
        </linearGradient>
        <linearGradient id="paint3_linear_1182_2472" x1="12.0157" y1="19.7684" x2="19.8299" y2="19.4168" gradientUnits="userSpaceOnUse">
            <stop stop-color="#192A80"/>
            <stop offset="0.451689" stop-color="#0B3EB1"/>
            <stop offset="1" stop-color="#0A48CD"/>
        </linearGradient>
    </defs>

    <path d="M8.25 1.83325C5.84834 1.83325 3.89584 3.78575 3.89584 6.18742C3.89584 8.54325 5.73834 10.4499 8.14 10.5324C8.21334 10.5233 8.28667 10.5233 8.34167 10.5324C8.36 10.5324 8.36917 10.5324 8.3875 10.5324C8.39667 10.5324 8.39667 10.5324 8.40584 10.5324C10.7525 10.4499 12.595 8.54325 12.6042 6.18742C12.6042 3.78575 10.6517 1.83325 8.25 1.83325Z" fill="url(#paint0_linear_1182_2472)"/>
<path d="M12.9067 12.9709C10.3492 11.2659 6.17834 11.2659 3.6025 12.9709C2.43834 13.7501 1.79667 14.8042 1.79667 15.9317C1.79667 17.0592 2.43834 18.1042 3.59334 18.8742C4.87667 19.7359 6.56334 20.1667 8.25 20.1667C9.93667 20.1667 11.6233 19.7359 12.9067 18.8742C14.0617 18.0951 14.7033 17.0501 14.7033 15.9134C14.6942 14.7859 14.0617 13.7409 12.9067 12.9709Z" fill="url(#paint1_linear_1182_2472)"/>
<path d="M18.3242 6.72834C18.4708 8.50668 17.2058 10.065 15.455 10.2758C15.4458 10.2758 15.4458 10.2758 15.4367 10.2758H15.4092C15.3542 10.2758 15.2992 10.2758 15.2533 10.2942C14.3642 10.34 13.5483 10.0558 12.9342 9.53334C13.8783 8.69001 14.4192 7.42501 14.3092 6.05001C14.245 5.30751 13.9883 4.62918 13.6033 4.05168C13.9517 3.87751 14.355 3.76751 14.7675 3.73084C16.5642 3.57501 18.1683 4.91334 18.3242 6.72834Z" fill="url(#paint2_linear_1182_2472)"/>
<path d="M20.1575 15.2075C20.0842 16.0967 19.5158 16.8667 18.5625 17.3892C17.6458 17.8934 16.4908 18.1317 15.345 18.1042C16.005 17.5084 16.39 16.7659 16.4633 15.9775C16.555 14.8409 16.0142 13.75 14.9325 12.8792C14.3183 12.3934 13.6033 12.0084 12.8242 11.7242C14.85 11.1375 17.3983 11.5317 18.9658 12.7967C19.8092 13.475 20.24 14.3275 20.1575 15.2075Z" fill="url(#paint3_linear_1182_2472)"/>
</svg>
