<svg width="22" height="22" viewBox="0 0 22 22" fill="none" xmlns="http://www.w3.org/2000/svg">
<path d="M8.39631 10.6516C8.36881 10.6516 8.35048 10.6516 8.32298 10.6516C8.27714 10.6424 8.21298 10.6424 8.15797 10.6516C5.49964 10.5691 3.49214 8.47909 3.49214 5.90325C3.49214 3.28159 5.62798 1.14575 8.24964 1.14575C10.8713 1.14575 13.0071 3.28159 13.0071 5.90325C12.998 8.47909 10.9813 10.5691 8.42381 10.6516C8.41464 10.6516 8.40548 10.6516 8.39631 10.6516ZM8.24964 2.52075C6.38881 2.52075 4.86714 4.04242 4.86714 5.90325C4.86714 7.73659 6.29714 9.21242 8.12131 9.27659C8.17631 9.26742 8.29548 9.26742 8.41464 9.27659C10.2113 9.19409 11.623 7.71825 11.6321 5.90325C11.6321 4.04242 10.1105 2.52075 8.24964 2.52075Z" fill="#838895"/>
<path d="M15.1613 10.7709C15.1338 10.7709 15.1063 10.7709 15.0788 10.7617C14.703 10.7984 14.318 10.5326 14.2813 10.1567C14.2446 9.78091 14.4738 9.44175 14.8496 9.39591C14.9596 9.38675 15.0788 9.38675 15.1796 9.38675C16.518 9.31341 17.563 8.21341 17.563 6.86591C17.563 5.47258 16.4355 4.34508 15.0421 4.34508C14.6663 4.35425 14.3546 4.04258 14.3546 3.66675C14.3546 3.29091 14.6663 2.97925 15.0421 2.97925C17.1871 2.97925 18.938 4.73008 18.938 6.87508C18.938 8.98341 17.288 10.6884 15.1888 10.7709C15.1796 10.7709 15.1705 10.7709 15.1613 10.7709Z" fill="#838895"/>
<path d="M8.40548 20.6709C6.60881 20.6709 4.80298 20.2126 3.43714 19.2959C2.16298 18.4526 1.46631 17.2976 1.46631 16.0417C1.46631 14.7859 2.16298 13.6217 3.43714 12.7692C6.18714 10.9451 10.6421 10.9451 13.3738 12.7692C14.6388 13.6126 15.3446 14.7676 15.3446 16.0234C15.3446 17.2792 14.648 18.4434 13.3738 19.2959C11.9988 20.2126 10.2021 20.6709 8.40548 20.6709ZM4.19798 13.9242C3.31798 14.5109 2.84131 15.2626 2.84131 16.0509C2.84131 16.8301 3.32714 17.5817 4.19798 18.1592C6.48048 19.6901 10.3305 19.6901 12.613 18.1592C13.493 17.5726 13.9696 16.8209 13.9696 16.0326C13.9696 15.2534 13.4838 14.5017 12.613 13.9242C10.3305 12.4026 6.48048 12.4026 4.19798 13.9242Z" fill="#838895"/>
<path d="M16.8113 19.0208C16.4905 19.0208 16.2063 18.8008 16.1421 18.4708C16.0688 18.095 16.3071 17.7375 16.6738 17.655C17.2513 17.5358 17.783 17.3067 18.1955 16.9859C18.718 16.5917 19.0021 16.0967 19.0021 15.5742C19.0021 15.0517 18.718 14.5567 18.2046 14.1717C17.8013 13.86 17.2971 13.64 16.7013 13.5025C16.3346 13.42 16.0963 13.0534 16.1788 12.6775C16.2613 12.3109 16.628 12.0725 17.0038 12.155C17.7921 12.3292 18.4796 12.6409 19.0388 13.0717C19.8913 13.7134 20.3771 14.6209 20.3771 15.5742C20.3771 16.5275 19.8821 17.435 19.0296 18.0858C18.4613 18.5258 17.7463 18.8467 16.958 19.0025C16.903 19.0208 16.8571 19.0208 16.8113 19.0208Z" fill="#838895"/>
</svg>
