<svg width="141" height="140" viewBox="0 0 141 140" fill="none" xmlns="http://www.w3.org/2000/svg">
<g clip-path="url(#clip0_2462_2285)">
<rect x="6.43652" y="70.0322" width="91.9688" height="91.9688" rx="13.3662" transform="rotate(-45 6.43652 70.0322)" fill="#E3EEFF"/>
<mask id="mask0_2462_2285" style="mask-type:alpha" maskUnits="userSpaceOnUse" x="11" y="10" width="120" height="120">
<rect x="6.43652" y="70.0323" width="91.9688" height="91.9688" rx="13.3662" transform="rotate(-45 6.43652 70.0323)" fill="white"/>
</mask>
<g mask="url(#mask0_2462_2285)">
<ellipse cx="39.3729" cy="62.6376" rx="53.2038" ry="65.238" fill="#F1F7FE"/>
</g>
<rect x="36.5" y="35" width="12" height="12" fill="#EAEEFA"/>
<rect x="36.5" y="93" width="12" height="12" fill="#EAEEFA"/>
<rect x="94.5" y="35" width="12" height="12" fill="#EAEEFA"/>
<circle cx="95.5" cy="94" r="16" fill="white"/>
<path d="M95.2996 76.7993C85.9105 76.7993 78.3003 84.4095 78.3003 93.8007C78.3003 103.19 85.9105 110.8 95.2996 110.8C104.69 110.8 112.3 103.19 112.3 93.8007C112.3 84.4095 104.69 76.7993 95.2996 76.7993ZM104.318 99.2097L100.713 102.815L95.2996 97.4064L89.8946 102.815L86.2818 99.2097L91.6939 93.8007L86.2818 88.3916L89.8946 84.7859L95.2996 90.195L100.713 84.7859L104.318 88.3916L98.9053 93.8007L104.318 99.2097Z" fill="#F57E25"/>
<path d="M30.7 29.2V52.9997H54.4996V29.2H30.7ZM47.7003 46.2003H37.5003V36.0003H47.7003V46.2003Z" fill="#2A49BB"/>
<path d="M30.7 86.9993V110.8H54.4996V86.9993H30.7ZM47.7003 104.001H37.5003V93.8007H47.7003V104.001Z" fill="#2A49BB"/>
<path d="M88.5002 29.2V52.9997H112.3V29.2H88.5002ZM105.5 46.2003H95.2996V36.0003H105.5V46.2003Z" fill="#2A49BB"/>
<path d="M61.3 29.2V36.0003H74.8997V52.9997H81.7V29.2H61.3Z" fill="#2A49BB"/>
<path d="M68.1004 104.001V86.9993H61.3V110.8H74.8997V104.001H68.1004Z" fill="#2A49BB"/>
<path d="M105.5 59.8H112.3V73.4007H105.5V59.8Z" fill="#2A49BB"/>
<path d="M98.7003 59.8H74.8997V73.4007H81.7V66.6003H98.7003V59.8Z" fill="#2A49BB"/>
<path d="M44.2996 73.4007H68.1002V80.2H44.2996V73.4007Z" fill="#2A49BB"/>
<path d="M61.2999 42.7997V59.8H30.7V80.2H37.5003V66.6003H68.1003V42.7997H61.2999Z" fill="#2A49BB"/>
<rect x="126.47" y="20" width="14.8066" height="14.8066" rx="3.40821" transform="rotate(45 126.47 20)" fill="#E3EEFF"/>
<rect x="115.745" y="12" width="8.83147" height="8.83147" rx="2" transform="rotate(45 115.745 12)" fill="#E3EEFF"/>
<rect x="43.4238" y="119" width="8.37756" height="8.37756" rx="1" transform="rotate(45 43.4238 119)" fill="#E3EEFF"/>
</g>
<defs>
<clipPath id="clip0_2462_2285">
<rect width="130" height="130" fill="white" transform="translate(6 5)"/>
</clipPath>
</defs>
</svg>
