<svg width="28" height="28" viewBox="0 0 28 28" fill="none" xmlns="http://www.w3.org/2000/svg">
<path d="M14.0002 26.0417C7.35797 26.0417 1.9585 20.6422 1.9585 14C1.9585 7.35785 7.35797 1.95837 14.0002 1.95837C20.6424 1.95837 26.0418 7.35785 26.0418 14C26.0418 20.6422 20.6424 26.0417 14.0002 26.0417ZM14.0002 2.70837C7.77402 2.70837 2.7085 7.7739 2.7085 14C2.7085 20.2262 7.77402 25.2917 14.0002 25.2917C20.2263 25.2917 25.2918 20.2262 25.2918 14C25.2918 7.7739 20.2263 2.70837 14.0002 2.70837Z" stroke="white"/>
<path d="M14 15.5417C13.7978 15.5417 13.625 15.3689 13.625 15.1667V9.33337C13.625 9.13118 13.7978 8.95837 14 8.95837C14.2022 8.95837 14.375 9.13118 14.375 9.33337V15.1667C14.375 15.3689 14.2022 15.5417 14 15.5417Z" fill="white" stroke="white"/>
<path d="M14.0002 19.8334C13.8485 19.8334 13.6968 19.7984 13.5568 19.74C13.4168 19.6817 13.2885 19.6 13.1718 19.495C13.0668 19.3784 12.9852 19.2617 12.9268 19.11C12.8685 18.97 12.8335 18.8184 12.8335 18.6667C12.8335 18.515 12.8685 18.3634 12.9268 18.2234C12.9852 18.0834 13.0668 17.955 13.1718 17.8384C13.2885 17.7334 13.4168 17.6517 13.5568 17.5934C13.8368 17.4767 14.1635 17.4767 14.4435 17.5934C14.5835 17.6517 14.7118 17.7334 14.8285 17.8384C14.9335 17.955 15.0152 18.0834 15.0735 18.2234C15.1318 18.3634 15.1668 18.515 15.1668 18.6667C15.1668 18.8184 15.1318 18.97 15.0735 19.11C15.0152 19.2617 14.9335 19.3784 14.8285 19.495C14.7118 19.6 14.5835 19.6817 14.4435 19.74C14.3035 19.7984 14.1518 19.8334 14.0002 19.8334Z" fill="white"/>
</svg>
