<svg width="28" height="28" viewBox="0 0 28 28" fill="none" xmlns="http://www.w3.org/2000/svg">
<path d="M14.0002 26.0417C7.35797 26.0417 1.9585 20.6422 1.9585 14C1.9585 7.35785 7.35797 1.95837 14.0002 1.95837C20.6424 1.95837 26.0418 7.35785 26.0418 14C26.0418 20.6422 20.6424 26.0417 14.0002 26.0417ZM14.0002 2.70837C7.77402 2.70837 2.7085 7.7739 2.7085 14C2.7085 20.2262 7.77402 25.2917 14.0002 25.2917C20.2263 25.2917 25.2918 20.2262 25.2918 14C25.2918 7.7739 20.2263 2.70837 14.0002 2.70837Z" fill="#16B14B" stroke="white"/>
<path d="M11.9896 16.4185L12.3432 16.7721L12.6967 16.4185L18.6934 10.4219C18.8365 10.2788 19.0799 10.2788 19.223 10.4219C19.366 10.5649 19.366 10.8084 19.223 10.9514L12.608 17.5664C12.5373 17.6371 12.4424 17.6767 12.3432 17.6767C12.244 17.6767 12.149 17.6371 12.0784 17.5664L8.77674 14.2648C8.63367 14.1217 8.63367 13.8783 8.77674 13.7352C8.91981 13.5921 9.16323 13.5921 9.3063 13.7352L11.9896 16.4185Z" fill="white" stroke="white"/>
</svg>
